<?xml version="1.0" encoding="UTF-8"?><svg id="Layer_2" xmlns="http://www.w3.org/2000/svg" viewBox="0 0 1236.95 398.98"><defs><style>.cls-1{fill:#ec8c4e;}.cls-2{fill:#ec404c;}</style></defs><g id="Layer_1-2"><path class="cls-1" d="m141.02,38.51c5.8-12.38,14-21.89,24.61-28.54,10.61-6.65,22.49-9.97,35.65-9.97,10.18,0,19.52,1.91,28.01,5.73s15.91,9.27,22.28,16.34v25.67c-7.5-4.53-15.17-7.99-23.02-10.4-7.85-2.4-16.16-3.61-24.93-3.61-17.68,0-31.37,4.07-41.06,12.2-9.69,8.14-14.53,19.42-14.53,33.84s4.95,26.17,14.85,34.37c9.9,8.21,23.83,12.31,41.8,12.31,8.49,0,16.94-1.06,25.36-3.18,8.41-2.12,16.44-5.09,24.08-8.91l.21,25.67c-7.5,6.79-15.53,11.85-24.08,15.17-8.56,3.32-18,4.99-28.33,4.99-13.86,0-26.1-3.11-36.71-9.34-10.61-6.22-18.75-15.24-24.4-27.05-5.66-11.81-8.49-25.78-8.49-41.91s2.9-31.01,8.7-43.39Z"/><path class="cls-1" d="m283.29,37.13c5.59-12.02,13.72-21.22,24.4-27.58,10.68-6.37,23.3-9.55,37.88-9.55s27.37,3.18,37.98,9.55c10.61,6.37,18.74,15.53,24.4,27.48,5.66,11.96,8.49,26.28,8.49,42.97s-2.83,31.05-8.49,43.07c-5.66,12.03-13.79,21.22-24.4,27.58-10.61,6.37-23.27,9.55-37.98,9.55s-27.2-3.18-37.88-9.55c-10.68-6.37-18.81-15.56-24.4-27.58-5.59-12.02-8.38-26.38-8.38-43.07s2.79-30.84,8.38-42.86Zm21.96,77.02c9.62,8.21,23.06,12.31,40.32,12.31,11.6,0,21.46-1.84,29.6-5.52,8.13-3.68,14.36-9.02,18.67-16.02,4.31-7,6.47-15.31,6.47-24.93s-2.16-17.89-6.47-24.83c-4.32-6.93-10.58-12.23-18.78-15.91-8.21-3.68-18.04-5.52-29.49-5.52-17.26,0-30.7,4.07-40.32,12.2-9.62,8.14-14.43,19.49-14.43,34.06s4.81,25.96,14.43,34.16Z"/><path class="cls-1" d="m448.05,3.18h32.04l58.35,107.79c1.13,1.98,2.65,3.47,4.56,4.46,1.91.99,4.21,1.49,6.9,1.49h9.12V3.18h18.04v154.9h-33.74l-58.14-108.21c-.85-1.55-2.16-2.79-3.93-3.71-1.77-.92-3.93-1.38-6.47-1.38h-8.7v113.31h-18.04V3.18Z"/><path class="cls-1" d="m603.58,3.18h115.01v31.83h-55.38l7.21-6.58v129.65h-17.82V28.43l7,6.58h-56.02V3.18Z"/><path class="cls-1" d="m777.57,3.18h29.49l59.41,154.9h-18.46l-40.74-106.73c-.99-2.4-2.72-4.17-5.2-5.3-2.48-1.13-5.91-1.7-10.29-1.7s-7.53.57-9.87,1.7c-2.33,1.13-4,2.9-4.99,5.3l-40.95,106.73h-18.04L777.57,3.18Zm-23.76,93.15h74.48l12.94,30.98h-98.45l11.03-30.98Z"/><path class="cls-1" d="m884.94,38.51c5.8-12.38,14-21.89,24.61-28.54,10.61-6.65,22.49-9.97,35.65-9.97,10.18,0,19.52,1.91,28.01,5.73,8.49,3.82,15.91,9.27,22.28,16.34v25.67c-7.5-4.53-15.17-7.99-23.02-10.4-7.85-2.4-16.16-3.61-24.93-3.61-17.68,0-31.37,4.07-41.06,12.2-9.69,8.14-14.54,19.42-14.54,33.84s4.95,26.17,14.85,34.37c9.9,8.21,23.83,12.31,41.8,12.31,8.49,0,16.94-1.06,25.36-3.18,8.42-2.12,16.44-5.09,24.08-8.91l.21,25.67c-7.5,6.79-15.53,11.85-24.08,15.17-8.56,3.32-18,4.99-28.33,4.99-13.87,0-26.1-3.11-36.71-9.34-10.61-6.22-18.75-15.24-24.4-27.05-5.66-11.81-8.49-25.78-8.49-41.91s2.9-31.01,8.7-43.39Z"/><path class="cls-1" d="m1013.52,3.18h115v31.83h-55.38l7.21-6.58v129.65h-17.82V28.43l7,6.58h-56.02V3.18Z"/><path class="cls-2" d="m842.06,356.39c7.59-7.51,14.85-20.68,18.25-33.25,3.54-13.11,3.38-20.42-.72-27.06-4.2-6.81-10.47-10.11-24.53-12.71-6.53-1.25-14.09-3.41-16.59-4.8-4.33-2.26-5.19-3.26-13.13-15.17-7.54-11.45-8.74-12.82-10.87-13.03-3.16-.17-6.82,2.09-8.97,5.65-1.91,3.18-1.87,3.63,3.1,14.54,2.42,5.44,3.76,9.9,3.85,12.9.17,6.94-2.95,17.69-8.8,30.47-5.91,12.7-7.15,17.35-6.21,22.87,1.33,8.82,9.77,21.35,18.29,27.14,13.2,9.01,32.63,5.83,46.33-7.57Z"/><path class="cls-2" d="m691.64,382.87c14.06-15.5,15.15-31.8,2.52-37.99-9.25-4.51-24.81-4.78-35.53-.63-6.25,2.45-12.13,7.38-16.55,13.74-3.48,5.21-7,18.54-6.46,24.56.67,5.46,3.83,11.15,7.63,13.5,12.05,7.14,35.89.64,48.39-13.19Z"/><path class="cls-2" d="m654.83,303.41c6.18-6.17,7.53-13.7,3.34-17.81-3.14-3-11.71-4.88-19.45-4.09-13.53,1.3-25.24,9.94-25.44,18.76-.16,6.21,6.77,13.45,14.49,14.91,5.4,1.13,10.53-.27,17.62-4.77,3.61-2.34,7.91-5.47,9.43-7Z"/><path class="cls-2" d="m586.99,311.93c2.75-4.87-.33-9.67-5.95-9.25-5.4.39-9.25,3.48-10.41,8.07-.52,2.2-.63,4.5-.31,5.01s2.42,1.44,4.62,1.96c4.63,1.02,9.45-1.25,12.05-5.8Z"/><path class="cls-2" d="m534.04,327.82c.92-.8,1.73-2.71,1.87-4.21.18-7.51-13.24-6.98-17.76.74-1.54,2.83-.46,4.4,4.24,5.73,4.15,1.2,8.65.3,11.65-2.26Z"/><path class="cls-2" d="m636.49,263.62c1.72-2.35-4.74-8.82-9.84-10.03-3.66-.79-5.99,1.35-7.85,7.08-1.37,4.25-1.35,5.42.06,6.19,2.85,1.76,15.87-.75,17.62-3.24Z"/><path class="cls-2" d="m512.16,336.16c.52-2.2-1.51-5.3-3.55-5.56-2.96-.41-6.4,1.25-7.45,3.54-.88,2.19-.69,2.31,4.13,3.45,5.37,1.27,6.29,1.05,6.88-1.43Z"/><path class="cls-2" d="m474.85,357.2c5.37-6.72,5.16-12-.78-15.15-6.89-3.74-16.82.16-20,7.77-2.51,6.02,1.92,13.39,8.48,13.92,4.57.35,8.21-1.55,12.3-6.54Z"/><path class="cls-2" d="m424.92,377.8c1.73-2.71,1.95-8.84.42-11.31s-6.35-4.19-10.37-3.47c-5.39.98-12.08,4.99-13.41,8.16-2.27,5.28,2.39,14.15,7.96,15.18,3.7.66,12.95-4.35,15.4-8.57Z"/><path class="cls-2" d="m397.75,350.63c4.43-5.2,4.14-10.43-.72-14.48-3.56-3.09-7.61-2.24-12.49,2.42-6.74,6.4-8.13,13.48-3.54,17.11,3.33,2.53,12.86-.3,16.74-5.05Z"/><path class="cls-2" d="m1236.75,209.55c.87-7.58-.92-11.25-7.19-14.59-10.77-5.73-25.4-5.49-44.31.87-24.55,8.23-40.61,9.87-91.01,9.42-42.49-.42-51.17-.29-82.43,1.19-24.63,1.16-66.8,2.26-100.5,2.56-54.23.57-116.67,1.65-192.82,3.58-46.38,1.13-101.08,2.37-121.53,2.69-58.32,1-62.71,1.16-77.55,2.66-7.67.79-24.64,3.08-37.8,5.02-33.86,5.08-42.9,5.25-58.89.59-9.5-2.79-29.32-11.31-35.97-15.42-7.13-4.48-8.93-7.7-7.96-13.98,1.95-13.24,1.67-18.03-1.99-30.29-4.65-15.73-10.6-24.56-20.07-30.18-7.67-4.54-11.7-4.42-18.3.11-14.4,10.23-33.84,30.13-39.7,40.72-3.66,6.66-3.81,7.37-3.4,14.05.62,10.75-.03,11.76-11.93,18.57-11.71,6.68-19.16,12.79-28.34,23.43-4.1,4.73-9.06,9.79-11.08,11.44-6.16,4.76-9.24,2.67-5.8-4,3.63-7.02,2.42-21.14-3.55-39.5-3.94-11.96-7.49-18.49-11.11-20.42-2.74-1.46-13.16,2.17-20.35,6.95-11.75,8.02-16.82,8.6-29.66,3.58-10.01-3.97-17.83-4.4-27.79-1.43-20.33,6.05-37.21,22.22-49.4,47.45-4.02,8.4-4.84,10.79-5.33,17.44-1.66,20.98,3.71,52.17,11.26,64.8,4.29,7.27,5.12,11.45,3.05,15.33-1.36,2.56-2.13,2.94-5.35,2.59-4.55-.39-6.25,1.32-10.61,10.78-3.7,8-4.1,13.45-1.21,17.37,4.19,5.74,13.77,3.93,35.02-6.61,16.04-8,27.38-12.05,36.48-12.97,3.99-.48,8.59-1.66,10.36-2.64,5.55-3.39,6.88-8.46,2.65-10.71-1.85-.99-9.83,1.22-13.7,3.81-6.83,4.52-40.73,4.37-44.78-.17-2.78-3.29,5.42-9.12,31.49-22.32,10.38-5.24,22.09-11.91,26.06-14.67,10.71-7.55,13.63-11.55,20.67-27.74,7.61-17.48,9.48-18.86,15.46-11.59,3.34,4.16,3.5,6.4.57,9.14-5.36,4.96-4.94,16.51.76,26.01,2.61,4.45,4.19,5.97,8.25,8.13,5.56,2.96,9.01,6.27,8.16,7.86-.28.53-4.43,3.42-9.02,6.3-17.96,11.17-18.02,15.33-.36,15.56,8.9.09,9.44.15,17.24,4.43,8.78,4.79,14.56,9.68,22.89,19.56,5.9,7,7.24,7.25,11.03,2.48,5.14-6.67,28.79-21.94,43.72-28.27q4.52-1.9,3.3.4c-3.38,6.35-23.72,21.13-35.47,25.75-2.17.88-4.49,2.48-5.1,3.63-1.5,2.82.09,6.85,2.98,7.59,4,1,12.23-.85,18.44-4,5.17-2.69,6.18-3.73,8.3-7.93,2.31-4.55,2.67-4.81,8.99-6.88,7.71-2.35,11.42-5.7,16.4-14.83,4.65-8.51,5.65-12.52,4.37-18.63-1.35-6.61-.13-10.61,4.88-15.76,5.84-6.07,15.53-10.87,32.5-16.34,20.34-6.5,22.11-7.48,24.04-12.8,1.36-4.04,1.77-4.38,7.18-6.26,11.15-3.92,42.28-5.35,48.1-2.25,2.12,1.13,3.02,2.4,3.36,5.19.35,2.11,1.33,4.11,2.3,4.62,2.56,1.36,7.42-1.37,10.71-6.08,3.94-5.49,10.03-7.35,26.14-7.6,14.59-.39,20.69-.99,46.6-4.75,68.35-10.05,217.74-21.24,367.64-27.63,95.66-4.11,116.99-5.45,132.5-8.4,5.53-1.02,11.58-1.31,16.21-.66,8.78,1.17,25.11,1.36,56.67.61,28.61-.74,34.41-.37,37.93,1.96,2.42,1.63,2.62,2.3,1.92,7.03-.43,2.94-1,7.4-1.33,9.94-.38,2.63,0,7.25.76,10.26,3.34,12.88,15.76,16.78,33.77,10.84,9.66-3.24,17.51-7.56,28.96-16.08,15.51-11.68,21.25-19.27,22.6-29.88Z"/><path class="cls-2" d="m1091.99,308.83c-9.71-11.57-25.92-15.58-35.48-8.81-3.83,2.67-10.39,13.74-10.79,18.18-.5,5.95,6.58,21.5,11.88,25.75,2.23,1.85,3.35,2.08,6.81,1.34,5.24-1.06,15.23-8.86,24.37-18.9,7.92-8.76,8.35-11.29,3.21-17.56Z"/><path class="cls-2" d="m1061.55,237.24c-1.78-3.99-3.43-6.18-6.69-8.46-7.39-5.51-20.11,6.38-19.31,18.15.55,8.08,9.19,18.72,16.09,19.95,3.76.75,8.93-2.81,11.03-7.37,1.91-4.34,1.27-16.62-1.12-22.28Z"/><path class="cls-2" d="m1011.69,310.09c-1.97-3.98-6.5-8.58-8.49-8.44-2.59.18-8.83,8.72-9.91,13.5-1.32,5.6-.5,14.77,1.54,18.14,4.52,7.51,14.45,4.63,17.79-5.12,1.34-3.9.82-14.49-.93-18.08Z"/><path class="cls-2" d="m990.67,359.13c-1.96-3.78-5.45-6.44-7.71-5.79-2.56.68-2.25,11.18.47,15.8,5.2,8.67,12.07-.92,7.24-10.01Z"/><path class="cls-2" d="m464.63,286.76c-5.74-1.13-12.38,1.11-12.23,4.02.17,2.24,5,2.1,9.89-.28,4.71-2.25,5.32-3.17,2.33-3.74Z"/><path class="cls-2" d="m479.89,197.91c-1.05-2.49-4.23-2.7-9.96-.44-6.01,2.35-10.64,6.79-10.83,10.55-.08,1.43.42,2.83,1.13,3.21,2.21,1.18,9.11-.93,13.66-4.17,5.06-3.54,7.1-6.53,6.01-9.15Z"/><path class="cls-2" d="m935.35,298.85c-3.1-7.21-9.74-13.47-15.2-14.2-6.98-.93-11.42,10.4-9.46,24.4,2.35,16.78,14.87,18.23,23.13,2.63,2.85-5.31,3.21-8.74,1.53-12.83Z"/><path class="cls-2" d="m451.47,212.12c-.47-2.52-1-3.02-2.74-2.93-4.66.24-10.25,7.12-9.56,11.79.45,3.19,3.18,3.17,7.56-.16,4.74-3.59,5.5-5,4.74-8.69Z"/><path class="cls-2" d="m193.54,327.97c-.82-1.23-7.75.52-9.86,2.56-2.8,2.7,2.54,7.36,5.86,5.16,2.37-1.68,4.81-6.27,4-7.73Z"/><path class="cls-2" d="m84.03,378.3c-.3-4.12-2.66-6.29-4.76-4.46s-4.9,7.7-5.11,10.65c-.18,3.53,1.04,4.86,4.18,4.49,3.41-.45,6.14-5.57,5.69-10.68Z"/><path class="cls-2" d="m79.31,356.3c2.92-12.5.2-30.37-5.84-39.03-6.99-9.84-18.42-12.42-33.23-7.39-19.27,6.62-34.03,20.28-38.54,35.78-3.53,12.17-1.43,27.79,5.09,38.74,3.04,5.13,4.18,6.19,9.3,8.92,4.28,2.17,7.13,3,10.84,3.05,13.95.18,27.82-5.01,37.53-13.89,6.18-5.66,12.88-17.38,14.86-26.19Z"/></g></svg>