<?xml version="1.0" encoding="UTF-8"?><svg id="assets-to-send" xmlns="http://www.w3.org/2000/svg" viewBox="0 0 254.43 211.51"><defs><style>.cls-1{fill:#ec404c;}.cls-2{fill:#ec5538;}</style></defs><path d="m79.17,148.69c-.79,1.3-1.45,2.6-1.94,3.98-.74,2.07-1.56,4.1-2.05,6.25-.14.61-.42,1.17-.8,1.66-3.62,4.79-7.04,9.73-11.12,14.16-1.34,1.45-2.6,2.99-3.9,4.48-.24.27-.41.62-.82.8-.28-.45.02-.83.14-1.2,1.31-4.42,2.66-8.83,4.52-13.07.23-.53.03-.96-.24-1.39-1.73-2.79-2.63-5.85-2.94-9.11-.3-3.18.54-6.19,1.25-9.24,1.69-7.27,4.42-14.25,5.97-21.55.36-1.71.46-3.44.49-5.17,0-.36-.11-.66-.26-.97-1.18-2.45-2.89-4.55-4.45-6.74-.39-.55-1.37-.53-1.75-.05-1.85,2.31-3.69,4.63-5.88,6.64-1.17,1.07-2.29,2.18-3.43,3.28-.53.52-.77,1.14-.85,1.89-.28,2.65-.74,5.27-1.31,7.87-.22,1,.03,1.83.56,2.63,2.53,3.8,4.02,8,4.75,12.49.42,2.55-.14,4.86-1.73,6.91-.46.59-.94,1.16-1.37,1.76-.77,1.08-1.19,2.28-1.26,3.63-.19,3.99.38,7.91,1.03,11.82.11.67.47,1.57-.42,1.88-.87.3-1.07-.67-1.39-1.21-2.87-4.92-5.4-10.09-8.96-14.53-3.04-3.79-3.76-8.18-4.54-12.65-.61-3.51-1.14-7.03-1.7-10.54-.08-.49-.21-.97-.62-1.41-.54.43-.81.98-.84,1.63-.19,3.59-.56,7.18-.49,10.77.08,4.34-.05,8.67-.1,13.01,0,.4.16.68.35,1.01,1.27,2.13,2.53,4.29,2.95,6.76.45,2.68.58,5.42,1.03,8.1.44,2.68-.49,4.99-1.52,7.32-.43.96-.88,1.91-1.38,2.83-.68,1.28-.83,2.68-.78,4.06.07,2.1.04,4.21.48,6.28.13.6.33,1.19.49,1.78.08.27.15.58-.16.74-.35.18-.49-.15-.63-.37-.26-.45-.5-.92-.74-1.39-2.21-4.34-3.92-8.88-5.45-13.5-.66-1.97-1.57-3.84-2.33-5.77-.84-2.13-1.54-4.31-2.74-6.28-.17-.28-.24-.64-.67-.82-.13.5.06.98.01,1.45-.25,2.7-1.6,4.79-3.83,6.17-1.85,1.15-2.44,2.78-2.57,4.74-.24,3.55-.45,7.11-.67,10.66-.02.25-.04.49-.07.74-.05.4-.22.74-.66.79-.44.05-.71-.24-.81-.62-.32-1.26-.64-2.51-.92-3.78-2.22-10.18-4.42-20.36-6.64-30.54-.3-1.39-.61-2.78-.97-4.16-.54-2.09-.63-4.19,0-6.24,1.02-3.38.79-6.78.63-10.22-.28-5.85-1.27-11.64-1.22-17.51,0-.86.26-1.41,1.1-1.7,1.15-.39,2.22-.94,3.24-1.6,3.5-2.23,7.11-4.29,10.5-6.69,3.58-2.52,6.14-5.98,8.9-9.3,1.74-2.09,1.95-4.58,2.62-6.97.66-2.35,1.43-4.67,1.82-7.09.11-.7.61-1.21,1.21-1.59,5.05-3.23,9.24-7.48,13.67-11.44,3.96-3.53,8.02-6.93,12.29-10.08,6.4-4.7,12.46-9.83,18.5-14.97,2.25-1.91,4.84-3.34,7.17-5.11,3-2.29,5.88-4.74,8.73-7.23,1.57-1.37,3.34-2.46,5.02-3.67,2.79-2.02,4.98-4.65,7.45-6.98,1.69-1.59,3.37-3.2,5.04-4.82.74-.72,1.57-1.05,2.64-1.11,3.09-.19,6.15-.76,9.19-1.3,3.36-.6,6.76-.84,10.14-1.23,4.83-.55,9.66-1.05,14.48-1.73,3.8-.54,7.63-.86,11.43-1.39,4.23-.59,8.43-1.37,12.66-1.94,5.09-.68,10.22-1.11,15.31-1.86,6.13-.9,12.32-1.25,18.46-2.13,4.29-.61,8.63-.81,12.95-1.21,4.66-.42,9.3-.99,13.96-1.4,4.07-.36,8.14-.81,12.19-1.38.83-.12,1.66-.24,2.48-.37.5-.08.78.03.7.6-.02.15,0,.31,0,.46,0,22.41,0,44.82,0,67.23,0,1.25.2,1.16-1.14,1.07-7.02-.49-14.04-.89-21.05-1.52-7.81-.7-15.65-1.06-23.44-1.86-6.44-.67-12.89-1.28-19.36-1.53-5.17-.19-10.35-.14-15.53-.26-8.25-.18-16.49-.05-24.73,0-2.54.01-5.08-.12-7.61-.11-4.18.01-8.17.79-11.45,3.78-1.78,1.62-3.88,2.88-5.58,4.61-.24.24-.49.49-.64.78-1.49,2.99-2.92,6.01-4.25,9.08-2.07,4.77-3.83,9.67-6.01,14.39-1.27,2.76-2.99,5.21-5.07,7.4-2.37,2.5-4.57,5.14-6.83,7.74-.66.76-1.08,1.63-1.07,2.6.08,4.25-.62,8.45-.79,12.68-.17,4.12-.24,8.24-.41,12.36-.06,1.55-.21,3.09-.41,4.63-.3,2.41-1.5,4.43-2.93,6.33-2.16,2.87-4.41,5.68-5.95,8.96-.47,1.01-.89,2.04-1.33,3.07-.24.55-1.18,1.14-1.19,1.11-.02-.04-1.34-5.78-1.36-7.98-.03-3.07,0-6.14-.22-9.2-.02-.33.07-.68-.24-1.08Z"/><path class="cls-1" d="m110.12,93.26c-.64,1.53-1.38,2.66-1.94,2.29-.43-.28-1.69-1.1-.91-2.82.74-1.62,2.72-2.58,3.24-2.34.54.25.42,1.12-.39,2.87Z"/><path class="cls-1" d="m72.9,125.25c.61.05.97.55.57,1.81-.31.96-.78,1.93-1.45,1.78-.63-.14-.87-1.13-.55-2.22.33-1.14.77-1.56,1.44-1.37Z"/><path class="cls-1" d="m51.17,165.46c.13,2.64.74,5.2,1.47,7.66,1.83,4.23.61,6.97.32,7.3-.97,1.12-1.38,2.03-1.42,3.22-.09,2.6-.58,5.09-1.49,7.51-1.02,2.72-3.64,4.64-6.39,4.5-1.52-.08-2.78-1.01-3.56-2.24-1.39-2.19-2.59-4.5-3.8-6.8-.5-.95-.82-1.99-1.26-3.09-1.37,3.65-2.43,7.21-.59,10.93.12.25,2.24,3.16.2,4.1-1.26.43-2.69,1.03-6.32-10.82-1.05-3.58-2.07-7.17-3.17-10.73-.66-2.14.01-3.86,1.52-5.3,1.17-1.12,1.66-2.42,1.58-3.99-.11-2.02-.22-4.04-.38-6.06-.29-3.71.65-7.27,1.2-10.89.09-.56.08-1.13.13-1.69,0-.04.01-.09.02-.14.22-.86,1.31-1.14,1.98-.57.16.13.3.27.39.4.18.25.38.48.53.74.17.31.69.74.71,1.07.09,1.82-.02,3.79-.12,5.37.09,2.02.84,3.04,1.78,4.77,1.27,2.34,2.15,5.51,2.38,8.21.24,2.89,1.11,4.19.42,7.01-.06.26-.47,1.94-.39,2.18,1.06,3.19.96,6.78,2.79,9.69.75,1.19,1.69,2.29,2.71,3.26,1.07,1.01,2.36.71,2.87-.68.48-1.32.88-2.75.93-4.14.14-4.08.24-8.17-.61-12.22-.53-2.49-.98-5-1.4-7.51-.24-1.45-1.33-7.33-2.35-8.38-.3-.31-.79-1.29-1.1-1.59-1.34-1.31-2.49-2.88-2.77-4.8-.26-1.72-.81-3.38-1.17-5.09-.1-.46.2-.93.31-1.39.05-.22.41-.52.63-.52.22,0,.55.28.64.52.26.72.4,1.49.65,2.22.11.31.35.6.6.83.95.91,1.96,1.77,2.88,2.71.74.75,1.33,1.64,2.1,2.35,1.18,1.1,2.55,1.4,4.06.62.35-.18.76-.28,1.15-.34.61-.09,1.04.18,1.13.82.15,1.06.2,2.13.39,3.18.28,1.53.63,3.05.95,4.57.06.31.12.83.12,1.15,0,1.18.04,1.84-1.26,2.1Z"/><path class="cls-1" d="m8.32,160.79c.4.8.74,1.62,1.13,2.42,1.35,2.78,2.37,5.72,4.25,8.23.55.73,1.3,1.25,2.22,1.12.86-.12,1.18-.92,1.43-1.68.42-1.27.48-2.51,0-3.81-.35-.94-.41-1.99-.79-2.92-.35-.87-.88-1.7-1.44-2.46-.74-1-1.33-2.05-1.16-3.31.32-2.38-.6-4.35-1.84-6.26-.78-1.19-1.51-2.44-1.32-3.95.11-.91.43-1.8.54-2.71.17-1.37.25-2.75.37-4.13.04-.41.02-.83.14-1.22.07-.23.32-.52.52-.55.19-.03.51.2.63.41,1.1,1.89,2.41,3.71,3.17,5.73.88,2.34,1.27,4.86,1.87,7.3.17.69.31,1.39.45,2.09.57,2.89,2.08,5.7,2.63,8.59.1.54,1.93,5.07-.97,10.98-1.33,2.69-2.78,5.33-3.98,8.08-.55,1.27-.74,2.73-.9,4.13-.19,1.63.03,3.25.53,4.84.47,1.5.31,3.01-.49,4.4-.68,1.18-1.99,1.7-3.15,1.27-.96-.35-1.61-1.04-1.57-2.08.06-1.71.3-3.41.37-5.12.07-1.53.08-3.06-.01-4.59-.09-1.53-.22-3.08-.52-4.58-.52-2.62-1.24-5.2-1.77-7.82-.32-1.6-.72-3.17-.89-4.79-.03-.3.47-.68.59-1,.13-.36.37-.74.35-1.09-.05-1.17-.2-2.33-.31-3.5-.06-.66-.06-1.32-.16-1.98l.07-.02Z"/><path class="cls-1" d="m75.64,153.88c.87-3.4,1.75-6.79,2.65-10.19,1.07-4.05,3-7.71,5.01-11.35.4-.73.75-1.49,1.14-2.23.8-1.53.82-3.15.5-4.79-.23-1.21-.5-2.41-.82-3.6-.53-1.98.12-3.52,1.68-4.72.46-.36.98-.65,1.48-.95,1.49-.9,2.65-2.05,3.39-3.69,1.27-2.83,2.81-5.54,4.92-7.84.9-.99,1.98-1.89,3.14-2.55,1.51-.86,2.52.19,2.58,1.56.19,3.9-1.58,6.94-3.9,9.79-.43.53-.94.99-1.47,1.42-1.43,1.16-1.92,2.75-2.09,4.48-.3,3.01-.81,5.98-2.23,8.67-1.47,2.79-3.16,5.46-4.68,8.23-2.2,3.98-4.3,8.02-6.5,12-1.02,1.84-2.16,3.61-3.29,5.38-.31.49-.79.88-1.19,1.32-.11-.05-.39-.69-.33-.93Z"/><path class="cls-1" d="m3.74,122.57c-.07-.95-.13-1.9-.21-2.85-.07-.9.43-1.39,1.16-1.78,2.25-1.19,4.47-2.45,6.74-3.62,3.56-1.83,6.37-4.67,9.56-7.01.47-.34.84-.83,1.31-1.18.23-.17.67-.32.86-.21.29.16.67.59.63.85-.08.55-.29,1.17-.65,1.58-2.11,2.39-4.29,4.71-6.43,7.07-.71.78-1.45,1.54-2.05,2.39-.84,1.19-1.85,2.16-3.17,2.78-.94.44-1.47,1.14-1.68,2.18-.21,1.03-.5,2.04-.84,3.03-.44,1.26-1.39,2.04-2.22,1.95-1.22-.14-2.72-1.55-2.85-2.71-.09-.82-.15-1.65-.22-2.47.02,0,.04,0,.06,0Z"/><path class="cls-1" d="m68.89,118.76c.05.56.17,1.13.15,1.69-.06,2.06-.18,4.12-.26,6.18-.07,1.63.77,2.96,1.54,4.28.58,1.01.95,2.03.61,3.17-.28.94.15,1.65.57,2.42.57,1.05-.04,2.09-1.15,1.91-.51-.08-1.02-.43-1.42-.79-.97-.86-1.46-.8-2.06.39-.27.55-.47,1.15-.76,1.69-.2.37-.45.75-.75,1.03-.66.62-1.39.47-1.52-.4-.19-1.3-1.21-.39-.16-3.94,1.17-5.28,2.5-10.53,3.83-15.78.17-.67.98-1.9.98-1.9,0,0,.4.04.4.04Z"/><path class="cls-1" d="m43.68,132.28c.03-1.4.6-2.05,1.94-2.48.38-.12.74-.54.97-.91.64-1.05,1.25-2.13,1.79-3.24.18-.38.17-.9.13-1.34-.11-1.16.07-2.2.94-3.08.28-.29.48-.74.55-1.15.22-1.44,1-2.47,2.18-3.28.76-.52,1.45-1.15,2.17-1.72.78-.61,1.57-1.2,2.34-1.8.85-.66,1.7-1.34,2.55-2.01.46-.36.97-.67,1.51-.24.58.47.31,1.05-.04,1.48-1.37,1.67-2.77,3.32-4.2,4.94-.69.79-1.44,1.54-2.21,2.26-2.24,2.1-3.14,2.5-3.28,5.7-.06,1.52-1.16,4.84-1.25,6.37-.08,1.51-.49,1-1.53.8-.96-.19-2.59.3-3.58.45-.83.13-1,.09-.98-.75Z"/><path class="cls-1" d="m38.96,115.95c1.07-.09,2.16-.07,3.21-.29.72-.15,1.51-.47,2.03-.97,2.67-2.6,6.04-3.35,9.54-3.82.88-.12,1.77-.16,2.66-.16.23,0,.47.27.71.42-.19.17-.35.42-.57.5-1.38.51-2.76,1-4.15,1.46-4.67,1.52-8.19,4.59-11.22,8.33-1.9,2.34-5.02,6.74-7.63,11.37-.19.35-.5.61-.86.78h0c-.05-.24-.21-.53-.13-.71.9-1.82,3.8-8.23,4.76-10.02.42-.79.98-1.51,1.38-2.31.67-1.32.48-1.92-.74-2.72-.39-.26-.82-.46-1.15-.78-.18-.18-.3-.55-.25-.8.03-.15.42-.31.65-.33.58-.05,1.18-.02,1.76-.02,0,.02,0,.04,0,.07Z"/><path class="cls-1" d="m32.64,203.24c-.1,1.41-.15,2.45-.27,3.48-.05.45-.21.91-.41,1.32-.5,1.02-1.47,1.5-2.24,1.19-.78-.32-1.29-1.56-1.03-2.53.59-2.17,1.16-4.35,1.82-6.5.08-.25.33-.44.59-.63s.61-.14.81.1c.12.15.22.3.26.47.23,1.14.36,2.29.47,3.1Z"/><path class="cls-1" d="m93.94,84.64c.31-.58.53-1.22.94-1.67.19-.21.89-.22,1.15-.03.35.24.97.58.52,1.25-.4.6-.76,1.24-1.2,1.82-.09.12-.55.14-.62.05-.29-.41-.51-.88-.79-1.42Z"/><path class="cls-1" d="m28.02,146.01c-.14.52-.18,1.1-.45,1.54-.16.26-.91.49-1.02.38-.34-.37-.74-.92-.69-1.35.07-.64.35-1.44.83-1.79.67-.5,1.17.03,1.32,1.23Z"/><path class="cls-1" d="m103.61,95.62c.07.71-.15,1.29-.94,1.24-.6-.03-1.24-.25-1.26-1.07-.02-.76.5-1.37,1.18-1.37.71,0,1.02.36,1.02,1.19Z"/><path class="cls-1" d="m50.8,154.79s.09.24.26.42c.18.19.45.31.8-.02,0,0-.74,1.23-.72,2.44s-1.17-.25-1.17-.25"/><path class="cls-2" d="m49.33,162.26c.07.13.11.26.17.39,0-.18-.06-.3-.17-.39Z"/><path class="cls-2" d="m48.97,161.94c-.08.05-.13.11-.17.17.23.02.41.07.52.16-.07-.13-.17-.25-.36-.33Z"/><path d="m75.02,159.69l1.68-5.55,1.03-1.41-1.51-1.04-3.17-4.68-11.07-3.36s-1.54,6.32-1.9,7.33c-1.31,3.75-1.08,6.24.53,9.05.2.37,1.24,2.61,2.58,3.91.46.45-2.55,6.39-3.93,10.32-.48,1.37-.6,5.52-.6,5.52l7.67-8.48,2.88-3.88,5.81-7.73Z"/><path class="cls-1" d="m98.82,111.14s6.84-7.74,7.74-10.25c.34-.95-1.53.55-3.21.45s-3.42-.35-4.61.46.08,9.34.08,9.34Z"/><path class="cls-1" d="m85.11,153.26c-.85,1.7-1.36,3.1-2.19,4.77-.19.38,1.17.55.77.96-.95.99-3.69,1.34-3.17-1.51.17-.94.27-1.89.46-2.83.36-1.75.8-3.49,1.15-5.25.31-1.59.86-3.07,2.12-4.13,1.51-1.28,1.74-2.9,1.52-4.71-.07-.52-.05-1.06,0-1.58.03-.24.23-.46.36-.69.2.14.45.25.6.44.26.33.47.7.79,1.2.64-1.75.82-3.32.39-5-.45-1.79-.97-3.6-.52-5.48.06-.24.11-.48.22-.7.5-.93,1.27-1.04,1.78-.13.38.69.52,1.56.62,2.36.3,2.41.54,4.83.8,7.24,0,.08.12.14.26.3.26-.16.52-.35.8-.51.64-.37,1.21-.12,1.11.6-.4,2.87-.68,5.82-3.29,7.77-.21.16-.39.36-.48.61-.81,2.19-.87,4.42-.76,6.75.19,4.27,2.08,8.21,2.22,12.46.05,1.54.1,3.1-.13,4.62-.23,1.52-1.19,2.27-2.4,2.29-1.42.03-2.49-.77-3.01-2.18-.72-1.94-.2-3.86.14-5.75.71-3.92.69-7.82.02-11.73,0-.05-.08-.08-.19-.19Z"/><path class="cls-1" d="m76.91,149.09s-2.07,6.39-1.68,6.72.44.6,1.09-.48c.51-.85,2.78-4.97,3.87-6.77.29-.49.53-1.35.53-1.35l-3.8,1.87Z"/></svg>