<?xml version="1.0" encoding="UTF-8"?>
<svg id="Layer_2" data-name="Layer 2" xmlns="http://www.w3.org/2000/svg" viewBox="0 0 236.35 215.18">
  <defs>
    <style>
      .cls-1 {
        fill: #ec5538;
      }

      .cls-2 {
        fill: #ec8c4e;
      }

      .cls-3 {
        fill: #ec404c;
      }
    </style>
  </defs>
  <g id="assets-to-send">
    <path d="m73.22,140.67c-.76,1.26-1.41,2.51-1.88,3.85-.71,2-1.51,3.97-1.99,6.05-.14.59-.41,1.13-.77,1.61-3.5,4.64-6.81,9.42-10.77,13.7-1.3,1.41-2.52,2.89-3.78,4.33-.23.26-.4.6-.8.77-.27-.43.02-.8.13-1.16,1.27-4.28,2.58-8.55,4.37-12.64.23-.52.03-.93-.23-1.35-1.67-2.7-2.55-5.66-2.84-8.81-.29-3.08.53-5.99,1.21-8.95,1.63-7.04,4.28-13.79,5.78-20.86.35-1.65.44-3.33.48-5.01,0-.34-.11-.64-.25-.94-1.14-2.37-2.79-4.4-4.31-6.52-.38-.53-1.32-.51-1.69-.05-1.79,2.23-3.57,4.48-5.69,6.43-1.13,1.03-2.21,2.11-3.32,3.17-.52.5-.75,1.1-.83,1.83-.27,2.56-.72,5.1-1.27,7.62-.21.97.03,1.77.55,2.55,2.45,3.68,3.89,7.74,4.6,12.08.4,2.47-.14,4.7-1.67,6.69-.44.57-.91,1.12-1.33,1.7-.75,1.05-1.15,2.21-1.22,3.51-.18,3.86.37,7.65.99,11.44.11.65.45,1.52-.41,1.82-.84.29-1.03-.64-1.34-1.17-2.78-4.76-5.23-9.76-8.67-14.07-2.94-3.67-3.64-7.92-4.4-12.24-.59-3.39-1.1-6.8-1.65-10.2-.08-.47-.21-.94-.6-1.37-.52.41-.78.95-.82,1.58-.18,3.47-.54,6.95-.47,10.42.08,4.2-.05,8.39-.1,12.59,0,.39.15.66.34.98,1.23,2.06,2.45,4.16,2.85,6.55.43,2.6.56,5.24,1,7.84.43,2.59-.47,4.83-1.47,7.09-.41.93-.85,1.85-1.33,2.74-.66,1.24-.8,2.59-.75,3.93.07,2.03.04,4.08.47,6.08.13.58.32,1.15.48,1.72.07.26.15.56-.15.72-.34.17-.48-.14-.61-.36-.26-.44-.49-.89-.72-1.34-2.14-4.2-3.79-8.6-5.28-13.06-.64-1.91-1.52-3.71-2.26-5.58-.81-2.06-1.49-4.17-2.65-6.08-.16-.27-.23-.62-.65-.8-.12.49.05.94,0,1.4-.25,2.62-1.55,4.63-3.71,5.97-1.79,1.11-2.36,2.69-2.49,4.59-.23,3.44-.44,6.88-.65,10.32-.02.24-.04.48-.07.72-.05.38-.21.71-.64.76-.43.05-.69-.23-.78-.6-.31-1.22-.62-2.43-.89-3.66-2.15-9.85-4.28-19.71-6.42-29.56-.29-1.34-.59-2.69-.94-4.02-.52-2.02-.61-4.06,0-6.04.99-3.27.77-6.56.61-9.89-.27-5.66-1.23-11.26-1.19-16.94,0-.84.25-1.37,1.06-1.65,1.11-.38,2.15-.91,3.14-1.54,3.39-2.16,6.88-4.15,10.16-6.47,3.46-2.44,5.94-5.79,8.61-9,1.69-2.03,1.89-4.43,2.54-6.74.64-2.27,1.39-4.52,1.76-6.87.11-.68.6-1.17,1.17-1.54,4.88-3.13,8.94-7.24,13.23-11.07,3.83-3.42,7.76-6.71,11.9-9.75,6.19-4.55,12.05-9.51,17.9-14.49,2.18-1.85,4.68-3.23,6.94-4.95,2.91-2.21,5.7-4.59,8.45-6.99,1.52-1.33,3.23-2.38,4.86-3.55,2.7-1.95,4.82-4.5,7.21-6.75,1.64-1.54,3.26-3.1,4.88-4.66.72-.69,1.52-1.01,2.56-1.08,2.99-.19,5.95-.73,8.9-1.26,3.25-.58,6.54-.81,9.81-1.19,4.67-.53,9.35-1.01,14.01-1.68,3.68-.53,7.38-.83,11.06-1.34,4.09-.57,8.16-1.33,12.26-1.88,4.93-.66,9.9-1.07,14.82-1.8,5.94-.87,11.93-1.21,17.86-2.06,4.15-.59,8.36-.79,12.53-1.17,4.51-.41,9-.95,13.51-1.36,3.94-.35,7.87-.79,11.79-1.33.8-.11,1.6-.23,2.4-.36.48-.08.76.03.68.58-.02.15,0,.3,0,.45v65.07c0,1.21.19,1.12-1.11,1.03-6.79-.47-13.59-.86-20.37-1.47-7.56-.67-15.14-1.02-22.69-1.8-6.24-.64-12.48-1.24-18.74-1.48-5.01-.19-10.02-.14-15.03-.25-7.98-.17-15.96-.05-23.94,0-2.46.01-4.92-.12-7.37-.11-4.04,0-7.91.77-11.08,3.66-1.72,1.57-3.76,2.78-5.4,4.46-.23.23-.48.47-.62.76-1.45,2.89-2.82,5.82-4.11,8.79-2,4.62-3.71,9.36-5.82,13.93-1.23,2.67-2.89,5.04-4.9,7.16-2.3,2.42-4.42,4.98-6.61,7.49-.64.74-1.05,1.57-1.03,2.52.08,4.11-.6,8.18-.77,12.27-.16,3.99-.23,7.98-.39,11.96-.06,1.5-.21,2.99-.39,4.48-.29,2.33-1.45,4.29-2.84,6.13-2.09,2.78-4.27,5.5-5.75,8.68-.46.98-.86,1.98-1.29,2.97-.23.53-1.14,1.1-1.15,1.07-.02-.04-1.3-5.59-1.31-7.72-.02-2.97,0-5.94-.22-8.9-.02-.32.07-.66-.23-1.04l.04-.04Z"/>
    <path class="cls-3" d="m103.17,87.02c-.62,1.48-1.34,2.58-1.88,2.22-.41-.27-1.63-1.06-.88-2.73.71-1.57,2.64-2.5,3.13-2.27.52.24.41,1.08-.38,2.78h.01Z"/>
    <path class="cls-3" d="m67.14,117.98c.59.04.94.53.55,1.75-.3.93-.76,1.87-1.4,1.72-.61-.14-.84-1.1-.54-2.15.32-1.11.74-1.51,1.39-1.33h0Z"/>
    <path class="cls-3" d="m46.11,156.9c.12,2.56.71,5.03,1.43,7.41,1.77,4.1.59,6.74.31,7.06-.94,1.08-1.33,1.96-1.37,3.12-.09,2.51-.56,4.93-1.44,7.27-.99,2.64-3.52,4.49-6.18,4.35-1.47-.08-2.69-.98-3.45-2.16-1.34-2.12-2.5-4.36-3.67-6.58-.48-.92-.79-1.93-1.22-3-1.33,3.53-2.36,6.97-.57,10.58.12.24,2.17,3.06.19,3.97-1.22.42-2.6,1-6.11-10.48-1.01-3.46-2.01-6.94-3.07-10.38-.64-2.07,0-3.74,1.47-5.13,1.14-1.08,1.61-2.35,1.53-3.86-.11-1.95-.21-3.91-.36-5.86-.28-3.59.63-7.04,1.16-10.54.08-.54.08-1.09.13-1.64,0-.04,0-.09.02-.13.21-.83,1.27-1.11,1.92-.56.15.13.29.26.38.39.17.24.37.46.51.72.16.3.67.72.68,1.04.08,1.77-.02,3.67-.12,5.2.09,1.95.81,2.95,1.72,4.62,1.23,2.26,2.08,5.33,2.3,7.95.23,2.8,1.07,4.06.41,6.78-.06.25-.46,1.87-.38,2.11,1.02,3.09.93,6.57,2.7,9.37.72,1.15,1.63,2.22,2.62,3.15,1.03.98,2.29.68,2.77-.66s.86-2.66.9-4.01c.14-3.95.23-7.91-.59-11.83-.51-2.41-.95-4.84-1.36-7.27-.23-1.4-1.29-7.1-2.27-8.11-.29-.3-.77-1.24-1.07-1.54-1.3-1.26-2.41-2.79-2.68-4.64-.25-1.67-.78-3.27-1.13-4.93-.09-.45.19-.9.3-1.35.05-.22.4-.5.61-.5s.53.28.61.5c.25.7.39,1.44.63,2.15.11.3.34.58.58.81.92.88,1.89,1.71,2.79,2.62.71.72,1.29,1.59,2.03,2.27,1.14,1.06,2.47,1.36,3.93.6.34-.18.73-.28,1.11-.33.59-.08,1.01.18,1.1.79.14,1.02.19,2.06.38,3.07.27,1.48.61,2.95.92,4.42.06.3.12.8.12,1.11,0,1.14.04,1.78-1.22,2.04v.02Z"/>
    <path class="cls-3" d="m4.64,152.38c.38.77.72,1.57,1.09,2.35,1.31,2.69,2.29,5.54,4.11,7.96.53.71,1.26,1.21,2.14,1.08.83-.12,1.15-.89,1.39-1.62.4-1.23.47-2.43,0-3.69-.34-.91-.4-1.93-.76-2.83-.34-.85-.85-1.64-1.4-2.38-.72-.97-1.29-1.98-1.12-3.21.3-2.3-.58-4.21-1.78-6.06-.75-1.15-1.46-2.36-1.28-3.82.11-.88.41-1.74.52-2.62.17-1.33.24-2.66.35-4,.03-.4.02-.81.13-1.18.07-.22.31-.51.51-.54.18-.03.5.2.61.39,1.06,1.83,2.33,3.59,3.07,5.54.85,2.26,1.23,4.7,1.81,7.06.16.67.3,1.35.43,2.02.56,2.8,2.01,5.51,2.55,8.31.1.52,1.86,4.9-.94,10.62-1.28,2.61-2.69,5.16-3.85,7.82-.54,1.23-.71,2.64-.87,3.99-.18,1.58.03,3.14.51,4.69.45,1.45.3,2.92-.47,4.26-.66,1.14-1.93,1.64-3.05,1.23-.93-.34-1.55-1.01-1.52-2.01.05-1.65.29-3.3.36-4.96.06-1.48.07-2.97,0-4.44-.08-1.48-.21-2.98-.5-4.43-.51-2.54-1.2-5.04-1.72-7.57-.31-1.54-.69-3.07-.86-4.64-.03-.29.46-.66.57-.97.13-.35.36-.71.34-1.06-.05-1.13-.19-2.26-.3-3.39-.06-.64-.06-1.28-.15-1.91l.07-.02v.03Z"/>
    <path class="cls-3" d="m69.8,145.69c.84-3.29,1.7-6.57,2.56-9.86,1.03-3.92,2.91-7.46,4.85-10.98.39-.71.73-1.44,1.1-2.16.78-1.48.8-3.05.49-4.64-.23-1.17-.48-2.34-.79-3.49-.51-1.91.11-3.4,1.63-4.57.45-.35.95-.63,1.44-.92,1.44-.87,2.57-1.98,3.28-3.57,1.23-2.74,2.72-5.36,4.76-7.58.88-.96,1.92-1.83,3.04-2.47,1.46-.83,2.44.19,2.5,1.51.18,3.77-1.53,6.72-3.77,9.48-.41.51-.91.96-1.42,1.37-1.38,1.12-1.86,2.67-2.02,4.33-.29,2.91-.78,5.79-2.15,8.39-1.42,2.7-3.05,5.29-4.53,7.96-2.13,3.86-4.16,7.76-6.29,11.61-.99,1.78-2.09,3.49-3.19,5.21-.3.48-.76.85-1.15,1.28-.11-.05-.38-.67-.32-.9h-.02Z"/>
    <path class="cls-3" d="m.21,115.39c-.07-.92-.13-1.84-.2-2.75-.07-.87.41-1.34,1.13-1.72,2.18-1.15,4.33-2.37,6.52-3.5,3.44-1.78,6.17-4.52,9.25-6.78.46-.33.81-.8,1.26-1.14.22-.16.65-.31.84-.2.28.16.65.57.61.83-.08.53-.28,1.13-.63,1.53-2.04,2.31-4.15,4.56-6.22,6.84-.68.75-1.4,1.49-1.98,2.31-.81,1.16-1.79,2.09-3.07,2.69-.91.42-1.43,1.1-1.63,2.11-.2.99-.48,1.98-.81,2.93-.42,1.22-1.35,1.98-2.14,1.89-1.18-.13-2.63-1.5-2.76-2.62-.09-.8-.15-1.59-.22-2.39h.06v-.03Z"/>
    <path class="cls-3" d="m63.27,111.7c.05.54.17,1.09.15,1.63-.06,1.99-.17,3.99-.25,5.98-.06,1.58.74,2.86,1.49,4.14.57.98.92,1.96.59,3.07-.27.91.15,1.6.55,2.34.56,1.02-.04,2.02-1.11,1.85-.49-.08-.99-.42-1.37-.76-.94-.84-1.41-.78-1.99.38-.27.54-.46,1.11-.74,1.64-.19.36-.43.72-.73,1-.64.6-1.34.46-1.47-.39-.19-1.26-1.17-.38-.15-3.81,1.13-5.11,2.42-10.19,3.7-15.27.16-.65.95-1.83.95-1.84,0,0,.39.04.38.04h0Z"/>
    <path class="cls-3" d="m38.86,124.79c.03-1.35.58-1.98,1.88-2.4.37-.12.72-.52.94-.88.62-1.02,1.21-2.06,1.73-3.13.18-.37.17-.87.13-1.3-.1-1.13.07-2.13.91-2.98.27-.28.47-.72.53-1.11.22-1.4.97-2.39,2.11-3.17.74-.5,1.4-1.11,2.1-1.66.75-.59,1.52-1.16,2.27-1.75.82-.64,1.64-1.29,2.46-1.94.44-.35.93-.65,1.46-.23.56.45.3,1.01-.04,1.43-1.33,1.62-2.69,3.21-4.07,4.79-.67.76-1.39,1.49-2.13,2.19-2.17,2.04-3.04,2.42-3.17,5.52-.06,1.47-1.12,4.68-1.2,6.17-.08,1.46-.48.97-1.48.77-.93-.18-2.5.29-3.46.43-.8.12-.97.09-.95-.73l-.02-.02Z"/>
    <path class="cls-3" d="m34.3,108.98c1.04-.08,2.09-.07,3.11-.28.7-.15,1.47-.46,1.96-.94,2.58-2.52,5.85-3.25,9.23-3.7.85-.11,1.72-.15,2.58-.16.23,0,.46.27.68.41-.18.17-.34.41-.55.49-1.33.49-2.67.97-4.02,1.41-4.52,1.47-7.93,4.44-10.86,8.06-1.84,2.27-4.86,6.52-7.38,11.01-.19.33-.48.59-.83.75h0c-.05-.23-.21-.52-.12-.69.87-1.76,3.68-7.96,4.61-9.7.41-.76.95-1.46,1.34-2.23.65-1.28.46-1.86-.72-2.64-.37-.25-.79-.45-1.11-.75-.18-.17-.29-.53-.24-.77.03-.14.4-.3.63-.32.57-.05,1.14-.01,1.71-.01v.06h-.02Z"/>
    <path class="cls-3" d="m28.18,193.46c-.1,1.36-.14,2.37-.26,3.37-.05.44-.2.88-.4,1.27-.49.99-1.42,1.46-2.17,1.15-.76-.31-1.25-1.51-1-2.44.58-2.1,1.12-4.21,1.76-6.29.07-.24.31-.42.57-.61s.59-.14.79.1c.12.14.22.29.25.45.22,1.1.34,2.22.46,3h0Z"/>
    <path class="cls-3" d="m87.51,78.68c.3-.56.51-1.18.91-1.62.19-.2.86-.21,1.12-.03.33.23.94.56.5,1.21-.39.58-.74,1.2-1.16,1.76-.08.11-.54.14-.6.05-.29-.4-.49-.86-.77-1.37Z"/>
    <path class="cls-3" d="m23.71,138.07c-.13.5-.17,1.07-.43,1.49-.16.25-.88.47-.98.37-.33-.35-.71-.89-.67-1.31.07-.62.34-1.4.8-1.74.65-.48,1.13.03,1.28,1.19h0Z"/>
    <path class="cls-3" d="m96.87,89.31c.07.69-.15,1.25-.91,1.2-.58-.03-1.2-.25-1.22-1.03-.02-.74.49-1.32,1.14-1.32.69,0,.98.35.99,1.15Z"/>
    <path class="cls-3" d="m45.75,146.57s.09.23.25.41c.17.19.44.3.78-.02,0,0-.72,1.19-.7,2.36s-1.13-.25-1.13-.25"/>
    <path class="cls-1" d="m44.33,153.8c.07.12.11.25.16.38,0-.18-.05-.29-.16-.38Z"/>
    <path class="cls-1" d="m43.99,153.49c-.08.05-.13.1-.16.16.22.02.39.07.51.15-.07-.13-.17-.24-.35-.31h0Z"/>
    <path class="cls-2" d="m81.86,178.05c-8.85,18.3-33.74,7.47-33.93,8.94-.82,6.3-4.25,21.19-5.38,27.44-.36,1.97-16.16-.34-16.14-2.36,0-.12,5.83-1.54,7.32-9.84.92-6.25,1.55-12.53,2.65-18.75,1.31-7.45,4.06-24.03,3.92-24.87,2.24-15.12.58-14.4-1.47-15.95-.58-.44-1-.85-.75-1.59.27-.79.96-.97,1.67-.89,3.46.39,11.52,1.01,14.09,1.13,5.03.24,9.97.91,14.82,2.48,2.97.96,5.95,1.88,8.68,3.38,5.73,3.15,6.94,6.01,7.65,12.82.2,1.89.03,11.52-3.14,18.06h.01Zm-32.11-2.21c-.07.9,15.57,1.13,15.59,1.13,3.09-.45,6.35-3.05,7.44-5.98.48-1.3,1.19-5.54,1.27-6.99.26-4.59-2.1-7.27-6.42-8.76-4.23-1.46-10.16-2.05-14.54-2.76-.88-.14-3.07,20.07-3.34,23.37h0Z"/>
    <path d="m69.2,151.32l1.62-5.37,1-1.36-1.46-1.01-3.07-4.52-10.72-3.25s-1.49,6.11-1.84,7.09c-1.27,3.63-1.04,6.04.52,8.76.19.36,1.2,2.53,2.49,3.79.45.44-2.47,6.19-3.8,9.99-.46,1.33-.58,5.34-.58,5.34l7.42-8.2,2.79-3.76,5.62-7.48v-.02Z"/>
    <path class="cls-3" d="m92.23,104.32s6.62-7.49,7.5-9.92c.33-.92-1.48.54-3.11.43s-3.31-.34-4.46.44.07,9.04.07,9.04h0Z"/>
    <path class="cls-3" d="m78.96,145.09c-.82,1.64-1.32,3-2.12,4.62-.18.37,1.13.53.74.93-.92.96-3.57,1.3-3.07-1.46.16-.91.26-1.83.45-2.74.35-1.7.78-3.38,1.11-5.08.3-1.54.84-2.97,2.05-4,1.46-1.24,1.69-2.81,1.47-4.56-.06-.5-.05-1.02,0-1.53.02-.23.23-.44.35-.67.2.14.44.25.58.43.26.32.46.68.77,1.16.62-1.69.79-3.22.38-4.84-.43-1.73-.94-3.48-.51-5.31.05-.23.11-.47.22-.67.48-.9,1.23-1.01,1.72-.13.37.67.5,1.51.6,2.29.29,2.33.52,4.67.78,7.01,0,.07.11.13.25.29.25-.16.51-.34.78-.49.62-.36,1.17-.12,1.07.58-.39,2.78-.66,5.63-3.18,7.52-.2.15-.37.35-.46.59-.78,2.12-.84,4.28-.74,6.54.19,4.13,2.01,7.94,2.15,12.05.05,1.49.1,3-.12,4.47s-1.16,2.19-2.32,2.22c-1.38.03-2.41-.74-2.91-2.11-.69-1.88-.2-3.73.14-5.56.69-3.79.67-7.57.02-11.35,0-.04-.08-.08-.19-.18v-.02Z"/>
    <path class="cls-3" d="m71.03,141.06s-2,6.18-1.63,6.51.42.58,1.05-.47c.5-.82,2.69-4.81,3.74-6.55.28-.47.51-1.3.51-1.3l-3.68,1.81h.01Z"/>
  </g>
</svg>