<?xml version="1.0" encoding="UTF-8"?><svg id="assets-to-send" xmlns="http://www.w3.org/2000/svg" viewBox="0 0 436.6 250.53"><defs><style>.cls-1{fill:#ec404c;}.cls-2{fill:#ec8c4e;}.cls-3{fill:#ec5538;}</style></defs><path class="cls-2" d="m219.19,233.44c.46.07,7.85.84,8.3.92.17-.11-1.02,11.87-17.43,7.45-2.87-.77-5.35-2.63-6.85-5.21,0-.01-.02-.03-.02-.04-4.01-6.93-8.03-13.86-12.01-20.81-.61-1.06-1.09-2.18-1.62-3.28-.3-.61-.7-.79-1.36-.77-1.86.04-3.73.04-5.59.03-1.04,0-3.06-.14-4.02-.55.1.09,0,0,0,.94.02,2.66,0,5.32-.13,7.98-.29,5.87.16,11.74-.12,17.61-.05.96.42,5.63-.71,5.58-3.06-.14-6.08-.76-9.13-.41-2.59.29-5.19.57-7.79.82-.37.04-.85.18-1.1-.21-.27-.41.04-.78.24-1.16.64-1.19,1.88-1.63,3.01-2.06,1.55-.59,2.08-1.7,2.18-3.15.15-2.11.26-4.22.33-6.34.11-3.63.34-7.26.83-10.86.85-6.26.89-12.56.93-18.85.01-1.48-.84-15.27-1.14-20.63-.06-1.05-.45-6.25-1.32-7.6-.43-.67-.73-1.37-.88-2.14-.18-.9.29-1.45,1.23-1.34.49.05.98.2,1.45.37,2.63.94,3.64,1.29,6.25,2.26,2.01.75,4.02.73,6.12.44,6.4-.89,12.83-1.1,19.24.1,1.2.22,2.39.48,3.56.8.65.18,4.08,1.33,4.43,1.52,2.91,1.51,5.64,3.26,7.54,6,1.36,1.96,2.46,4.05,3.26,6.29,1.56,4.37.75,9.17-2.18,12.76-3.86,4.73-8.44,8.36-14.36,10.22-.81.25-.62.67-.37,1.2,1.44,2.97,3.37,5.65,5.1,8.45,2.33,3.78,5.2,7.18,7.91,10.69,1.56,2.02,3.8,2.66,6.19,2.99Zm-11.85-39.33c.38-2.65-.27-4.47-1.49-6.13-2.25-4.13-11.73-5.43-12.46-5.42-3.94.05-7.87.33-11.81.51-.73.03-3.78-.21-3.74,1.68-.04,1.44,0,17.18.76,17.18,3.94,0,26.22.77,28.75-7.81Z"/><path class="cls-2" d="m150.62,207.12c.2,7.53-.68,14.89-3.31,22-2.83,7.66-5.39,10.92-12.28,15.11-4.39,2.67-9.09,2.92-13.89,1.13-1.62-.6-3.23-1.17-4.89-1.68-3.13-.95-5.52-3.05-7.68-5.41-2.58-2.82-8.83-16.41-8.31-34.88,0-1.77-.27-34.32,26.06-34.48,16.54.89,19.05,12.47,21.02,16.98,2.55,5.82,3.16,11.98,3.27,18.24.02,1,0,2.01,0,3.01Zm-11.54-1.55c.02-4.25-.64-8.8-1.99-13.24-1.12-3.7-2.53-7.27-4.82-10.43-.4-.55-.8-1.12-1.52-1.31-2.56-.66-9.36-1.16-11.91,2.21-1.55,2.04-3.07,4.7-3.94,7.08-3.02,8.27-3.1,16.71-1.57,25.26.81,4.51,1.73,9,3.99,13.05,2.2,3.95,9.61,7.1,13.24,4.38,1.42-1.07,2.63-2.34,3.67-3.78,4.47-6.21,5-15.19,4.84-23.21Z"/><path d="m268.4,144.72c-.76,1.26-1.41,2.51-1.88,3.85-.71,2-1.51,3.97-1.99,6.05-.14.59-.41,1.13-.77,1.61-3.5,4.64-6.81,9.42-10.77,13.7-1.3,1.41-2.52,2.89-3.78,4.33-.23.26-.4.6-.8.77-.27-.43.02-.8.13-1.16,1.27-4.28,2.58-8.55,4.37-12.64.23-.52.03-.93-.23-1.35-1.67-2.7-2.55-5.66-2.84-8.81-.29-3.08.53-5.99,1.21-8.95,1.63-7.04,4.28-13.79,5.78-20.86.35-1.65.44-3.33.48-5.01,0-.34-.11-.64-.25-.94-1.14-2.37-2.79-4.4-4.31-6.52-.38-.53-1.32-.51-1.69-.05-1.79,2.23-3.57,4.48-5.69,6.43-1.13,1.03-2.21,2.11-3.32,3.17-.52.5-.75,1.1-.83,1.83-.27,2.56-.72,5.1-1.27,7.62-.21.97.03,1.77.55,2.55,2.45,3.68,3.89,7.74,4.6,12.08.4,2.47-.14,4.7-1.67,6.69-.44.57-.91,1.12-1.33,1.7-.75,1.05-1.15,2.21-1.22,3.51-.18,3.86.37,7.65.99,11.44.11.65.45,1.52-.41,1.82-.84.29-1.03-.64-1.34-1.17-2.78-4.76-5.23-9.76-8.67-14.07-2.94-3.67-3.64-7.92-4.4-12.24-.59-3.39-1.1-6.8-1.65-10.2-.08-.47-.21-.94-.6-1.37-.52.41-.78.95-.82,1.58-.18,3.47-.54,6.95-.47,10.42.08,4.2-.05,8.39-.1,12.59,0,.39.15.66.34.98,1.23,2.06,2.45,4.16,2.85,6.55.43,2.6.56,5.24,1,7.84.43,2.59-.47,4.83-1.47,7.09-.41.93-.85,1.85-1.33,2.74-.66,1.24-.8,2.59-.75,3.93.07,2.03.04,4.08.47,6.08.13.58.32,1.15.48,1.72.07.26.15.56-.15.72-.34.17-.48-.14-.61-.36-.26-.44-.49-.89-.72-1.34-2.14-4.2-3.79-8.6-5.28-13.06-.64-1.91-1.52-3.71-2.26-5.58-.81-2.06-1.49-4.17-2.65-6.08-.16-.27-.23-.62-.65-.8-.12.49.05.94.01,1.4-.25,2.62-1.55,4.63-3.71,5.97-1.79,1.11-2.36,2.69-2.49,4.59-.23,3.44-.44,6.88-.65,10.32-.02.24-.04.48-.07.72-.05.38-.21.71-.64.76-.43.05-.69-.23-.78-.6-.31-1.22-.62-2.43-.89-3.66-2.15-9.85-4.28-19.71-6.42-29.56-.29-1.34-.59-2.69-.94-4.02-.52-2.02-.61-4.06,0-6.04.99-3.27.77-6.56.61-9.89-.27-5.66-1.23-11.26-1.19-16.94,0-.84.25-1.37,1.06-1.65,1.11-.38,2.15-.91,3.14-1.54,3.39-2.16,6.88-4.15,10.16-6.47,3.46-2.44,5.94-5.79,8.61-9,1.69-2.03,1.89-4.43,2.54-6.74.64-2.27,1.39-4.52,1.76-6.87.11-.68.6-1.17,1.17-1.54,4.88-3.13,8.94-7.24,13.23-11.07,3.83-3.42,7.76-6.71,11.9-9.75,6.19-4.55,12.05-9.51,17.9-14.49,2.18-1.85,4.68-3.23,6.94-4.95,2.91-2.21,5.7-4.59,8.45-6.99,1.52-1.33,3.23-2.38,4.86-3.55,2.7-1.95,4.82-4.5,7.21-6.75,1.64-1.54,3.26-3.1,4.88-4.66.72-.69,1.52-1.01,2.56-1.08,2.99-.19,5.95-.73,8.9-1.26,3.25-.58,6.54-.81,9.81-1.19,4.67-.53,9.35-1.01,14.01-1.68,3.68-.53,7.38-.83,11.06-1.34,4.09-.57,8.16-1.33,12.26-1.88,4.93-.66,9.9-1.07,14.82-1.8,5.94-.87,11.93-1.21,17.86-2.06,4.15-.59,8.36-.79,12.53-1.17,4.51-.41,9-.95,13.51-1.36,3.94-.35,7.87-.79,11.79-1.33.8-.11,1.6-.23,2.4-.36.48-.08.76.03.68.58-.02.15,0,.3,0,.45,0,21.69,0,43.38,0,65.07,0,1.21.19,1.12-1.11,1.03-6.79-.47-13.59-.86-20.37-1.47-7.56-.67-15.14-1.02-22.69-1.8-6.24-.64-12.48-1.24-18.74-1.48-5.01-.19-10.02-.14-15.03-.25-7.98-.17-15.96-.05-23.94,0-2.46.01-4.92-.12-7.37-.11-4.04,0-7.91.77-11.08,3.66-1.72,1.57-3.76,2.78-5.4,4.46-.23.23-.48.47-.62.76-1.45,2.89-2.82,5.82-4.11,8.79-2,4.62-3.71,9.36-5.82,13.93-1.23,2.67-2.89,5.04-4.9,7.16-2.3,2.42-4.42,4.98-6.61,7.49-.64.74-1.05,1.57-1.03,2.52.08,4.11-.6,8.18-.77,12.27-.16,3.99-.23,7.98-.39,11.96-.06,1.5-.21,2.99-.39,4.48-.29,2.33-1.45,4.29-2.84,6.13-2.09,2.78-4.27,5.5-5.75,8.68-.46.98-.86,1.98-1.29,2.97-.23.53-1.14,1.1-1.15,1.07-.02-.04-1.3-5.59-1.31-7.72-.02-2.97,0-5.94-.22-8.9-.02-.32.07-.66-.23-1.04Z"/><path class="cls-1" d="m298.35,91.07c-.62,1.48-1.34,2.58-1.88,2.22-.41-.27-1.63-1.06-.88-2.73.71-1.57,2.64-2.5,3.13-2.27.52.24.41,1.08-.38,2.78Z"/><path class="cls-1" d="m262.32,122.03c.59.04.94.53.55,1.75-.3.93-.76,1.87-1.4,1.72-.61-.14-.84-1.1-.54-2.15.32-1.11.74-1.51,1.39-1.33Z"/><path class="cls-1" d="m241.29,160.95c.12,2.56.71,5.03,1.43,7.41,1.77,4.1.59,6.74.31,7.06-.94,1.08-1.33,1.96-1.37,3.12-.09,2.51-.56,4.93-1.44,7.27-.99,2.64-3.52,4.49-6.18,4.35-1.47-.08-2.69-.98-3.45-2.16-1.34-2.12-2.5-4.36-3.67-6.58-.48-.92-.79-1.93-1.22-3-1.33,3.53-2.36,6.97-.57,10.58.12.24,2.17,3.06.19,3.97-1.22.42-2.6,1-6.11-10.48-1.01-3.46-2.01-6.94-3.07-10.38-.64-2.07.01-3.74,1.47-5.13,1.14-1.08,1.61-2.35,1.53-3.86-.11-1.95-.21-3.91-.36-5.86-.28-3.59.63-7.04,1.16-10.54.08-.54.08-1.09.13-1.64,0-.04.01-.09.02-.13.21-.83,1.27-1.11,1.92-.56.15.13.29.26.38.39.17.24.37.46.51.72.16.3.67.72.68,1.04.08,1.77-.02,3.67-.12,5.2.09,1.95.81,2.95,1.72,4.62,1.23,2.26,2.08,5.33,2.3,7.95.23,2.8,1.07,4.06.41,6.78-.06.25-.46,1.87-.38,2.11,1.02,3.09.93,6.57,2.7,9.37.72,1.15,1.63,2.22,2.62,3.15,1.03.98,2.29.68,2.77-.66s.86-2.66.9-4.01c.14-3.95.23-7.91-.59-11.83-.51-2.41-.95-4.84-1.36-7.27-.23-1.4-1.29-7.1-2.27-8.11-.29-.3-.77-1.24-1.07-1.54-1.3-1.26-2.41-2.79-2.68-4.64-.25-1.67-.78-3.27-1.13-4.93-.09-.45.19-.9.3-1.35.05-.22.4-.5.61-.5.21,0,.53.28.61.5.25.7.39,1.44.63,2.15.11.3.34.58.58.81.92.88,1.89,1.71,2.79,2.62.71.72,1.29,1.59,2.03,2.27,1.14,1.06,2.47,1.36,3.93.6.34-.18.73-.28,1.11-.33.59-.08,1.01.18,1.1.79.14,1.02.19,2.06.38,3.07.27,1.48.61,2.95.92,4.42.06.3.12.8.12,1.11,0,1.14.04,1.78-1.22,2.04Z"/><path class="cls-1" d="m199.82,156.43c.38.77.72,1.57,1.09,2.35,1.31,2.69,2.29,5.54,4.11,7.96.53.71,1.26,1.21,2.14,1.08.83-.12,1.15-.89,1.39-1.62.4-1.23.47-2.43,0-3.69-.34-.91-.4-1.93-.76-2.83-.34-.85-.85-1.64-1.4-2.38-.72-.97-1.29-1.98-1.12-3.21.3-2.3-.58-4.21-1.78-6.06-.75-1.15-1.46-2.36-1.28-3.82.11-.88.41-1.74.52-2.62.17-1.33.24-2.66.35-4,.03-.4.02-.81.13-1.18.07-.22.31-.51.51-.54.18-.03.5.2.61.39,1.06,1.83,2.33,3.59,3.07,5.54.85,2.26,1.23,4.7,1.81,7.06.16.67.3,1.35.43,2.02.56,2.8,2.01,5.51,2.55,8.31.1.52,1.86,4.9-.94,10.62-1.28,2.61-2.69,5.16-3.85,7.82-.54,1.23-.71,2.64-.87,3.99-.18,1.58.03,3.14.51,4.69.45,1.45.3,2.92-.47,4.26-.66,1.14-1.93,1.64-3.05,1.23-.93-.34-1.55-1.01-1.52-2.01.05-1.65.29-3.3.36-4.96.06-1.48.07-2.97,0-4.44-.08-1.48-.21-2.98-.5-4.43-.51-2.54-1.2-5.04-1.72-7.57-.31-1.54-.69-3.07-.86-4.64-.03-.29.46-.66.57-.97.13-.35.36-.71.34-1.06-.05-1.13-.19-2.26-.3-3.39-.06-.64-.06-1.28-.15-1.91l.07-.02Z"/><path class="cls-1" d="m264.98,149.74c.84-3.29,1.7-6.57,2.56-9.86,1.03-3.92,2.91-7.46,4.85-10.98.39-.71.73-1.44,1.1-2.16.78-1.48.8-3.05.49-4.64-.23-1.17-.48-2.34-.79-3.49-.51-1.91.11-3.4,1.63-4.57.45-.35.95-.63,1.44-.92,1.44-.87,2.57-1.98,3.28-3.57,1.23-2.74,2.72-5.36,4.76-7.58.88-.96,1.92-1.83,3.04-2.47,1.46-.83,2.44.19,2.5,1.51.18,3.77-1.53,6.72-3.77,9.48-.41.51-.91.96-1.42,1.37-1.38,1.12-1.86,2.67-2.02,4.33-.29,2.91-.78,5.79-2.15,8.39-1.42,2.7-3.05,5.29-4.53,7.96-2.13,3.86-4.16,7.76-6.29,11.61-.99,1.78-2.09,3.49-3.19,5.21-.3.48-.76.85-1.15,1.28-.11-.05-.38-.67-.32-.9Z"/><path class="cls-1" d="m195.39,119.44c-.07-.92-.13-1.84-.2-2.75-.07-.87.41-1.34,1.13-1.72,2.18-1.15,4.33-2.37,6.52-3.5,3.44-1.78,6.17-4.52,9.25-6.78.46-.33.81-.8,1.26-1.14.22-.16.65-.31.84-.2.28.16.65.57.61.83-.08.53-.28,1.13-.63,1.53-2.04,2.31-4.15,4.56-6.22,6.84-.68.75-1.4,1.49-1.98,2.31-.81,1.16-1.79,2.09-3.07,2.69-.91.42-1.43,1.1-1.63,2.11-.2.99-.48,1.98-.81,2.93-.42,1.22-1.35,1.98-2.14,1.89-1.18-.13-2.63-1.5-2.76-2.62-.09-.8-.15-1.59-.22-2.39.02,0,.04,0,.06,0Z"/><path class="cls-1" d="m258.45,115.75c.05.54.17,1.09.15,1.63-.06,1.99-.17,3.99-.25,5.98-.06,1.58.74,2.86,1.49,4.14.57.98.92,1.96.59,3.07-.27.91.15,1.6.55,2.34.56,1.02-.04,2.02-1.11,1.85-.49-.08-.99-.42-1.37-.76-.94-.84-1.41-.78-1.99.38-.27.54-.46,1.11-.74,1.64-.19.36-.43.72-.73,1-.64.6-1.34.46-1.47-.39-.19-1.26-1.17-.38-.15-3.81,1.13-5.11,2.42-10.19,3.7-15.27.16-.65.95-1.83.95-1.84,0,0,.39.04.38.04Z"/><path class="cls-1" d="m234.04,128.84c.03-1.35.58-1.98,1.88-2.4.37-.12.72-.52.94-.88.62-1.02,1.21-2.06,1.73-3.13.18-.37.17-.87.13-1.3-.1-1.13.07-2.13.91-2.98.27-.28.47-.72.53-1.11.22-1.4.97-2.39,2.11-3.17.74-.5,1.4-1.11,2.1-1.66.75-.59,1.52-1.16,2.27-1.75.82-.64,1.64-1.29,2.46-1.94.44-.35.93-.65,1.46-.23.56.45.3,1.01-.04,1.43-1.33,1.62-2.69,3.21-4.07,4.79-.67.76-1.39,1.49-2.13,2.19-2.17,2.04-3.04,2.42-3.17,5.52-.06,1.47-1.12,4.68-1.2,6.17-.08,1.46-.48.97-1.48.77-.93-.18-2.5.29-3.46.43-.8.12-.97.09-.95-.73Z"/><path class="cls-1" d="m229.48,113.03c1.04-.08,2.09-.07,3.11-.28.7-.15,1.47-.46,1.96-.94,2.58-2.52,5.85-3.25,9.23-3.7.85-.11,1.72-.15,2.58-.16.23,0,.46.27.68.41-.18.17-.34.41-.55.49-1.33.49-2.67.97-4.02,1.41-4.52,1.47-7.93,4.44-10.86,8.06-1.84,2.27-4.86,6.52-7.38,11.01-.19.33-.48.59-.83.75h0c-.05-.23-.21-.52-.12-.69.87-1.76,3.68-7.96,4.61-9.7.41-.76.95-1.46,1.34-2.23.65-1.28.46-1.86-.72-2.64-.37-.25-.79-.45-1.11-.75-.18-.17-.29-.53-.24-.77.03-.14.4-.3.63-.32.57-.05,1.14-.01,1.71-.01,0,.02,0,.04,0,.06Z"/><path class="cls-1" d="m223.36,197.51c-.1,1.36-.14,2.37-.26,3.37-.05.44-.2.88-.4,1.27-.49.99-1.42,1.46-2.17,1.15-.76-.31-1.25-1.51-1-2.44.58-2.1,1.12-4.21,1.76-6.29.07-.24.31-.42.57-.61s.59-.14.79.1c.12.14.22.29.25.45.22,1.1.34,2.22.46,3Z"/><path class="cls-1" d="m282.69,82.73c.3-.56.51-1.18.91-1.62.19-.2.86-.21,1.12-.03.33.23.94.56.5,1.21-.39.58-.74,1.2-1.16,1.76-.08.11-.54.14-.6.05-.29-.4-.49-.86-.77-1.37Z"/><path class="cls-1" d="m218.89,142.12c-.13.5-.17,1.07-.43,1.49-.16.25-.88.47-.98.37-.33-.35-.71-.89-.67-1.31.07-.62.34-1.4.8-1.74.65-.48,1.13.03,1.28,1.19Z"/><path class="cls-1" d="m292.05,93.36c.07.69-.15,1.25-.91,1.2-.58-.03-1.2-.25-1.22-1.03-.02-.74.49-1.32,1.14-1.32.69,0,.98.35.99,1.15Z"/><path class="cls-1" d="m240.93,150.62s.09.23.25.41c.17.19.44.3.78-.02,0,0-.72,1.19-.7,2.36s-1.13-.25-1.13-.25"/><path class="cls-3" d="m239.51,157.85c.07.12.11.25.16.38,0-.18-.05-.29-.16-.38Z"/><path class="cls-3" d="m239.17,157.54c-.08.05-.13.1-.16.16.22.02.39.07.51.15-.07-.13-.17-.24-.35-.31Z"/><path class="cls-2" d="m70.16,185.14c-.68,1.25-1.24,2.26-1.78,3.27-3.57,6.64-7.52,13.12-10.69,19.94-1.58,3.4-5.49,4.01-8.74,1.54-1.14-.86-2.04-1.87-2.77-3.03-4.49-7.21-8.62-14.56-12.02-22.19-.11-.26-.16-.56-.53-.72-.35.22-.23.57-.22.86.4,11.1-.18,22.14-.81,33.19-.32,5.69.17,11.4.17,17.1,0,2.13-.49,4.15-.85,6.21-.09.54-.59.61-1.03.74-2.04.57-4.09.89-6.31.57-2.65-.37-5.32-.26-7.99-.3-1.39-.02-1.46-.19-.78-1.2,1.15-1.73,3.75-2.44,3.8-4.54.12-5.48,1.33-33.28,1.43-41.27,0-28.6-6.92-25.8-6.68-28.21.05-.56,22.15.52,24.94,1.23,2.64.67,4.24,2.14,4.8,4.47.24.98,6.93,14.88,8.08,16.47.4.56.67.7,1-.01,2.24-4.85,11.09-19.3,11.18-19.61,1.03-3.5,15.56-2.37,17.29-2.43.61-.02,6.67.26,5.8,1.13-.8.8-7.08,6.97-6.03,30.68-.4,8.75.43,17.53,0,26.28-.09,1.81-.19,3.62,0,5.44.32,3.22.83,6.38,2.87,9.24.28.39.45.85.62,1.29.21.56.1.78-.7.62-2.26-.46-16.39,1.76-16.26-2.54.14-4.23.22-12.21.38-16.44.26-6.86.33-13.73.65-20.59.25-5.26,1.12-10.46,1.36-15.72.02-.38.11-.77-.19-1.43Z"/><path class="cls-2" d="m277.04,182.1c-8.85,18.3-33.74,7.47-33.93,8.94-.82,6.3-4.25,21.19-5.38,27.44-.36,1.97-16.16-.34-16.14-2.36,0-.12,5.83-1.54,7.32-9.84.92-6.25,1.55-12.53,2.65-18.75,1.31-7.45,4.06-24.03,3.92-24.87,2.24-15.12.58-14.4-1.47-15.95-.58-.44-1-.85-.75-1.59.27-.79.96-.97,1.67-.89,3.46.39,11.52,1.01,14.09,1.13,5.03.24,9.97.91,14.82,2.48,2.97.96,5.95,1.88,8.68,3.38,5.73,3.15,6.94,6.01,7.65,12.82.2,1.89.03,11.52-3.14,18.06Zm-32.11-2.21c-.07.9,15.57,1.13,15.59,1.13,3.09-.45,6.35-3.05,7.44-5.98.48-1.3,1.19-5.54,1.27-6.99.26-4.59-2.1-7.27-6.42-8.76-4.23-1.46-10.16-2.05-14.54-2.76-.88-.14-3.07,20.07-3.34,23.37Z"/><path d="m264.38,155.37l1.62-5.37,1-1.36-1.46-1.01-3.07-4.52-10.72-3.25s-1.49,6.11-1.84,7.09c-1.27,3.63-1.04,6.04.52,8.76.19.36,1.2,2.53,2.49,3.79.45.44-2.47,6.19-3.8,9.99-.46,1.33-.58,5.34-.58,5.34l7.42-8.2,2.79-3.76,5.62-7.48Z"/><path class="cls-1" d="m287.41,108.37s6.62-7.49,7.5-9.92c.33-.92-1.48.54-3.11.43s-3.31-.34-4.46.44.07,9.04.07,9.04Z"/><path class="cls-1" d="m274.14,149.14c-.82,1.64-1.32,3-2.12,4.62-.18.37,1.13.53.74.93-.92.96-3.57,1.3-3.07-1.46.16-.91.26-1.83.45-2.74.35-1.7.78-3.38,1.11-5.08.3-1.54.84-2.97,2.05-4,1.46-1.24,1.69-2.81,1.47-4.56-.06-.5-.05-1.02,0-1.53.02-.23.23-.44.35-.67.2.14.44.25.58.43.26.32.46.68.77,1.16.62-1.69.79-3.22.38-4.84-.43-1.73-.94-3.48-.51-5.31.05-.23.11-.47.22-.67.48-.9,1.23-1.01,1.72-.13.37.67.5,1.51.6,2.29.29,2.33.52,4.67.78,7.01,0,.07.11.13.25.29.25-.16.51-.34.78-.49.62-.36,1.17-.12,1.07.58-.39,2.78-.66,5.63-3.18,7.52-.2.15-.37.35-.46.59-.78,2.12-.84,4.28-.74,6.54.19,4.13,2.01,7.94,2.15,12.05.05,1.49.1,3-.12,4.47-.22,1.47-1.16,2.19-2.32,2.22-1.38.03-2.41-.74-2.91-2.11-.69-1.88-.2-3.73.14-5.56.69-3.79.67-7.57.02-11.35,0-.04-.08-.08-.19-.18Z"/><path class="cls-1" d="m266.21,145.11s-2,6.18-1.63,6.51.42.58,1.05-.47c.5-.82,2.69-4.81,3.74-6.55.28-.47.51-1.3.51-1.3l-3.68,1.81Z"/><path d="m84.19,160.4c-2.23-.18-4.6-.15-6.95.27-.54.1-.54-.21-.42-.57.17-.53.64-.73,1.12-.91,1.46-.54,1.72-.98,1.5-2.52-.33-2.29-.78-4.56-1.3-6.82-.52-2.28-.76-4.62-1.01-6.95-.07-.69-.3-1.36-.44-2.04-.15-.71-.61-.97-1.3-.95-3.1.08-6.19.16-9.27.52-.35.04-.7.06-1.04.09-1.17.1-1.39.31-1.7,1.45-1.18,4.36-1.8,8.83-2.66,13.26-.16.82-.13,1.69-.13,2.54,0,.97.72,1.62,1.2,2.36.35.53.25.89-.39,1.02-.24.05-.51.05-.74,0-1.95-.44-3.93-.24-5.89-.36-1.25-.08-2.45.42-3.69.57-.25.03-.49.08-.74,0-.55-.18-.59-.48-.19-.88,1.65-1.64,2.76-3.52,3.08-5.9.4-2.99,1.12-5.92,1.81-8.86.8-3.42,1.31-6.9,2.25-10.29.86-3.09,1.65-6.21,2.52-9.3,1.01-3.63,1.71-7.33,2.52-11,.37-1.71-.29-2.73-2.03-3.14-.24-.06-.49-.1-.71-.2-.19-.09-.51-.12-.49-.39.02-.25.3-.29.52-.32,1.27-.19,2.54-.45,3.82-.55,3.23-.25,6.45-.68,9.71-.6,2.78.07,3.77.76,4.44,3.48.87,3.54,1.56,7.12,2.42,10.66,1.13,4.68,2.47,9.32,3.49,14.02.9,4.17,1.47,8.41,2.19,12.61.29,1.7.77,3.35,1.13,5.03.2.92.82,1.77,1.73,2.26.26.14.53.28.8.4.54.24.97.57.83,1.24-.13.66-.67.69-1.22.75-1.55.16-3.09.02-4.78.04Zm-14.12-43.99c-1.54-.09-1.32-.35-1.72,1.23-1.32,5.2-1.98,10.53-3.09,15.77-.08.4,0,.49.4.38,2.72-.76,5.52-1.1,8.33-1.35.44-.04.53-.18.47-.6-.21-1.3-.39-2.61-.55-3.92-.39-3.09-.52-6.21-1.27-9.25-.56-2.24.03-1.94-2.56-2.24Z"/><path d="m50.01,113.7c-.37.61-.84.92-1.26,1.25-1.56,1.24-3.16,2.44-4.72,3.68-.5.4-.83.36-1.34-.05-3.43-2.71-7.28-4.42-11.71-4.5-2.09-.04-4.12.5-5.96,1.5-2.46,1.34-2.89,4.56-.98,6.59.96,1.02,2.11,1.76,3.35,2.36,3.44,1.65,6.82,3.44,10.47,4.64,3.41,1.12,6.34,2.94,8.39,5.97,1.85,2.73,2.69,5.77,2.3,9.05-.47,3.92-2.22,7.25-4.95,10.12-2.12,2.23-4.63,3.87-7.5,4.75-2.73.85-5.58.9-8.39-.06-3-1.04-5.89-2.26-8.54-4.07-1.33-.91-2.72-1.74-4.24-2.36-1.9-.78-3.63-.65-5.26.61-.18.14-.34.22-.53.07-.16-.12-.15-.29-.07-.47.12-.27.2-.57.33-.83,1.19-2.27,2.39-4.54,3.6-6.8.49-.91.51-.88,1.44-.39,2.29,1.23,4.56,2.48,6.8,3.78,2.54,1.47,5.27,2.31,8.2,2.68,1.94.24,3.85.35,5.7-.24,4.76-1.51,7.41-6.05,5.56-10.97-.88-2.36-2.45-3.92-4.67-4.98-2.78-1.33-5.74-2.17-8.66-3.1-2.2-.69-4.33-1.53-6.35-2.65-2.39-1.33-4.26-3.17-5.56-5.6-2.39-4.47-.23-9.92,2.97-12.38,3.25-2.5,6.96-3.72,11.03-4.06,2.4-.2,4.72-.03,7.03.57,1.6.42,3.13,1.03,4.55,1.87,1.89,1.12,3.8,2.2,5.47,3.65.77.67,1.73.51,2.64.41.25-.02.49-.01.84-.04Z"/><path d="m169.39,110.84c-.23.71-.66,1.08-1.01,1.48-1.33,1.49-2.71,2.93-4.05,4.41-.4.44-.72.51-1.26.17-2.48-1.55-5.03-2.93-7.91-3.67-2.94-.75-6.13.53-7.74,3.13-1.14,1.85-.89,3.77-.71,5.77.19,2.09,1.77,2.83,3.25,3.65,2,1.12,4.13,2.02,6.28,2.79,3.27,1.18,6.05,3.07,8.1,5.81,1.86,2.48,3.68,5.11,3.75,8.41.09,3.71-.64,7.25-3.18,10.11-2.91,3.28-6.39,5.58-11.02,5.38-3.74-.16-7.19-1.21-10.28-3.38-.86-.6-1.73-1.18-2.64-1.7-1.39-.8-2.85-.44-4.3-.19-.3.05-.75.31-.91.04-.19-.32.24-.61.45-.86,2-2.26,3.96-4.55,5.83-6.93.14-.17.32-.32.5-.44.71-.44,1-.32,1.15.48.56,2.9,2.46,4.67,5.03,5.8,1.7.75,3.54,1.08,5.39,1.17,4.58.22,7.88-2.29,8.52-7.35.23-1.8-.34-3.33-1.27-4.81-2.34-3.71-5.58-6.19-9.82-7.36-1.32-.37-2.63-.79-3.92-1.25-3.79-1.32-6.44-3.74-7.36-7.78-.38-1.68-.21-3.35.24-4.96.95-3.37,2.39-6.5,5.28-8.67,3.32-2.49,6.99-3.42,11.08-2.15,2.27.7,4.5,1.47,6.53,2.74,1.33.83,2.79,1.18,4.36.58.48-.18,1-.27,1.63-.43Z"/><path d="m102.25,158.99c-.04-.36.19-.54.37-.73.86-.9,1.29-1.98,1.53-3.19.39-1.95.35-3.92.32-5.89-.04-3.62-.12-7.24-.52-10.84-.21-1.92-1.02-3.6-2.49-4.79-2.72-2.2-4.96-4.83-7.13-7.55-2.54-3.17-4.75-6.55-6.6-10.15-1.19-2.31-2.82-4.01-5.23-4.96-.27-.11-.5-.28-.48-.6.03-.39.38-.33.63-.38,2.14-.51,4.34-.65,6.51-.93.55-.07.95.14,1.31.55,1.36,1.55,2.3,3.38,3.37,5.12,2.8,4.51,6.01,8.65,10.22,11.94,1.88,1.47,1.67,1.65,2.48-.75.74-2.19,1.73-4.3,2.17-6.6.46-2.43.95-4.85,1.43-7.27.11-.54.28-1.06.36-1.61.24-1.61,1.22-2.48,2.73-2.89,2.34-.64,4.7-1.14,7.11-1.37.16-.02.37-.13.47.08.1.19.02.39-.12.55-.08.1-.16.2-.26.26-1.26.72-1.89,1.91-2.23,3.24-.54,2.16-1.49,4.17-2.11,6.31-1.18,4.06-2.47,8.08-3.69,12.13-.59,1.96-1.22,3.89-2.15,5.72-.6,1.19-.68,2.45-.56,3.72.16,1.64.17,3.29.21,4.93.08,3.09.42,6.12,1.07,9.15.44,2.04,1.35,3.77,2.59,5.38.09.12.2.23.28.35.14.21.27.43.11.69-.15.24-.39.19-.61.17-2.34-.19-4.68-.16-7.03-.08-1.37.05-2.73.18-4.1.27Z"/><path d="m180.73,158.21c-2.2-.2-5.08.01-7.95-.12-.2,0-.4-.02-.6-.02-.3,0-.55-.12-.61-.44-.05-.32.14-.5.42-.62.98-.43,1.96-.87,2.94-1.29.67-.29,1.02-.73,1.11-1.51.43-3.74.85-7.48,1.08-11.24.16-2.54.33-5.08.29-7.63-.01-.67-.26-1.2-.56-1.75-.61-1.14-1.23-2.28-1.85-3.42-.11-.2-.22-.4-.2-.63.01-.28-.14-.62.22-.8.3-.15.51.08.74.23,1.7,1.12,3.59,1.37,5.58,1.19,1.17-.1,2.34-.25,3.51-.14.66.06.87.49.41.95-1.46,1.45-1.64,3.34-1.73,5.19-.2,4.09-.26,8.18-.4,12.27-.07,2.17-.18,4.34-.3,6.51-.04.71.21,1.13.87,1.37.77.28,1.53.59,2.3.89.35.14.77.25.66.75-.11.48-.55.46-.92.45-1.45-.03-2.89-.1-5-.17Z"/><path d="m189.47,115.08c-.03.27-.19.42-.37.57-3.21,2.66-5.62,6.05-8.25,9.23-.38.46-.76.55-1.21.19-.78-.64-1.61-1.14-2.63-1.34-.59-.11-.69-.55-.32-1.25.56-1.06,1.26-2.03,1.98-2.98,1.24-1.62,2.52-3.21,3.78-4.82.3-.39.73-.4,1.15-.4,1.75,0,3.48.17,5.22.32.34.03.56.16.63.49Z"/></svg>