<?xml version="1.0" encoding="UTF-8"?><svg id="Layer_2" xmlns="http://www.w3.org/2000/svg" viewBox="0 0 1236.95 403.99"><defs><style>.cls-1{fill:#ec8c4e;}.cls-2{fill:#ec404c;}</style></defs><g id="Layer_1-2"><path class="cls-1" d="m360.74,3.18h60.53c21.34,0,37.57,4.39,48.7,13.16,11.13,8.77,16.7,21.36,16.7,37.77,0,10.61-2.36,19.66-7.07,27.16-4.72,7.5-11.67,13.26-20.87,17.29-9.2,4.03-20.29,6.05-33.28,6.05h-53.8l8.12-7.85v61.32h-19.02V3.18Zm87.32,68.64c7.03-1.49,12.29-3.68,15.77-6.58,3.48-2.9,5.22-6.61,5.22-11.14,0-4.24-1.74-7.85-5.22-10.82-3.48-2.97-8.74-5.2-15.77-6.68-7.04-1.49-15.97-2.23-26.79-2.23h-41.51v39.68h41.51c10.82,0,19.75-.74,26.79-2.23Zm-36.06,30.02l23.89-.42,54.27,56.65h-26.21l-51.95-56.23Z"/><path class="cls-1" d="m541.17,154.79c-10.98-3.61-20.49-8.66-28.53-15.17v-26.1c8.81,4.24,18.28,7.5,28.41,9.76,10.12,2.26,21.14,3.4,33.05,3.4,14.99,0,26.67-1.52,35.02-4.56,8.35-3.04,12.52-7.25,12.52-12.62,0-3.39-1.78-6.4-5.33-9.02-3.56-2.62-8.54-4.95-14.96-7-6.42-2.05-14.96-4.21-25.63-6.47l-3.94-.64-4.17-.85c-13.45-2.83-24-5.73-31.66-8.7-7.65-2.97-13.65-7.04-17.97-12.2-4.33-5.16-6.49-11.99-6.49-20.48s2.51-16.51,7.54-23.23c5.02-6.72,11.98-11.88,20.87-15.49,8.89-3.61,18.98-5.41,30.27-5.41s22.07,1.63,32.35,4.88c10.28,3.26,19.52,7.57,27.71,12.94v25.04c-8.2-2.97-17.36-5.23-27.48-6.79-10.13-1.55-20.6-2.33-31.43-2.33-13.45,0-23.81,1.24-31.08,3.71-7.27,2.48-10.9,5.98-10.9,10.5,0,3.25,1.97,6.15,5.91,8.7,3.94,2.55,9.39,4.88,16.35,7,6.96,2.12,16.15,4.39,27.6,6.79h.23l6.03,1.06c12.21,2.83,22.15,5.77,29.8,8.81,7.65,3.04,13.72,7.21,18.2,12.52,4.48,5.3,6.73,12.2,6.73,20.69,0,9.05-2.71,17.15-8.12,24.29-5.41,7.14-12.99,12.66-22.73,16.55-9.74,3.89-21.1,5.83-34.09,5.83-11.75,0-23.11-1.8-34.09-5.41Z"/><path class="cls-1" d="m674.75,3.18l41.51,105.46c1.08,2.41,2.78,4.21,5.1,5.41,2.32,1.2,5.57,1.8,9.74,1.8s7.42-.6,9.74-1.8c2.32-1.2,4.02-3,5.1-5.41L787.23,3.18h20.41l-60.53,154.9h-32.93L653.65,3.18h21.1Z"/><path class="cls-1" d="m835.24,3.18h54.27c22.88,0,40.35,4.53,52.41,13.58,12.06,9.05,18.09,22.07,18.09,39.04s-5.33,30.52-16,39.79c-10.67,9.27-26.29,13.9-46.85,13.9h-50.79l7.89-5.94v54.53h-19.02V3.18Zm11.13,75.33h44.3c11.59,0,21.22-.85,28.87-2.55,7.65-1.7,13.41-4.17,17.28-7.43,3.86-3.25,5.8-7.43,5.8-12.52,0-4.81-1.94-8.84-5.8-12.09-3.87-3.25-9.62-5.69-17.28-7.32-7.65-1.62-17.28-2.44-28.87-2.44h-44.3l7.89-5.94v56.23l-7.89-5.94Z"/><path class="cls-2" d="m1236.75,197.54c.87-7.58-.92-11.25-7.19-14.59-10.77-5.73-25.4-5.49-44.31.87-24.55,8.23-40.61,9.87-91.01,9.42-42.49-.42-51.17-.29-82.43,1.19-24.63,1.16-66.8,2.26-100.5,2.56-54.23.57-116.67,1.65-192.82,3.58-46.38,1.13-101.08,2.37-121.53,2.69-58.32,1-62.71,1.16-77.55,2.66-7.67.79-24.64,3.08-37.8,5.02-33.86,5.08-42.9,5.25-58.89.59-9.5-2.79-29.32-11.31-35.97-15.42-7.13-4.48-8.93-7.7-7.96-13.98,1.95-13.24,1.67-18.03-1.99-30.29-4.65-15.73-10.6-24.56-20.07-30.18-7.67-4.54-11.7-4.42-18.3.11-14.4,10.23-33.84,30.13-39.7,40.72-3.66,6.66-3.81,7.37-3.4,14.05.62,10.75-.03,11.76-11.93,18.57-11.71,6.68-19.16,12.79-28.34,23.43-4.1,4.73-9.06,9.79-11.08,11.44-6.16,4.76-9.24,2.67-5.8-4,3.63-7.02,2.42-21.14-3.55-39.5-3.94-11.96-7.49-18.49-11.11-20.42-2.74-1.46-13.16,2.17-20.35,6.95-11.75,8.02-16.82,8.6-29.66,3.58-10.01-3.97-17.83-4.4-27.79-1.43-20.33,6.05-37.21,22.22-49.4,47.45-4.02,8.4-4.84,10.79-5.33,17.44-1.66,20.98,3.71,52.17,11.26,64.8,4.29,7.27,5.12,11.45,3.05,15.33-1.36,2.56-2.13,2.94-5.35,2.59-4.55-.39-6.25,1.32-10.61,10.78-3.7,8-4.1,13.45-1.21,17.37,4.19,5.74,13.77,3.93,35.02-6.61,16.04-8,27.38-12.05,36.48-12.97,3.99-.48,8.59-1.66,10.36-2.64,5.55-3.39,6.88-8.46,2.65-10.71-1.85-.99-9.83,1.22-13.7,3.81-6.83,4.52-40.73,4.37-44.78-.17-2.78-3.29,5.42-9.12,31.49-22.32,10.38-5.24,22.09-11.91,26.06-14.67,10.71-7.55,13.63-11.55,20.67-27.74,7.61-17.48,9.48-18.86,15.46-11.59,3.34,4.16,3.5,6.4.57,9.14-5.36,4.96-4.94,16.51.76,26.01,2.61,4.45,4.19,5.97,8.25,8.13,5.56,2.96,9.01,6.27,8.16,7.86-.28.53-4.43,3.42-9.02,6.3-17.96,11.17-18.02,15.33-.36,15.56,8.9.09,9.44.15,17.24,4.43,8.78,4.79,14.56,9.68,22.89,19.56,5.9,7,7.24,7.25,11.03,2.48,5.14-6.67,28.79-21.94,43.72-28.27q4.52-1.9,3.3.4c-3.38,6.35-23.72,21.13-35.47,25.75-2.17.88-4.49,2.48-5.1,3.63-1.5,2.82.09,6.85,2.98,7.59,4,1,12.23-.85,18.44-4,5.17-2.69,6.18-3.73,8.3-7.93,2.31-4.55,2.67-4.81,8.99-6.88,7.71-2.35,11.42-5.7,16.4-14.83,4.65-8.51,5.65-12.52,4.37-18.63-1.35-6.61-.13-10.61,4.88-15.76,5.84-6.07,15.53-10.87,32.5-16.34,20.34-6.5,22.11-7.48,24.04-12.8,1.36-4.04,1.77-4.38,7.18-6.26,11.15-3.92,42.28-5.35,48.1-2.25,2.12,1.13,3.02,2.4,3.36,5.19.35,2.11,1.33,4.11,2.3,4.62,2.56,1.36,7.42-1.37,10.71-6.08,3.94-5.49,10.03-7.35,26.14-7.6,14.59-.39,20.69-.99,46.6-4.75,68.35-10.05,217.74-21.24,367.64-27.63,95.66-4.11,116.99-5.45,132.5-8.4,5.53-1.02,11.58-1.31,16.21-.66,8.78,1.17,25.11,1.36,56.67.61,28.61-.74,34.41-.37,37.93,1.96,2.42,1.63,2.62,2.3,1.92,7.03-.43,2.94-1,7.4-1.33,9.94-.38,2.63,0,7.25.76,10.26,3.34,12.88,15.76,16.78,33.77,10.84,9.66-3.24,17.51-7.56,28.96-16.08,15.51-11.68,21.25-19.27,22.6-29.88Z"/><path class="cls-2" d="m994.11,273.61c1.09-11.2-1.42-23.08-5.21-25.1-4.5-2.4-23.52,2.88-30.14,8.31-8.23,6.72-9.15,32.06-1.49,38.97,5.73,5.2,15.83,5.6,23.42.92,3.86-2.36,5.39-4.16,8.75-9.84,3.46-5.86,4.23-7.94,4.68-13.26Z"/><path class="cls-2" d="m911.24,300.29c1.33-4.84.6-6.02-3.11-6.07-6.75-.08-17.68,7.46-19.13,13.15-1.78,6.75,3.04,12.16,8.65,9.71,5.02-2.2,12.05-10.92,13.58-16.78Z"/><path class="cls-2" d="m849.1,293.37c6.25-18.76,1.14-45.96-11.55-60.42-3.91-4.57-10.25-6.71-20.85-7.02-15.29-.44-26.87,4.5-43.57,18.83-10.25,8.82-14.8,12.06-17.28,12.44-.72.07-1.87-2.24-2.6-5.12-1.1-4.32-1.87-5.42-4.79-6.97-6.27-3.34-13.55-2-27.15,5.03-9.3,4.91-14.88,6.46-15.05,4.22-.09-1.75-5.79-4.44-9.41-4.45-3.94-.06-10.4,4.43-12.75,8.84-5.26,9.89.13,21.03,9.3,19.34,1.8-.4,4.96-1.66,7.06-3.04,5.77-3.61,6.92-3,8.99,5.24,2.03,8.1,5.05,12.43,10.87,15.53,7.33,3.9,13.02,3.42,20.45-1.8,7.06-4.96,8.1-3.5,10.23,14.4,1.81,14.9,5.5,22.64,14.19,29.31,9.61,7.27,21.43,8.69,35.41,4.36,15.38-4.84,26.8-14.16,39.93-32.44,5.15-7.34,6.19-9.28,8.56-16.29Z"/><path class="cls-2" d="m533.32,386.8c-2.12-14.95-13.76-26.93-25.45-26.24-4.66.24-16.08,6.16-18.77,9.72-3.57,4.78-5.79,21.73-3.54,28.14.91,2.75,1.74,3.53,5.07,4.74,5.01,1.87,17.61.54,30.68-3.15,11.36-3.24,13.06-5.17,12.02-13.2Z"/><path class="cls-2" d="m545.36,309.94c.6-4.32.36-7.06-1.2-10.72-3.36-8.59-20.44-5.22-25.99,5.19-3.81,7.15-2.1,20.75,3.1,25.45,2.8,2.62,9.07,2.34,13.25-.42,3.92-2.67,9.87-13.44,10.84-19.49Z"/><path class="cls-2" d="m464.51,345.39c.43-4.42-.98-10.72-2.74-11.66-2.29-1.22-12.1,2.73-15.55,6.22-4.09,4.06-8.23,12.27-8.29,16.2-.14,8.76,9.81,11.57,17.81,5.07,3.2-2.6,8.36-11.86,8.77-15.83Z"/><path class="cls-2" d="m420.73,375.89c.33-4.24-1.22-8.35-3.48-8.99-2.53-.78-7.82,8.3-7.96,13.66-.17,10.11,10.73,5.6,11.44-4.67Z"/><path class="cls-2" d="m464.63,274.75c-5.74-1.13-12.38,1.11-12.23,4.02.17,2.24,5,2.1,9.89-.28,4.71-2.25,5.32-3.17,2.33-3.74Z"/><path class="cls-2" d="m479.89,185.9c-1.05-2.49-4.23-2.7-9.96-.44-6.01,2.35-10.64,6.79-10.83,10.55-.08,1.43.42,2.83,1.13,3.21,2.21,1.18,9.11-.93,13.66-4.17,5.06-3.54,7.1-6.53,6.01-9.15Z"/><path class="cls-2" d="m405.67,295.47c1.18-7.75-1.14-16.58-5.39-20.09-5.43-4.48-15.19,2.79-20.94,15.7-6.89,15.48,2.98,23.34,18.24,14.47,5.22-3,7.35-5.72,8.09-10.08Z"/><path class="cls-2" d="m451.47,200.11c-.47-2.52-1-3.02-2.74-2.93-4.66.24-10.25,7.12-9.56,11.79.45,3.19,3.18,3.17,7.56-.16,4.74-3.59,5.5-5,4.74-8.69Z"/><path class="cls-2" d="m430.73,166.52c-.66-2.16-1.36-2.76-3.06-2.76-2.95.01-4.23.92-5.74,3.97-1.65,3.31-1.14,5.97,1.51,7.38,3.88,2.07,8.77-3.71,7.29-8.58Z"/><path class="cls-2" d="m193.54,315.96c-.82-1.23-7.75.52-9.86,2.56-2.8,2.7,2.54,7.36,5.86,5.16,2.37-1.68,4.81-6.27,4-7.73Z"/><path class="cls-2" d="m84.03,366.29c-.3-4.12-2.66-6.29-4.76-4.46s-4.9,7.7-5.11,10.65c-.18,3.53,1.04,4.86,4.18,4.49,3.41-.45,6.14-5.57,5.69-10.68Z"/><path class="cls-2" d="m79.31,344.29c2.92-12.5.2-30.37-5.84-39.03-6.99-9.84-18.42-12.42-33.23-7.39-19.27,6.62-34.03,20.28-38.54,35.78-3.53,12.17-1.43,27.79,5.09,38.74,3.04,5.13,4.18,6.19,9.3,8.92,4.28,2.17,7.13,3,10.84,3.05,13.95.18,27.82-5.01,37.53-13.89,6.18-5.66,12.88-17.38,14.86-26.19Z"/><path class="cls-2" d="m177.98,131.16c1-4-.28-13.29-2.3-16.75-1.97-3.32-2.24-3.46-5.2-3.22-7.53.75-15.61,5.28-18.34,10.4-2.16,4.06-.98,11.83,2.61,16.8,3.63,4.88,5.31,5.77,10.1,5.49,6.18-.33,11.32-5.3,13.12-12.73Z"/></g></svg>