<?xml version="1.0" encoding="UTF-8"?><svg id="assets-to-send" xmlns="http://www.w3.org/2000/svg" viewBox="0 0 78.84 41.4"><defs><style>.cls-1{fill:#344a57;}</style></defs><path class="cls-1" d="m36.83,1.58h2.05l2.76,8.55h-1.24l-1.76-5.5c-.05-.14-.13-.24-.26-.31s-.31-.1-.56-.1-.41.03-.54.1c-.12.07-.21.17-.26.31l-1.77,5.5h-1.19l2.76-8.55Zm-.73,5.03h3.33l.88,1.99h-4.93l.73-1.99Z"/><path class="cls-1" d="m.25,15.63h5.71v2.08h-2.69l.46-.41v6.87h-1.22v-6.87l.46.41H.25v-2.08Z"/><path class="cls-1" d="m7.11,15.63h5.36v2h-4.78l.54-.54v2.42l-.54-.54h4.57v1.73h-4.57l.54-.54v2.54l-.54-.54h4.89v2h-5.48v-8.55Z"/><path class="cls-1" d="m14.18,15.63h2.93c.93,0,1.65.26,2.17.77.52.51.78,1.22.78,2.12,0,.55-.12,1.05-.36,1.48-.24.43-.58.77-1.02,1.01-.45.24-.97.36-1.57.36h-2.28l.53-.53v3.33h-1.17v-8.55Zm3.95,3.69c.28-.07.48-.16.62-.29.14-.13.2-.29.2-.49s-.07-.36-.2-.49c-.14-.13-.34-.23-.62-.3s-.62-.1-1.02-.1h-1.76v1.77h1.76c.41,0,.75-.03,1.02-.1Zm-1.57,1.9l1.38-.05,2.33,3h-1.5l-2.21-2.95Z"/><path class="cls-1" d="m21.48,15.63h2.93c.93,0,1.65.26,2.17.77.52.51.78,1.22.78,2.12,0,.55-.12,1.05-.36,1.48-.24.43-.58.77-1.02,1.01-.45.24-.97.36-1.57.36h-2.28l.53-.53v3.33h-1.17v-8.55Zm3.95,3.69c.28-.07.48-.16.62-.29.14-.13.2-.29.2-.49s-.07-.36-.2-.49c-.14-.13-.34-.23-.62-.3s-.62-.1-1.02-.1h-1.76v1.77h1.76c.41,0,.75-.03,1.02-.1Zm-1.57,1.9l1.38-.05,2.33,3h-1.5l-2.21-2.95Z"/><path class="cls-1" d="m28.73,22.15h1.42l-.49.54v-5.57l.49.54h-1.42v-2.03h2.96v2.03h-1.39l.47-.54v5.57l-.47-.54h1.39v2.03h-2.96v-2.03Z"/><path class="cls-1" d="m33.42,15.63h5.46v2.03h-4.73l.4-.41v2.4l-.4-.47h4.44v1.86h-4.44l.4-.48v3.62h-1.12v-8.55Z"/><path class="cls-1" d="m40.45,15.63l1.22,2.52c.07.15.18.26.33.33.15.07.33.1.53.1.23,0,.42-.04.57-.1.14-.07.25-.18.32-.33l1.21-2.52h1.3l-2.83,5.68v2.87h-1.17v-2.87l-2.82-5.68h1.35Z"/><path class="cls-1" d="m46.57,22.15h1.42l-.49.54v-5.57l.49.54h-1.42v-2.03h2.96v2.03h-1.39l.47-.54v5.57l-.47-.54h1.39v2.03h-2.96v-2.03Z"/><path class="cls-1" d="m51.27,15.63h2.25l2.21,5.62c.04.09.11.17.21.22.1.05.22.08.35.08h.47v-5.92h1.22v8.55h-2.37l-2.2-5.64c-.03-.08-.09-.14-.18-.19s-.2-.08-.32-.08h-.42v5.91h-1.22v-8.55Z"/><path class="cls-1" d="m59.72,17.53c.28-.67.69-1.18,1.23-1.54s1.18-.53,1.92-.53c.49,0,.98.12,1.46.36.48.24.9.55,1.27.93v1.64c-.35-.23-.75-.41-1.21-.54-.45-.13-.91-.2-1.37-.2-.87,0-1.52.19-1.96.56-.44.37-.66.93-.66,1.67s.22,1.33.66,1.72c.44.39,1.09.58,1.96.58.31,0,.62-.05.92-.16s.56-.28.76-.51c.2-.23.3-.53.3-.88v-.17h-2.6v-1.24h2.96l.82,1.07v1.37s.05,2.54.05,2.54h-1.22l-.02-1.33h-.07c-.15.31-.34.58-.57.8-.23.22-.5.38-.79.49-.29.11-.59.16-.91.16-.66,0-1.24-.17-1.74-.5-.51-.33-.9-.83-1.19-1.49-.29-.66-.43-1.45-.43-2.38s.14-1.73.42-2.4Z"/><path class="cls-1" d="m67.72,15.63h1.22v6.87l-.43-.41h4.19v2.08h-4.98v-8.55Z"/><path class="cls-1" d="m73.36,15.63l1.22,2.52c.07.15.18.26.33.33.15.07.33.1.53.1.23,0,.42-.04.57-.1.14-.07.25-.18.32-.33l1.21-2.52h1.3l-2.83,5.68v2.87h-1.17v-2.87l-2.82-5.68h1.35Z"/><path class="cls-1" d="m9.57,29.68h5.46v2.03h-4.73l.4-.41v2.4l-.4-.47h4.44v1.86h-4.44l.4-.48v3.62h-1.12v-8.55Z"/><path class="cls-1" d="m16.16,29.68h1.17v5.12c0,.41.17.74.52.97.35.23.83.35,1.45.35.41,0,.76-.05,1.05-.16s.52-.26.68-.46c.16-.2.23-.44.23-.71v-5.12h1.17v5.12c0,.74-.12,1.38-.37,1.91-.25.53-.61.94-1.08,1.22-.47.28-1.03.42-1.69.42s-1.22-.14-1.69-.42c-.47-.28-.83-.69-1.08-1.22-.25-.53-.38-1.17-.38-1.91v-5.12Z"/><path class="cls-1" d="m24.04,29.68h2.25l2.21,5.62c.04.09.11.17.21.22.1.05.22.08.35.08h.47v-5.92h1.22v8.55h-2.37l-2.2-5.64c-.03-.08-.09-.14-.18-.19s-.2-.08-.32-.08h-.42v5.91h-1.22v-8.55Z"/><path class="cls-1" d="m35.48,29.68h2.25l2.21,5.62c.04.09.11.17.21.22.1.05.22.08.35.08h.47v-5.92h1.22v8.55h-2.37l-2.2-5.64c-.03-.08-.09-.14-.18-.19s-.2-.08-.32-.08h-.42v5.91h-1.22v-8.55Z"/><path class="cls-1" d="m43.93,36.2h1.42l-.49.54v-5.57l.49.54h-1.42v-2.03h2.96v2.03h-1.39l.47-.54v5.57l-.47-.54h1.39v2.03h-2.96v-2.03Z"/><path class="cls-1" d="m48.57,31.57c.28-.67.69-1.18,1.23-1.54s1.18-.53,1.92-.53c.49,0,.98.12,1.46.36.48.24.9.55,1.27.93v1.64c-.35-.23-.75-.41-1.21-.54-.45-.13-.91-.2-1.37-.2-.87,0-1.52.19-1.96.56-.44.37-.66.93-.66,1.67s.22,1.33.66,1.72c.44.39,1.09.58,1.96.58.31,0,.62-.05.92-.16s.56-.28.76-.51c.2-.23.3-.53.3-.88v-.17h-2.6v-1.24h2.96l.82,1.07v1.37s.05,2.54.05,2.54h-1.22l-.02-1.33h-.07c-.15.31-.34.58-.57.8-.23.22-.5.38-.79.49-.29.11-.59.16-.91.16-.66,0-1.24-.17-1.74-.5-.51-.33-.9-.83-1.19-1.49-.29-.66-.43-1.45-.43-2.38s.14-1.73.42-2.4Z"/><path class="cls-1" d="m56.56,29.68h1.22v3.58l-.56-.53h4.98l-.55.53v-3.58h1.22v8.55h-1.22v-3.96l.55.55h-4.98l.56-.55v3.96h-1.22v-8.55Z"/><path class="cls-1" d="m64.01,29.68h5.71v2.08h-2.69l.46-.41v6.87h-1.22v-6.87l.46.41h-2.72v-2.08Z"/></svg>