<?xml version="1.0" encoding="UTF-8"?><svg id="assets-to-send" xmlns="http://www.w3.org/2000/svg" viewBox="0 0 269.31 275.15"><defs><style>.cls-1{fill:#ec404c;}</style></defs><path class="cls-1" d="m176.43,98.59c-2.15-1.25-1.95,1.04-2.68,1.84-.85.93-1.45,2.1-2.31,3.03-.93.99-3,1.95-2.9,2.7.34,2.46-.08,5.29,2.03,7.24.43.4,1.29.61,1.9.51,1.98-.32,3.84-.21,4.05,2.18.21,2.36-1.29,4.22-3.55,4.4-1.97.16-2.86,1.14-3.75,2.5-.2.15-.41.29-.61.44.19-.16.38-.32.57-.47,4.24-.66,7.89.52,9.99,4.33,2.09,3.8,1.16,7.43-1.64,10.76-.67.79-.93,3.07-.4,3.51,2.1,1.76,1.37,3.38.68,5.38-.24.72.51,2.26,1.25,2.74,2.33,1.52,4.86,2.71,7.32,4.03l-.06-.06c.24.52.49,1.05.73,1.57.12.16.24.33.37.49.18,1.33.59,2.67.51,3.99-.35,5.8-3.09,10.09-10.7,9.89-2.55-.07-3.9.15-4.52,3.49-.57,3.09-3.26,5.85-5.31,8.55-.42.56-2.92.5-3.08.15-1.39-3.33-5.48-2.29-7.38-4.75-.4-.52-1.68-.46-2.56-.47-.54,0-1.27.21-1.57.59-.18.24.25,1,.47,1.49,1.07,2.41,2.15,4.81,3.24,7.21.88,1.94,1.79,3.88,2.68,5.82l.04-.04c-2.79,1.58-5.08,3.68-6.63,6.52-1.08,1.98-2.59,1.78-4.15.76-1.1-.72-2.05-2.29-3.1-2.32-5.85-.15-6.17-5.15-8.02-8.77-.44-.85-.72-2.26-.31-2.98.95-1.68.18-2.39-1.17-2.25-.85.09-2.22,1.25-2.26,1.99-.09,1.86.65,3.76.65,5.64,0,2.01.09,4.35-.88,5.92-.96,1.55-3.12,3.06-4.89,3.24-2.41.25-3.85-1.97-4.62-4.22-.38-1.13-.52-2.34-.76-3.51l-.04.04c.31-.93.63-1.86.94-2.79l-.02.05c.1-.52.2-1.04.3-1.57-1.83-.32-3.66-.63-5.49-.95-.12-.1-.24-.2-.37-.3-1-.66-2.06-1.25-2.99-2-1-.8-1.87-1.75-2.8-2.64-.79,1.22-1.41,3.29-2.42,3.5-2.5.53-5.81,1.22-7.65.05-3.89-2.47-7.78-2.85-12.03-2.43l.03.03c-4.98-2.27-7.04-7.65-11.33-10.65-1.43-1.01-2.81-2.09-4.18-3.19-1.01-.8-2.01-1.61-2.91-2.53-1.66-1.69-3.06-3.03-6.02-2.8-5.47.43-8.27-3.18-7.44-8.47.53-3.38-1.59-6.16-5.07-7.71-3.69-1.63-7.28-3.58-10.61-5.84-.99-.67-1.44-2.96-1.22-4.36.3-1.86,2.04-1.72,3.66-1.29.73.2,2.3-.06,2.31-.18.28-4.62,4.31-1.47,6.09-2.94.49-.4,1.4-.29,2.11-.41-.4-.6-.74-1.24-1.19-1.8-1.22-1.51-2.16-2.64-4.48-.88-1.9,1.43-4.77,1.5-7.05,2.53-3.88,1.75-10.61-.18-13.1-4-2.89-4.43-2.34-9.45,1.94-12.62,2.69-2,2.99-3.49.88-6.06-1.44-1.77-2.24-4.18-.35-6.2,1.78-1.9,4.14-1.68,6.26-.56,1.56.83,3.07,1.88,4.35,3.1,1.87,1.77,3.9,2.16,6.2,1.29.55-.21.9-.94,1.33-1.44-.62-.36-1.23-.76-1.88-1.05-.17-.07-.5.27-.77.39-2.38.96-3.95-1.1-3.97-2.37-.05-2.72,1.92.23,2.98-.51.53-.37,1.81-.32,2.33.08,1.68,1.31,1.76.41,2.14-1.04,1.09-4.11,3.28-5.05,7.37-3.14,2.01.94,3.64,1.91,3.45-1.67-.04-.73,1.04-1.46,1.36-2.28.81-2.09-.14-3.34-2.49-3.9-1.88-.44-4.37-.59-5.41-1.85-3.13-3.79-6.02-7.98-5.83-13.27.12-3.44,1.63-4.55,5.22-4.57,2.51-.02,5.04-1.48,7.48.77,1.13,1.04,1.96,1.92.4,2.62-2.77,1.25-1.03,1.97.03,2.96,2.44,2.31,3.64,5,3.02,8.49-.52,2.92.69,4.43,3.64,4.03,4.05-.54,7.73.4,11.44,1.62.97.32,2.01.64,2.79,1.24,2.36,1.85,3.11,1.75,4.39-.87.66-1.34,1.25-2.71,1.97-4.01,1.97-3.55,3.95-4.51,7.74-2.96,2.04.83,2.3.43,2.3-1.41,0-.74.3-1.47.41-2.21.23-1.57-.76-2.18-1.8-1.33-3.15,2.59-6.74,2.94-10.55,2.65-.69-.05-1.88-.03-1.97-.31-1.02-3.37-4.1-4.63-6.5-6.57-1.43-1.15-.84-2.04.4-2.76,4.52-2.64,5.01-6.36,2.99-10.82-1.11-2.44-1-4.7,1.3-6.46,2.72-2.08,6.19-.98,6.96,2.46.43,1.9.67,2.64,2.99,2.51,1.63-.09,3.39,1.52,5.02,2.47,1.08.63,1.95,1.75,3.09,2.15,3.98,1.39,6.29,4.39,5.32,8.39-.53,2.17-.05,3.09,1.43,4.49,2.73,2.58,2.62,5.77,1.3,9.17-.61,1.58-.64,3.44-.67,5.18-.01.5.88,1.01,1.35,1.51.45-.52,1.37-1.13,1.29-1.54-1.08-5.26,1.9-9.54,3.45-14.11,1.08-3.17,2.63-6.22,4.3-9.13.41-.71,2.65-3.94,3.03.47.02.26,1.18.65,1.77.59,3.87-.37,7.73-.84,11.59-1.29.29-.03.64-.12.82-.32,4.35-4.59,9.76-4.21,15.3-3.3,3.87.64,4.47-.1,4.74-4,.11-1.58,1.05-3.4,2.18-4.54,2-2.01,4.52-3.43,3.81-7-.14-.71,1.46-2.57,2.04-2.49,2.72.41,5.64.84,7.95,2.18,2.29,1.32,1.3,4.08.77,6.24-1.05,4.27-3.38,7.66-7.23,9.93l.06-.04c-.9.07-1.79.16-2.69.21-3.69.23-7.13,3.79-6.61,7.37.15,1.01,1.92,1.91,3.1,2.56.49.27,1.42-.21,2.13-.4,5.71-1.54,6.97-.58,7.03,5.33.05,4.56,3.23,6.84,6.87,4.85.9-.49,1.56-1.45,2.47-1.92,2.39-1.23,4.78-2.53,7.65-1.29,2.16.93,3.14,2.4,2.16,4.6-1.45,3.27-3.27,6.25-7.15,7.22-1.87.47-3.38,1.36-2.54,3.81.26.74.12,1.61.17,2.43-.84-.2-1.71-.34-2.52-.61-.41-.14-.74-.5-1.11-.76l.06.06Zm-11.76,26.21c-1.52.18-3.05.37-4.57.56.09.24.14.64.29.69,1.69.52,3.25.52,4.24-1.29l.2-.17-.15.21Zm-7.25,33.39c-1.58,1.29-3.06,1.6-4.83.12-.57-.47-1.83-.13-2.77-.16.51,1.93,1.01,3.86,1.55,5.78.02.07.7.09.75-.02,1.19-2.45,5.62-1.9,5.31-5.71h-.01Zm-4.52-4.54c2.51-2.35,4.32-.52,6.17,1.04.59.5,1.35,1.62,1.65,1.5,2.09-.82,5.52,1.61,6.32-2.51.07-.38.99-.58,1.51-.88.84-.5,1.66-1.01,2.48-1.52-.9-.33-1.77-.79-2.7-.96-2.7-.5-3.78-1.93-2.06-3.78,3.07-3.31.33-3.85-1.74-4.97-1.31-.7-2.63-1.39-3.92-2.12-4.55-2.61-8.74-.91-9.99,4.06-.23.93-.43,1.87-.76,2.77-.58,1.6-.12,2.72,1.57,2.96,3.64.5,2.56,2.46,1.51,4.47l-.22.13.18-.17Zm-81.65,2.62c-.1.02-.2.03-.3.05,0,.75-.02,1.5,0,2.25,0,.29.11.58.17.86.15-.17.38-.32.43-.52.75-2.74,1.51-5.47,2.11-8.24.05-.21-1.13-.69-1.74-1.05-.48,1.07-1.25,2.12-1.37,3.23-.12,1.1.43,2.26.69,3.4Zm37.32,20.37c0,.06,0,.12-.01.18-.73-.08-1.47-.24-2.19-.2-.35.02-.67.46-1,.7.4.17.79.35,1.19.52.53.24,1.1.72,1.6.66.93-.11,1.83-.5,2.71-.86.13-.05.08-.55.11-.84-.79-.06-1.59-.12-2.39-.18Zm57.69-68.87c-.29-.55-.41-.78-.52-1.01-.81.58-1.63,1.16-2.44,1.75.2.24.53.72.58.69.82-.44,1.61-.95,2.38-1.43Zm-38.04,77.28c-1.31-.18-2.3-.35-3.31-.44-.37-.03-.75.14-1.13.22,1.13.35,2.25.72,3.4,1.01.17.04.43-.31,1.04-.79Zm8.21-11.7c-.52-.32-1.07-.66-1.62-1.01-.14.23-.43.61-.38.66.49.49,1.03.92,1.55,1.36.11-.24.22-.49.45-1.01Zm.23,5.68c-.23.22-.54.43-.51.5.17.37.42.71.65,1.06.16-.14.49-.34.46-.41-.14-.38-.37-.73-.6-1.15Z"/><path class="cls-1" d="m72.51,179.87c-3.58,5.1-3.74,5.13-9.58,2.94-.93-.35-1.97-.56-2.96-.59-.52-.02-1.05.52-1.57.81.28.44.47,1.03.87,1.31,2.03,1.43,4.14,2.75,6.14,4.2.68.49,1.14,1.28,1.71,1.93-.92.08-1.83.17-2.75.25h-.02c-.62.33-1.42.53-1.85,1.04-3.83,4.49-10.7,4.32-13.59-.38-2.19-3.56-1.04-7.42,2.89-8.66,1.71-.54,2.71-.96,3.22-2.92.34-1.3,2.01-2.28,3.13-3.34.38-.36,1.19-.41,1.36-.8,1.72-4.02,5.13-3.63,8.34-2.99,3.08.62,4.46,3.15,4.63,7.22l.03-.02Z"/><path class="cls-1" d="m74.48,186.41c.08.12.14.27.25.37,2.49,2.23-2.44,5.91.9,7.22,3.09,1.21,3.27,4.1,5.18,5.81,3.49,3.12,1.44,7.34,2.07,11,.13.75-2.64,2.94-3.9,2.81-3.34-.36-6.85-1.11-9.76-2.7-2.27-1.23-3.66-4.13-2.86-7.02.85-3.12,2.24-6.08,3.25-9.16.28-.86.17-1.9.02-2.82-.12-.7-.71-1.32-.88-2.03-.9-3.69-.25-4.39,3.56-3.95.59.07,1.2.09,1.79.13.13.11.26.22.37.34Z"/><path class="cls-1" d="m22.5,216.86c-.02-5.13,2.43-6.9,7.04-4.88,1.5.66,2.48.9,3.96-.28,2.44-1.93,5.13-1.61,7.29.31,3,2.66,2.44,6.62-1.39,7.69-2.8.79-5.1,2.1-7.51,3.63-1.51.96-4,1.13-5.82.69-2.25-.54-3.58-3.89-3.58-7.17Z"/><path class="cls-1" d="m207.18,244.88c-.1,4.71-7.28,7.63-11.93,4.93-1.76-1.02-3.63-1.94-5.56-2.58-3.49-1.16-4.91-3.08-3.92-5.77,1.13-3.04,5.19-5.16,7.63-3.38,2.43,1.78,4.52,2,7.37,1.55,3.64-.57,6.46,2.13,6.4,5.25Z"/><path class="cls-1" d="m167.32,208.82c2.82.27,5.68.34,8.45.87,4.04.78,5.67,4.66,3.75,8.35-2,3.81-7.61,5.34-11.28,3.04-.76-.47-1.46-1.05-2.15-1.62-1.07-.89-2.09-1.82-3.14-2.73,1.08-.87,2.12-1.79,3.25-2.58,2.08-1.46,2.27-3.28,1.19-5.4l-.07.08Z"/><path class="cls-1" d="m112.23,203.36c.72-.2,1.43-.47,2.16-.57.94-.13,1.9-.11,2.86-.15-.09,1,.02,2.07-.32,2.97-.9,2.38-5.44,3.55-6.86,1.53-2-2.85-4.05-2.25-6.45-1.1-.14.06-.28.11-.42.16-1.49.56-3.36,1.89-4.31-.17-.89-1.93.4-3.33,2.54-3.79.24-.05.5-1.05.38-1.52-.47-1.95-1.23-3.84-1.62-5.8-.48-2.43.89-2.28,2.62-1.71,1.78.58,3.65.87,5.44,1.44.59.19,1.31.73,1.52,1.28.92,2.47,1.68,4.99,2.5,7.5-.56-.12-1.12-.24-1.68-.35.24.46.39,1.01.75,1.34.35.33.9.43,1.37.63-.17-.56-.32-1.11-.48-1.67Z"/><path class="cls-1" d="m186.37,153.7c-.18-4.85,1.35-6.4,5.87-6.38.9,0,2.02-.76,2.66-1.51.96-1.12,1.4-2.69,2.41-3.75.68-.72,1.93-.89,2.92-1.31.31,1.09,1.23,2.7.82,3.18-2.43,2.85-.75,2.7,1.66,3.33,1.64.43,2.9,2.46,4.18,3.9.15.17-.48,1.45-1.01,1.74-1.9,1.06-3.85,2.12-5.91,2.77-.91.29-2.31-.12-3.18-.69-4.51-2.95-4.46-3-8.09.33-.29.27-.84.26-1.27.38-.12-.16-.24-.33-.37-.49-.24-.52-.49-1.05-.73-1.57l.05.06Zm6.01-3.05c-.38-.17-.63-.37-.87-.37-.41,0-.83.11-1.24.18.24.14.48.38.73.39.41.02.84-.11,1.38-.2Z"/><path class="cls-1" d="m167.39,208.75c-1.95.68-3.85,1.71-5.86,1.96-2.61.34-4.56-1.03-5.55-3.6-.99-2.54.17-4.34,1.94-5.93,2.27-2.04,5.91-2.35,8.33-.77,2.57,1.68,2.85,3.81,1.08,8.39l.07-.07Z"/><path class="cls-1" d="m73.7,9.6c.67.42,2.47.97,3.09,2.14.44.83-.72,2.51-1.19,3.8-.42,1.14-1.14,2.23-1.29,3.4-.28,2.09-1.42,3.64-3.31,3.63-1.74-.01-3.78-.72-5.12-1.81-1.54-1.26-.46-2.94.56-4.37.57-.8,1.04-1.81,1.16-2.77.39-3.14,2.62-3.66,6.11-4.01Z"/><path class="cls-1" d="m80.86,249.78c-3.91-.1-5.83-1.12-6.46-3.98-.24-1.1-.95-2.09-1.16-3.19-.26-1.35-.83-3.38-.18-4.01,1.11-1.08,3.13-1.87,4.62-1.68,1.22.15,2.45,1.78,3.29,3.01.76,1.1.95,2.58,1.47,3.86.52,1.28,1.96,3.02,1.55,3.66-.8,1.29-2.58,1.97-3.13,2.34Z"/><path class="cls-1" d="m135.42,61.54c-2.15,1.61-3.86,3.28-5.89,4.3-1.98,1-3.84-.06-5.02-1.82-1.26-1.88-1.55-3.87.2-5.71,1.5-1.59,3.22-3.19,5.41-1.74,1.89,1.25,3.38,3.12,5.3,4.97Z"/><path class="cls-1" d="m177.34,234.06c-1.98,1.34-3.85,2.94-6.02,3.87-.7.3-2.77-.9-3.11-1.83-.58-1.55-.3-3.43-.33-5.18,0-.15.54-.5.69-.44,2.66,1.24,5.18.15,7.77-.3,1.14-.2,2.45.11,3.6.46.71.22,1.25.96,1.87,1.48-.61.61-1.12,1.44-1.85,1.75-.77.33-1.75.17-2.64.23-.23-.09-.46-.18-.69-.26.24.08.48.15.73.23Z"/><path class="cls-1" d="m48.49,170.1c-.3.79-.49,1.98-.83,2.04-.75.11-1.86-.12-2.33-.65-2.18-2.46-4.45-4.91-6.19-7.68-1.47-2.33.03-4.17,2.81-3.71,2.53.42,4.49,1.8,5.26,4.35.56,1.85.87,3.78,1.28,5.65Z"/><path class="cls-1" d="m126.01,200.01c1.77.25,3.53.58,5.31.71.78.06,1.94,0,2.31-.48,1.67-2.21,2.22-.55,2.7.73.35.95.58,2.07.43,3.05-.32,2.11-2.53,2.84-3.73,1.09-1.3-1.9-3.02-1.92-4.22-1.04-3.08,2.28-5.33-.76-8-.81-.15,0-.47-1.2-.4-1.23,1.78-.93,3.61-1.78,5.42-2.65.06.21.12.42.18.62Z"/><path class="cls-1" d="m85.16,185.31c1.35-1.83,2.91-3.23,5.43-2.7l-.03-.03c.69.57,1.82,1.05,1.97,1.74.29,1.31.51,3.15-.18,4.01-.69.86-2.56,1.1-3.88,1.03-1.22-.07-2.12-2.45-3.75-.58-.73-.82-1.61-1.55-2.12-2.49-.24-.45.26-1.29.42-1.95.71.32,1.42.64,2.13.97h.01Z"/><path class="cls-1" d="m108.25,251.85c-1.72.48-3.43,1.02-5.18,1.42-.61.14-1.3-.07-1.95-.12.14-.7.09-1.55.47-2.07.51-.69,1.31-1.22,2.09-1.64,1.71-.91,3.42-1.87,5.25-2.48,1.31-.43,2.81-.49,4.19-.33.38.05,1.08,1.8.81,2.18-.92,1.29-2.13,2.43-3.41,3.39-.48.36-1.45.06-2.19.06-.03-.13-.05-.26-.08-.39Z"/><path class="cls-1" d="m200.49,257.8c-.52-.58-1.93-1.52-2.39-2.79-.56-1.57,1.72-3.6,3.8-3.59,1.81,0,3.26.73,3.48,2.77.2,1.86-1.63,3.51-4.89,3.61Z"/><path class="cls-1" d="m151.46,62.97c-1.32-.82-2.8-1.34-3.62-2.37-.7-.88-1-2.44-.78-3.56.14-.7,1.76-1.78,2.36-1.58,1.06.34,1.92,1.46,2.73,2.38.43.49.49,1.31.88,1.85.46.62,1.1,1.1,1.67,1.64-.96.5-1.93.99-3.23,1.66Z"/><path class="cls-1" d="m18.48,28.74c3.03.18,4.6.94,4.54,3.22-.06,2.24-1.72,3.13-3.67,3.09-1.89-.04-3.97-.86-3.57-3.06.26-1.38,2.03-2.48,2.7-3.25Z"/><path class="cls-1" d="m74.07,72.36c.65.85,2.5,2.22,2.39,3.41-.12,1.3-1.87,3.08-3.26,3.48-1.81.53-2.86-1.23-3.08-3.03-.21-1.77,1.47-3.83,3.94-3.86Z"/><path class="cls-1" d="m77.06,85.89c-1.93,1.37-4.12,1.5-6.27.9-.57-.16-.84-1.39-1.25-2.13,2.38-.03,2.54-2.24,3.68-3.54.5-.57,2.01-.77,2.79-.46.79.32,1.61,1.42,1.76,2.29.15.92-.47,1.97-.76,2.97,0,0,.05-.03.05-.03Z"/><path class="cls-1" d="m87.52,256.42c-.35-.32-2.17-1.35-2.04-1.97.32-1.5,1.26-3.58,2.46-4.03,1.93-.72,4.59,1.39,4.67,2.92.11,1.91-1.32,2.99-5.1,3.07Z"/><path class="cls-1" d="m156.37,51.17c-1.88,1.53-2.91,2.99-4.19,3.26-2.14.46-3.24-1.23-3.55-3.2-.25-1.62,1.76-3.75,3.44-3.31,1.31.35,2.36,1.72,4.3,3.24Z"/><path class="cls-1" d="m236.26,143.38c-.62.29-1.21.72-1.87.84-1.05.2-2.81.66-3.11.21-1.18-1.74-2.45-2.38-4.53-1.96-.46.09-1.17-1-1.76-1.54.52-.49,1.17-1.49,1.54-1.4,3.11.81,6.17,1.8,9.23,2.79.19.06.25.51.49,1.05Z"/><path class="cls-1" d="m189.39,179.39c-2.12,1.63-3.16,2.99-4.45,3.28-1.83.42-3.12-.85-3.31-2.78-.2-2.02.98-3.34,2.86-3.14,1.33.14,2.56,1.31,4.9,2.63Z"/><path class="cls-1" d="m164.92,22.78c-.29.18-.65.42-1.02.64-1.23.75-2.39,1.72-3.73,2.16-.97.32-2.37.23-3.2-.29-.6-.38-1.04-1.97-.73-2.64.44-.94,1.66-2.13,2.52-2.12,1.86.04,3.72.77,5.56,1.26.18.05.28.43.59.97Z"/><path class="cls-1" d="m32.75,140.73c-.15,2.64-2.24,4.56-3.81,3.9-1.13-.47-2.41-1.91-2.56-3.06-.24-1.84,1.29-3.28,3.11-2.98,1.32.22,2.45,1.57,3.26,2.14Z"/><path class="cls-1" d="m211.96,266.5c.49.58,2.24,2.03,2.01,2.5-.62,1.27-1.98,2.69-3.27,2.94-.91.18-2.62-1.21-3.17-2.3-.63-1.27,1.68-3.14,4.43-3.15Z"/><path class="cls-1" d="m85.78,6.85c-.85.42-1.98,1.37-3.18,1.48-2.09.2-3.53-1.25-3.58-3.18-.02-.67,1.88-1.91,2.94-1.96,1.74-.08,3.73.32,3.82,3.66Z"/><path class="cls-1" d="m70.18,44.49c.5.52,1.66,1.3,2.08,2.36.27.67-.34,2.27-.97,2.57-.91.42-2.29.29-3.29-.09-.9-.34-1.53-1.34-2.3-2.03-.53-.47-1.08-.91-1.63-1.37.74-.25,1.47-.56,2.23-.74,1.02-.24,2.06-.38,3.88-.7Z"/><path class="cls-1" d="m143.07,261.8c-1.52-.76-2.81-1.41-4.11-2.06,1.41-.49,2.82-1.37,4.24-1.37,1.4,0,2.79.87,4.19,1.36-1.35.65-2.7,1.3-4.32,2.07Z"/><path class="cls-1" d="m149,243.19c.63,1.51,1.13,2.18,1.16,2.88.07,1.84-.32,4.01-2.39,3.99-.98,0-2.54-2.18-2.69-3.49-.09-.79,2.04-1.83,3.93-3.38Z"/><path class="cls-1" d="m177.69,178.82c-1.1,1.21-2.08,2.3-3.06,3.38-.59-.56-1.78-1.44-1.68-1.63.78-1.46,1.81-2.78,2.76-4.14.52.63,1.04,1.25,1.97,2.39Z"/><path class="cls-1" d="m213.9,159.33c-1.05.29-2.26,1.04-3.11.75-1.19-.4-2.12-1.58-3.17-2.43.8-.52,1.75-1.62,2.37-1.45,1.45.39,2.73,1.38,4.08,2.13-.06.34-.12.67-.17,1.01Z"/><path class="cls-1" d="m75.8,186.48c-.44-.03-.88-.05-1.32-.08-.12-.12-.24-.23-.37-.34-.53-2.07-1.07-4.13-1.6-6.2l-.02.02c.65.37,1.25.91,1.95,1.08,2.97.73,3.52,2.36,2,4.88-.21.21-.43.43-.64.63Z"/><path class="cls-1" d="m76.24,256.81c.81.89,1.95,1.89,1.83,2.07-.55.85-1.46,2.07-2.21,2.05-1.03-.03-2.03-1.06-3.04-1.66,1-.72,2-1.44,3.42-2.46Z"/><path class="cls-1" d="m6.96,115.13c.88.82,1.55,1.45,2.21,2.07-.99.69-1.95,1.88-2.97,1.92-1.01.04-2.06-1.08-3.08-1.69,1.18-.71,2.36-1.42,3.84-2.3Z"/><path class="cls-1" d="m165.32,188.66c-.4-.43-.93-.79-1.17-1.29-.27-.54-.44-1.26-.31-1.81.06-.23,1.09-.47,1.55-.32,2.64.83,4.3,2.42,3.79,5.47h-.01c-.81-.21-1.63-.43-2.44-.65-.17-.17-.34-.34-.52-.52-.07-.2-.21-.34-.42-.41-.16-.16-.32-.32-.47-.48Z"/><path class="cls-1" d="m224.03,175.79c-1.89,1.36-3.28,2.36-4.7,3.31-.03.02-.89-.92-.81-1.07.81-1.3,1.68-2.59,2.73-3.7.15-.16,1.37.7,2.77,1.46Z"/><path class="cls-1" d="m118.59,196.43c-.66.25-1.31.67-1.99.72-1.91.14-3.21-.83-3.41-2.72-.05-.5,1.29-1.69,1.49-1.58,1.22.61,2.29,1.51,3.41,2.32.17.43.33.85.49,1.27Z"/><path class="cls-1" d="m74.46,39.53c-1.55.98-2.51,2.06-3.33,1.96-.84-.1-1.53-1.36-2.29-2.1.88-.61,1.7-1.57,2.65-1.71.67-.1,1.51.89,2.97,1.86Z"/><path class="cls-1" d="m125.03,230.22c-.81.96-1.02,1.45-1.31,1.5-.85.17-1.75.24-2.62.2-.9-.05-1.79-.27-2.68-.42.65-.61,1.25-1.63,1.97-1.72,1.3-.17,2.68.22,4.64.44Z"/><path class="cls-1" d="m78.02,222.83c-.95-1.52-1.92-2.4-1.87-3.21.04-.64,1.47-1.79,2.05-1.66.92.21,1.64,1.29,2.44,2-.69.76-1.39,1.51-2.62,2.86Z"/><path class="cls-1" d="m220.67,166.74c-.91.96-1.46,1.54-2,2.12-.61-1.02-1.35-1.98-1.74-3.08-.14-.4.59-1.1.92-1.66.87.81,1.74,1.61,2.82,2.62Z"/><path class="cls-1" d="m142.1,212.44c-.25-1.3-.7-2.61-.65-3.89.02-.42,1.34-.78,2.06-1.17.28.62.96,1.43.78,1.83-.55,1.15-1.46,2.14-2.22,3.19l.03.04Z"/><path class="cls-1" d="m64.69,200.73c-1.13.99-1.77,1.98-2.32,1.93-.83-.08-1.6-.86-2.4-1.35.52-.61,1-1.67,1.58-1.73.81-.09,1.7.57,3.14,1.15Z"/><path class="cls-1" d="m145.16,202.42c-.74-1.3-1.52-2.1-1.55-2.94-.02-.48,1.16-1.01,1.81-1.52.45.84,1.07,1.64,1.26,2.53.08.38-.72.95-1.51,1.93Z"/><path class="cls-1" d="m76.44,185.85c.91.46,2,.75,2.69,1.42.47.46.41,1.48.59,2.24-.81,0-1.96.35-2.35-.05-.75-.78-1.07-1.97-1.57-2.99.21-.21.43-.42.64-.63Z"/><path class="cls-1" d="m82.14,254.49c-1.55.86-2.61,1.48-3.71,2-.12.06-.53-.52-.8-.8.86-.8,1.68-1.66,2.62-2.35.15-.11.85.5,1.89,1.15Z"/><path class="cls-1" d="m60.48,55.59c-.9.42-1.34.79-1.56.69-.66-.31-1.35-.71-1.81-1.26-.75-.87-1.32-1.89-1.96-2.85.37-.1.91-.41,1.09-.27,1.35,1.09,2.63,2.27,4.24,3.69Z"/><path class="cls-1" d="m175.38,84.9c-1.06-1.7-1.6-2.47-1.55-2.51,1.09-.86,2.23-1.66,3.4-2.39.08-.05.81.68.76.77-.7,1.22-1.49,2.4-2.61,4.14Z"/><path class="cls-1" d="m150.13,217.46c-.7.78-1.26,1.4-1.83,2.02-.4-.54-1.19-1.16-1.1-1.6.19-.94.84-1.78,1.3-2.66.44.61.88,1.21,1.63,2.24Z"/><path class="cls-1" d="m50.06,92.23c1.04-.68,1.85-1.45,2.05-1.31.75.5,1.31,1.29,1.85,2.04.03.05-.88,1.04-1.1.95-.85-.33-1.59-.92-2.8-1.68Z"/><path class="cls-1" d="m44.73,88.18c.7.99,1.17,1.66,1.64,2.33-.71.39-1.4,1.02-2.14,1.08-.42.03-1.38-1.06-1.27-1.33.27-.7.99-1.23,1.78-2.09Z"/><path class="cls-1" d="m49.05,156c.74.43,1.31.76,1.89,1.09-.69.37-1.35.96-2.06,1.03-.59.06-1.23-.5-1.86-.79.64-.42,1.29-.84,2.03-1.33Z"/><path class="cls-1" d="m72.04,241.61c-.74.54-1.35,1.19-1.54,1.09-.62-.34-1.16-.91-1.57-1.51-.08-.11.77-1.12.89-1.07.69.32,1.29.83,2.22,1.49Z"/><path class="cls-1" d="m170.21,72.71c-.44-1.11-1.03-1.87-.87-2.36.23-.68.96-1.35,1.63-1.63.3-.12,1.01.7,1.52,1.1-.49.61-.97,1.23-2.29,2.89Z"/><path class="cls-1" d="m200.25,131.75c.72.88,1.22,1.49,1.72,2.1-.63.29-1.29.84-1.89.8-.47-.04-1.25-.84-1.23-1.26.02-.5.78-.96,1.4-1.64Z"/><path class="cls-1" d="m178.68,238.16c.48.5.94.96.93.98-.82.94-1.66,1.88-2.58,2.72-.14.13-.72-.22-1.09-.35.87-1.06,1.74-2.12,2.74-3.35Z"/><path class="cls-1" d="m227.69,171.54c0-.15-.06-.32,0-.44.46-.94.93-1.86,1.41-2.79.39.42.99.78,1.14,1.28.57,1.83-.44,2.43-2.09,2.41-.15-.15-.3-.3-.45-.45Z"/><path class="cls-1" d="m95.91,212.23c-.56.17-1.26.62-1.66.43-.75-.35-1.35-1.04-1.93-1.67-.04-.05.69-1.04.82-.98.75.29,1.42.76,2.12,1.17.22.35.43.7.65,1.04Z"/><path class="cls-1" d="m122.5,225.47c-.41.8-.61,1.17-.8,1.54-.71-.62-1.46-1.21-2.1-1.89-.1-.1.26-.63.4-.96.81.42,1.61.84,2.5,1.31Z"/><path class="cls-1" d="m122.37,251.46c-.69.27-1.21.62-1.35.51-.75-.63-1.4-1.37-2.09-2.07.46-.28,1.2-.9,1.33-.79.72.62,1.3,1.4,2.1,2.35Z"/><path class="cls-1" d="m169.97,246.75c.14.56.53,1.21.37,1.67-.24.68-.81,1.29-1.39,1.76-.12.1-1.26-.7-1.22-.8.27-.7.74-1.31,1.14-1.96.37-.22.73-.45,1.1-.67Z"/><path class="cls-1" d="m198.81,93.65c.66.73,1.1,1.22,1.54,1.72-.47.41-.96,1.16-1.42,1.15-.53-.02-1.05-.7-1.57-1.1.42-.51.83-1.02,1.45-1.77Z"/><path class="cls-1" d="m212.82,194.69c.65.86,1.5,1.66,1.37,1.88-.35.62-1.13.99-1.73,1.47-.36-.55-.99-1.11-.99-1.66,0-.49.73-.96,1.35-1.69Z"/><path class="cls-1" d="m88.34,233.89c-.59.21-1.19.61-1.75.55-.34-.03-.62-.78-.92-1.2.57-.32,1.11-.81,1.72-.92.53-.1,1.14.23,1.71.37-.25.4-.5.8-.75,1.19Z"/><path class="cls-1" d="m88.06,85.53c-.68.44-1.18.88-1.27.8-.64-.52-1.24-1.1-1.75-1.75-.09-.11.33-.62.52-.95.75.57,1.49,1.14,2.5,1.89Z"/><path class="cls-1" d="m90.47,224.42c.47,1.3.82,1.99.95,2.71.05.3-.38.68-.59,1.03-.55-.64-1.19-1.23-1.57-1.96-.11-.2.53-.81,1.22-1.78Z"/><path class="cls-1" d="m191.73,171.74c-1.12.7-2.24,1.41-3.35,2.11-.17-.36-.35-.73-.52-1.09,1.3-.33,2.61-.66,3.91-.99l-.04-.03Z"/><path class="cls-1" d="m192.94,111.99c-.8.71-1.27,1.27-1.86,1.55-.16.08-1.11-.88-1.03-1.06.26-.58.76-1.15,1.31-1.44.23-.12.84.49,1.58.95Z"/><path class="cls-1" d="m41.23,158.19c-.91-1.26-1.34-1.77-1.3-1.81.69-.66,1.42-1.28,2.19-1.84.06-.04.79.6.74.7-.42.9-.95,1.75-1.63,2.94Z"/><path class="cls-1" d="m96.58,28.99c-1.14.85-1.54,1.37-2,1.42-.61.08-1.27-.2-1.92-.33.34-.41.62-1.04,1.04-1.16.61-.18,1.32,0,2.88.07Z"/><path class="cls-1" d="m158.95,221.2c.56.71,1.17,1.13,1.12,1.48-.06.47-.54,1.08-.98,1.23-.34.12-.89-.38-1.35-.61.33-.58.66-1.15,1.21-2.1Z"/><path class="cls-1" d="m71.82,238.03c-.7-.48-1.47-1.01-2.24-1.53.41-.27.98-.87,1.21-.76.85.41,1.59,1.05,2.37,1.6-.35.18-.69.35-1.34.69Z"/><path class="cls-1" d="m92.45,31.83c-.81.5-1.47,1.06-1.59.96-.52-.42-.96-1.01-1.24-1.61-.1-.22.34-.69.53-1.04.64.47,1.28.95,2.3,1.69Z"/><path class="cls-1" d="m191.12,228.36c-.6.55-1.01,1.11-1.17,1.05-.74-.31-1.41-.79-2.1-1.21.26-.32.6-.94.75-.9.78.22,1.51.61,2.51,1.06Z"/><path class="cls-1" d="m99.37,228.05c-.99.56-1.68.94-2.36,1.33-.11-.52-.47-1.18-.27-1.51.32-.53.97-.9,1.56-1.18.09-.05.57.71,1.07,1.36Z"/><path class="cls-1" d="m118.81,186.4c-.5.92-1.01,1.84-1.51,2.76-.32-.24-.64-.47-.96-.71.7-.78,1.4-1.57,2.1-2.35.12.1.25.2.37.3Z"/><path class="cls-1" d="m123.12,191.62c-.56-.8-1.12-1.6-1.68-2.4.85-.1,1.71-.2,2.56-.3l.02-.05c-.31.93-.63,1.86-.94,2.79l.04-.04Z"/><path class="cls-1" d="m166.72,190.07c-.88.32-2.31,1.13-2.54.87-1.22-1.35,0-1.87,1.14-2.29.15.16.31.32.47.48.08.2.22.33.42.41.18.18.35.35.52.52Z"/><path class="cls-1" d="m169.18,190.72c1.11.78,2.21,1.57,3.32,2.35-.16.21-.32.43-.48.65-.95-.99-1.9-1.99-2.85-2.99v-.02Z"/><path class="cls-1" d="m195.03,119.98c-.98.52-1.71,1.1-1.87.96-.62-.48-1.05-1.2-1.55-1.83.5-.07,1.02-.29,1.48-.18.54.13,1.02.53,1.95,1.05Z"/><path class="cls-1" d="m149.23,204.48c-.7-.8-1.13-1.28-1.55-1.76.41-.32.86-.93,1.23-.88.45.05,1.03.59,1.18,1.04.1.31-.43.83-.87,1.61Z"/><path class="cls-1" d="m153.67,216.56c.52,1.22.95,1.84,1,2.48.03.35-.75,1.11-.92,1.05-.59-.22-1.16-.65-1.53-1.16-.11-.15.47-.81,1.45-2.38Z"/><path class="cls-1" d="m100.44,51.51c-.91,1.11-1.23,1.5-1.55,1.89-.41-.53-.98-1.01-1.16-1.6-.11-.35.54-1.31.64-1.28.67.2,1.28.58,2.07.99Z"/><path class="cls-1" d="m119.23,63.82c-.59.49-1.02,1.02-1.19.95-.44-.19-.78-.64-1.16-.98.29-.28.6-.81.85-.78.44.05.85.44,1.49.82Z"/><path class="cls-1" d="m257.06,194.96c.23,1.15.55,1.76.37,2.1-.2.38-.87.51-1.33.75-.12-.39-.42-.83-.32-1.15.14-.44.57-.79,1.28-1.7Z"/><path class="cls-1" d="m215.05,165.03c-.94.42-1.37.78-1.69.71-.5-.12-1.01-.47-1.34-.86-.14-.16.18-.7.3-1.07.62.28,1.23.55,2.73,1.22Z"/><path class="cls-1" d="m200.59,183.48c.59.74,1.18,1.17,1.12,1.5-.06.37-.67.76-1.11.89-.2.06-.84-.48-.82-.73.02-.43.39-.84.81-1.65Z"/><path class="cls-1" d="m123.34,227.82c.58-.51.92-1.04,1.37-1.14.29-.07.73.46,1.1.73-.4.37-.74.84-1.21,1.07-.2.09-.64-.32-1.26-.66Z"/><path class="cls-1" d="m76.58,227.95c-.92.5-1.36.88-1.84.94-.29.03-.94-.59-.89-.69.21-.46.53-1.09.93-1.17.38-.08.89.43,1.81.93Z"/><path class="cls-1" d="m160.02,213.89c-.72.51-1.18,1.08-1.57,1.04-.41-.05-1.05-.7-1.04-1.07.02-.39.65-1.02,1.06-1.06.39-.04.84.55,1.55,1.09Z"/><path class="cls-1" d="m157.47,234.85c.68.64,1.16,1.09,1.64,1.54-.29.22-.67.68-.85.61-.5-.18-.97-.55-1.34-.94-.09-.09.26-.59.56-1.2Z"/><path class="cls-1" d="m165.07,237.09c-.41-.83-.77-1.29-.82-1.78-.03-.29.46-.62.71-.93.29.44.7.85.84,1.34.08.26-.32.65-.73,1.37Z"/><path class="cls-1" d="m119.03,50.86c-.46.39-.86.72-1.25,1.04-.21-.33-.67-.76-.59-.98.18-.49.64-.87.99-1.29.23.34.46.67.85,1.23Z"/><path class="cls-1" d="m159.21,191.64c.91,0,1.83,0,2.74,0l-.05.03c-.21.53-.43,1.06-.65,1.59-.67-.55-1.33-1.1-2-1.65l-.05.04Z"/><path class="cls-1" d="m153.57,203.39c-.41.37-.69.62-.98.88-.32-.38-.63-.75-.94-1.13.32-.21.66-.61.97-.59.3.02.56.47.96.84Z"/><path class="cls-1" d="m95.33,202.26c.77,1.55,1.22,2.09,1.1,2.27-.27.42-.78.77-1.26.92-.21.06-.87-.47-.84-.67.06-.54.39-1.05,1.01-2.52Z"/><path class="cls-1" d="m203.24,99.29c-.81.49-1.33.95-1.93,1.11-.24.06-.66-.53-.99-.82.55-.38,1.07-.82,1.68-1.08.19-.08.6.37,1.25.79Z"/><path class="cls-1" d="m137.89,208.04c.42.62.87,1.02.8,1.25-.15.45-.59.8-.9,1.19-.26-.28-.75-.6-.72-.83.07-.47.44-.9.82-1.61Z"/><path class="cls-1" d="m120.12,219.11c.44.27.77.47,1.1.67l-.79,1.07c-.3-.23-.78-.41-.86-.7-.07-.26.31-.63.55-1.04Z"/><path class="cls-1" d="m247.01,200.53c.28-.02.6-.12.84-.03.62.23,1.22.52,1.78.85.07.04-.11.5-.17.76-.73-.22-1.49-.4-2.2-.68-.22-.09-.33-.44-.49-.68l.23-.22Z"/><path class="cls-1" d="m131.59,224.79c-.66.3-1.29.61-1.96.84-.05.02-.29-.51-.44-.78.62-.34,1.23-.69,1.87-.99.02-.01.26.45.53.93Z"/><path class="cls-1" d="m67.25,33.24c-.16-.55-.5-1.12-.43-1.63.05-.4.56-.85.97-1.02.2-.09.9.37.93.62.05.44-.26.91-.41,1.37-.35.22-.71.44-1.06.67Z"/><path class="cls-1" d="m74.32,253.21c.38.45.81.74.83,1.05.02.25-.51.77-.74.74-.32-.04-.77-.45-.83-.76-.05-.24.4-.59.73-1.03Z"/><path class="cls-1" d="m203.51,138.19c.41.69.8,1.05.74,1.31-.08.35-.47.74-.81.87-.18.07-.84-.44-.8-.56.14-.47.45-.89.88-1.63Z"/><path class="cls-1" d="m45.85,86.21c-.55.2-.89.32-1.22.45-.13-.36-.33-.72-.35-1.09,0-.12.53-.45.62-.38.31.21.53.55.95,1.03Z"/><path class="cls-1" d="m142.36,222.76c.18.35.46.68.48,1.04.01.14-.52.33-.81.5-.15-.38-.34-.75-.43-1.14-.01-.06.42-.22.76-.4Z"/><path class="cls-1" d="m170.15,246.7c-.16-.36-.37-.7-.42-1.05-.02-.11.43-.28.66-.42.2.33.41.64.55.99.02.04-.42.26-.79.48Z"/><path class="cls-1" d="m124.67,251.84c-.1.24-.19.48-.29.72-.23-.11-.59-.16-.65-.33-.07-.17.15-.46.25-.69.23.1.46.2.69.3Z"/><path class="cls-1" d="m108.35,253.91c.18-.17.37-.34.55-.51.17.3.33.59.49.9-.23.1-.51.32-.67.26-.18-.08-.25-.42-.37-.64Z"/><path class="cls-1" d="m121.21,253.59c.15.17.3.33.46.49-.18.12-.36.27-.56.35-.05.02-.27-.2-.26-.23.09-.21.23-.39.37-.61Z"/><path class="cls-1" d="m177.05,253.84c-.14.21-.28.43-.43.64-.16-.19-.35-.37-.47-.58-.03-.06.17-.34.21-.33.24.05.46.17.69.27Z"/><path class="cls-1" d="m133.05,255.75c-.49-.35-.99-.7-1.48-1.05.09-.1.19-.2.29-.3.38.47.76.93,1.15,1.4l.05-.05Z"/><path class="cls-1" d="m109.35,260.25c-.35.14-.66.34-.99.36-.12,0-.27-.4-.41-.61.3-.17.6-.37.92-.47.07-.02.26.38.47.72Z"/><path class="cls-1" d="m90.09,23.7c.18-.15.37-.3.56-.46.19.27.37.55.56.83-.24.08-.51.26-.71.21-.18-.05-.27-.37-.41-.58Z"/><path class="cls-1" d="m145.89,62.08c.34-.17.64-.39.96-.45.12-.02.3.34.46.53-.28.21-.54.46-.85.61-.05.02-.3-.36-.57-.69Z"/><path class="cls-1" d="m179.12,65.11c-.34-.25-.53-.4-.73-.54.24-.26.46-.56.73-.76.05-.04.55.34.52.42-.11.32-.34.59-.53.88Z"/><path class="cls-1" d="m77.01,85.92c.29.58.59,1.17.88,1.75-.37.04-.73.09-1.1.13.09-.64.18-1.27.27-1.91,0,0-.05.03-.05.03Z"/><path class="cls-1" d="m177.78,110.35c-.12.23-.2.62-.36.66-.23.06-.52-.14-.79-.23.13-.24.2-.62.4-.69.19-.08.5.16.75.27Z"/><path class="cls-1" d="m27.86,113.82c-.16.18-.32.35-.48.53-.23-.27-.45-.54-.68-.81.23-.1.49-.3.7-.26.18.03.31.35.47.53Z"/><path class="cls-1" d="m8.36,126.59c-.28.44-.55.88-.83,1.33-.17-.17-.34-.34-.51-.5.44-.28.88-.56,1.33-.84l.02.02Z"/><path class="cls-1" d="m196.45,129.64c.08.24.28.55.19.7-.11.19-.45.25-.69.37-.08-.25-.28-.56-.2-.73.1-.18.46-.24.7-.34Z"/><path class="cls-1" d="m29.7,135.08c.24.11.48.21.72.32-.11.24-.17.59-.36.7-.13.08-.62-.14-.65-.28-.04-.22.17-.49.28-.73Z"/><path class="cls-1" d="m200.42,136.35c-.11.23-.17.58-.35.66-.16.07-.45-.16-.68-.25.11-.23.18-.56.36-.66.15-.08.44.15.67.25Z"/><path class="cls-1" d="m38.81,140.85c-.12-.2-.24-.41-.36-.61.3-.13.61-.25.91-.38.05.23.22.55.13.69-.12.17-.44.21-.69.3Z"/><path class="cls-1" d="m183.34,146.75c.1-.25.2-.5.3-.75.23.12.61.2.66.37.07.2-.14.5-.23.76-.24-.12-.49-.25-.73-.38Z"/><path class="cls-1" d="m207.15,167.18c.45.32.9.63,1.36.94-.17.17-.35.34-.52.52-.3-.46-.61-.91-.92-1.36l.08-.1Z"/><path class="cls-1" d="m228.14,171.99c-.46.3-.92.6-1.4.88-.03.02-.18-.2-.28-.3.41-.34.82-.69,1.23-1.02.14.15.29.3.44.45Z"/><path class="cls-1" d="m201.39,174.66c.18.37.4.7.48,1.07.02.08-.59.43-.61.39-.25-.29-.46-.62-.61-.97-.02-.04.41-.27.74-.49Z"/><path class="cls-1" d="m265.53,184.94c.23.11.56.16.65.34.07.14-.13.56-.29.61-.18.06-.45-.16-.68-.25.11-.23.21-.46.32-.7Z"/><path class="cls-1" d="m246.78,200.75c-.44-.28-.88-.56-1.33-.84.18-.2.37-.39.55-.59.33.4.67.8,1,1.2l-.22.22Z"/><path class="cls-1" d="m121.04,216.24c-.23.09-.46.18-.68.28-.09-.24-.31-.52-.24-.7.06-.16.43-.21.66-.3.09.24.18.49.26.73Z"/><path class="cls-1" d="m111.5,224.96c.23-.33.44-.72.5-.7.32.12.61.33.9.52-.14.21-.31.62-.42.6-.33-.05-.64-.26-.98-.41Z"/><path class="cls-1" d="m201.99,228.93c-.47.43-.76.88-.99.86-.32-.03-.59-.44-.88-.68.18-.2.37-.56.55-.57.35,0,.7.19,1.33.39Z"/><path class="cls-1" d="m98.35,235.75c-.19.16-.38.31-.57.47-.19-.27-.38-.55-.56-.82.24-.08.52-.26.73-.21.17.04.27.37.4.56Z"/><path class="cls-1" d="m161.35,237.51c-.15.19-.29.38-.44.58-.15-.19-.33-.36-.44-.57-.03-.05.17-.32.21-.3.23.07.45.19.67.3Z"/><path class="cls-1" d="m95.77,240.55c-.2.13-.41.26-.61.38-.11-.3-.22-.6-.33-.9.23-.06.55-.25.68-.16.17.11.18.44.26.68Z"/><path class="cls-1" d="m182.37,127.1c-.24.03-.49.05-.73.08.03-.22.04-.45.12-.64.03-.07.34-.12.36-.08.11.2.17.43.25.65Z"/><path class="cls-1" d="m104.24,215.08c-.22.03-.43.07-.65.07-.02,0-.04-.24-.06-.37.22-.03.44-.05.67-.08.01.13.03.25.04.38Z"/><path class="cls-1" d="m191.87,219.68c-.23.03-.46.06-.69.1.03-.24.03-.49.09-.72.02-.05.34-.09.36-.05.11.21.17.44.24.67Z"/><path class="cls-1" d="m14.33,116.5c.16.18.32.35.49.53-.21.12-.42.26-.64.33-.05.02-.27-.23-.25-.27.11-.21.27-.39.41-.58Z"/><path class="cls-1" d="m210.81,233.04c-.1-.24-.34-.55-.26-.7.1-.19.45-.25.7-.36.1.26.2.51.31.77-.25.09-.5.19-.75.29Z"/><path class="cls-1" d="m71.41,233.53c.17-.18.34-.37.5-.55.14.21.31.4.41.62.03.06-.21.31-.25.3-.23-.09-.44-.24-.66-.37Z"/><path class="cls-1" d="m83.27,232.81c.13-.04.28-.15.39-.11.1.03.15.21.23.32-.2.06-.4.12-.59.18,0-.13-.02-.26-.03-.4Z"/><path class="cls-1" d="m143.13,236.19c.12.07.24.15.36.22-.15.18-.28.38-.46.53-.03.03-.23-.14-.34-.21.14-.18.29-.36.44-.54Z"/><path class="cls-1" d="m24.26,91.37c-.24.07-.53.26-.69.17-.2-.1-.27-.43-.41-.66.25-.07.55-.25.74-.17.18.08.25.43.36.66Z"/><path class="cls-1" d="m33.03,91.56c-.15-.19-.31-.38-.46-.57.11-.08.31-.23.33-.21.17.16.31.36.46.55-.11.08-.22.15-.33.23Z"/><path class="cls-1" d="m187.35,129.11c-.15.17-.31.33-.46.5-.09-.2-.21-.4-.27-.61-.02-.06.21-.26.24-.24.19.1.35.25.49.36Z"/><path class="cls-1" d="m212.96,101.95c.03.13.12.28.09.4-.03.11-.19.18-.29.26-.06-.2-.12-.4-.18-.61.13-.02.26-.04.38-.05Z"/><path class="cls-1" d="m104.27,242.08c-.1.25-.2.51-.3.76-.23-.1-.64-.18-.66-.31-.04-.24.16-.52.26-.78.23.11.47.22.7.33Z"/><path class="cls-1" d="m14.04,135.21c-.11.24-.17.56-.35.69-.11.08-.6-.12-.62-.24-.04-.22.09-.61.26-.69.17-.07.47.15.71.24Z"/><path class="cls-1" d="m28.39,106.73c-.14.21-.29.41-.43.61-.15-.2-.33-.38-.43-.61-.03-.08.17-.36.19-.35.23.1.46.23.68.35Z"/><path class="cls-1" d="m190.15,144.83c.16.18.32.36.48.54-.22.12-.43.26-.67.34-.05.02-.27-.25-.25-.3.11-.21.29-.39.44-.58Z"/><path class="cls-1" d="m167.34,65.15c.15.37.3.73.45,1.1-.22.02-.44.05-.66.06.09-.4.18-.8.26-1.2l-.06.04Z"/><path class="cls-1" d="m15.81,109.02c-.23.09-.5.29-.69.24-.14-.04-.19-.41-.29-.63.22-.09.5-.3.65-.24.17.08.23.41.33.63Z"/><path class="cls-1" d="m20.97,170.48c-.24.07-.48.14-.72.18-.02,0-.08-.23-.12-.35.24-.07.48-.14.72-.18.02,0,.08.23.12.35Z"/><path class="cls-1" d="m251.1,170.67c.18.16.35.32.53.48-.2.12-.38.28-.59.36-.06.03-.3-.19-.29-.23.09-.22.23-.41.35-.62Z"/><path class="cls-1" d="m185.06,174.19c-.23-.12-.56-.19-.64-.37s.11-.47.18-.72c.22.11.57.18.64.36.07.19-.11.48-.19.73Z"/><path class="cls-1" d="m180.86,112.12c-.09.26-.18.51-.27.76-.24-.11-.64-.17-.69-.34-.07-.2.16-.5.26-.75.23.11.47.22.71.33Z"/><path class="cls-1" d="m161.95,191.63c-.21-.44-.42-.89-.63-1.34.21-.04.43-.09.65-.13-.02.5-.04,1-.06,1.5l.05-.04Z"/><path class="cls-1" d="m23.87,77.1c.15.16.31.33.46.49-.2.1-.4.23-.61.29-.06.02-.26-.23-.24-.27.1-.19.25-.35.39-.51Z"/><path class="cls-1" d="m95.62,209.32c.12-.21.19-.54.37-.61.16-.07.44.14.66.22-.11.21-.17.56-.32.61-.2.06-.47-.13-.7-.21Z"/><polygon class="cls-1" points="124.4 32.74 124.31 32.46 124.57 32.51 124.4 32.74"/><polygon class="cls-1" points="87.1 37.6 86.8 37.69 86.85 37.43 87.1 37.6"/><path class="cls-1" d="m79.54,44.12c-.09-.08-.19-.17-.28-.25l.62.08c-.12.06-.23.12-.34.17Z"/><polygon class="cls-1" points="97.21 44.38 97.36 44.13 97.46 44.4 97.21 44.38"/><path class="cls-1" d="m202.82,102.89c-.12-.04-.24-.08-.35-.12.13-.14.26-.27.39-.41.09.09.18.19.27.29-.11.08-.21.17-.3.25Z"/><polygon class="cls-1" points="157 55.91 157.11 56.24 156.82 56.19 157 55.91"/><path class="cls-1" d="m200.97,58.64c-.11-.04-.23-.08-.34-.12.12-.13.25-.26.38-.39.09.09.17.18.26.27-.1.08-.2.16-.29.24Z"/><polygon class="cls-1" points="194.05 110.11 194.18 110.49 193.84 110.44 194.05 110.11"/><polygon class="cls-1" points="113.91 72.76 114.19 72.67 114.15 72.93 113.91 72.76"/><polygon class="cls-1" points="67.67 80.03 67.99 79.92 67.95 80.21 67.67 80.03"/><polygon class="cls-1" points="173.87 79.89 173.86 80.21 173.53 80.05 173.87 79.89"/><path class="cls-1" d="m8.35,126.57c.31-.23.62-.46.92-.69.09.17.18.34.28.51-.4.06-.79.13-1.19.2l-.02-.02Z"/><polygon class="cls-1" points="188.62 115.56 188.72 115.86 188.45 115.82 188.62 115.56"/><path class="cls-1" d="m202.81,156.7c0,.11.03.27-.03.32-.09.08-.25.08-.38.11.01-.18.03-.37.04-.55.12.04.25.09.38.13Z"/><path class="cls-1" d="m235.65,202.76c-.1-.04-.28-.07-.28-.11,0-.11.06-.23.11-.34.1.04.2.07.3.11-.05.11-.09.22-.13.34Z"/><path class="cls-1" d="m35.1,147.33c.06.11.11.23.17.34-.19.04-.38.08-.58.12.02-.13.01-.29.08-.38.06-.07.21-.06.33-.08Z"/><path class="cls-1" d="m207.07,167.28c-.37-.11-.74-.23-1.11-.34.13-.17.25-.33.38-.49.27.24.54.49.81.74l-.08.1Z"/><path class="cls-1" d="m34.06,169.66c-.08-.1-.15-.2-.23-.29.17-.08.34-.16.5-.24.02.13.09.28.05.38-.04.09-.21.11-.32.16Z"/><path class="cls-1" d="m180.46,148.74c-.09.06-.19.13-.28.19-.08-.14-.15-.29-.23-.43.12-.02.25-.07.34-.03.08.03.12.17.17.27Z"/><path class="cls-1" d="m142.07,212.39c-.22.15-.44.31-.66.46.23-.14.46-.28.7-.42,0,0-.04-.04-.04-.04Z"/><polygon class="cls-1" points="223.41 217.55 223.41 217.23 223.75 217.39 223.41 217.55"/><polygon class="cls-1" points="220.42 221.84 220.79 221.7 220.74 222.05 220.42 221.84"/><polygon class="cls-1" points="140.14 226.52 140.15 226.25 140.42 226.39 140.14 226.52"/><path class="cls-1" d="m189.37,230.94c-.21.1-.41.23-.64.29-.05.02-.16-.18-.24-.28.21-.1.41-.23.64-.29.05-.02.16.18.24.28Z"/><polygon class="cls-1" points="145.35 231.8 145.69 231.68 145.65 231.99 145.35 231.8"/><path class="cls-1" d="m190.29,136.99c.1.04.28.07.29.12.01.11-.04.25-.12.32-.05.04-.2-.06-.3-.1.04-.11.09-.23.13-.34Z"/><polygon class="cls-1" points="91.32 232.85 91.33 232.59 91.59 232.73 91.32 232.85"/><path class="cls-1" d="m176.53,238.17c-.11.07-.23.2-.34.2s-.21-.15-.32-.23c.22.01.44.02.66.03Z"/><path class="cls-1" d="m106.15,246.21c-.03.09-.06.24-.09.24-.09,0-.21-.04-.28-.11-.03-.02.05-.16.09-.25.1.04.19.08.29.11Z"/><path class="cls-1" d="m83.81,255.32c-.1-.21-.21-.41-.27-.63-.02-.06.17-.16.26-.25.1.21.21.41.27.63.02.06-.17.17-.26.25Z"/><path class="cls-1" d="m36.74,192.66c-.08-.1-.15-.2-.22-.3.17-.08.33-.17.5-.25.02.13.08.28.04.38-.04.08-.2.11-.31.17Z"/><polygon class="cls-1" points="176.38 98.54 176.21 98.78 176.43 98.59 176.38 98.54"/><path class="cls-1" d="m64.38,190.73c-.06.11-.13.23-.19.34.06-.12.12-.24.18-.36,0,0,.01.02.01.02Z"/><polygon class="cls-1" points="191.77 171.77 191.94 171.58 191.73 171.74 191.77 171.77"/><polygon class="cls-1" points="133.01 255.79 133.23 255.97 133.05 255.75 133.01 255.79"/><polygon class="cls-1" points="71.12 257.29 71.04 257.03 71.27 257.06 71.12 257.29"/><path class="cls-1" d="m164.81,146.45c-.43.55-.76.97-1.1,1.4-.24-.26-.72-.62-.67-.77.2-.52.59-.96.91-1.43.24.23.49.45.85.79Z"/><path class="cls-1" d="m155.01,141.44c-.12.07-.31.22-.35.19-.18-.15-.32-.35-.48-.53.24-.02.49-.06.73-.04.04,0,.07.24.1.38Z"/></svg>