<?xml version="1.0" encoding="UTF-8"?><svg id="assets-to-send" xmlns="http://www.w3.org/2000/svg" viewBox="0 0 313.8 285.69"><defs><style>.cls-1{fill:#ec404c;}</style></defs><path class="cls-1" d="m194.7,56.7c.77-.33.65-1.79.65-1.79,0,0-1.95-1.55-2.45-.74-.49.81-1.22,1.63-.49,2.61.74.98,1.71.17,2.29-.08Zm-14.75-19.81c1.96.81,3.42,2.36,5.3.98,1.88-1.39,2.37-2.54,1.8-3.19-1.19-1.35-.9-.49-2.61-3.59-1.71-3.09-.25-4.24-2.69-4.72-2.44-.49-3.18-1.8-4.15.24-.98,2.04-1.55,1.95-.81,3.99.74,2.04,1.22,5.46,3.17,6.28Zm22.09,19.57c1.39.08,1.96.41,3.83-.16,1.74-.53,2.36-1.96,2.69-3.51.33-1.55.57-2.6.57-2.6,0,0-.41-1.72-1.14-2.69-.73-.97-.41-1.54-2.04-2.37-1.63-.81-3.75-1.79-5.05-1.06-1.3.73-3.91,2.12-4.15,4.4-.25,2.28.08,3.99,1.79,5.79,1.71,1.79,2.12,2.12,3.5,2.2Zm9.45-7.42c.81.5,2.29.57,3.43.41,1.14-.17,2.53-1.22,3.91-2.53,1.38-1.31-.07-2.45,1.55-3.1.41-.17,1.22-.41,2.2-.58.98-.16,1.14-.49,1.63-1.13.49-.65.98-.9,1.71-.74.74.16.98.82.98,1.47s3.26.33,4.89.81c1.63.49,2.45.08,4.65-.9,2.2-.98.74-1.22,2.28-4.24,1.55-3.01.33-3.1.49-4.98.16-1.87-.74-1.22-1.79-2.44-1.06-1.22-2.45-1.3-3.91-1.71-1.47-.41-1.88-.89-3.26-.66-1.38.25-1.14,1.31-2.12,1.88-.98.57-3.02,2.37-3.02,2.37,0,0-.65,2.04-.65,3.02s-.57,1.3-.89,1.71c-.33.41-.49.33-1.96.66-1.47.33-1.22.65-1.39,1.39-.17.73,0,1.06-.73,1.47-.73.41-1.63-.49-2.53-1.06-.89-.58-1.39-1.31-1.71-1.39-.32-.08-1.3,0-1.55.66-.24.65-1.06,1.22-1.63,1.79s-.73.81-.98,1.79-1.22,1.31-1.63,2.21c-.41.9.08,1.79.33,2.44.25.66.89.9,1.71,1.39Zm29.67-16.63c.89.41,1.8.41,2.28.17.49-.24,2.04-1.96,3.02-2.85.98-.89,1.46-.32,2.28-.98.81-.65,1.14-.65,2.29-1.22,1.14-.57,1.87-.57,3.42-.73,0,0,.65-.08,1.79.41,1.14.49.74.25.74,1.06s-1.96,1.95-2.45,1.95-.16.74.25,1.06c.41.33,1.14.16,2.04-.49.89-.65,1.3-.41,1.06.65-.25,1.06.65.9.73,1.47.08.57,1.14.49,1.79.08.65-.41.33-.65,0-1.22-.33-.58-.33-.98.33-2.28.65-1.3.98-.58,3.34-1.15,2.37-.56,2.21-.89,4.24-2.04,2.04-1.14,2.77-3.09,4.48-5.86,1.71-2.77,1.96-8.23,1.23-9.29s-1.88-2.61-3.1-3.75c-1.22-1.15-4.16-1.06-5.87-1.96-1.71-.9-4-.66-5.95-.66s-2.86,1.64-3.67,1.96c-.81.33-2.53,2.28-2.77,3.1-.25.82-1.06,2.04-1.55,2.53s-.16,1.79-.41,2.61c-.24.81-.98.73-1.14,1.71-.17.98.49,1.06.81,1.71.33.65.33,2.37,0,3.42-.33,1.06-.81,1.31-1.06,1.71-.25.41-.57.82-1.88,1.39s-.41.41-1.14,1.63c-.74,1.23-.81.66-2.04,1.47-1.22.82-2.37.41-2.37.41,0,0-1.3.32-1.71,1.06-.41.73-.65,1.38-.49,2.03.17.66.58.5,1.48.91Zm17.95,11.54c-2.74,0-5.72-.45-6.17,2.06-.45,2.51,1.37,5.72,2.74,5.94,1.37.23,3.2.46,4.12.69,2.59.65,3.2-1.6,2.74-4.35-.46-2.74-.69-4.35-3.43-4.35Zm14.11-4.98c-2.05.53-2.43-1.37-4.4,0-1.97,1.37-1.59,2.12-1.97,3.34-.38,1.21-.61,1.82.53,1.9,1.14.07,2.96.07,3.72-.16,1.4-.42,1.37-.68,2.05-1.74.68-1.07.61-1.6,1.06-2.2.45-.61,2.35.3,3.03.68.69.37,1.74.76,3.27,0,1.52-.76,1.52-1.22,1.97-1.67.46-.46,1.52-1.9,2.2-2.05.68-.16,2.42-1.29,3.41-1.52.99-.23,2.05-1.9,1.22-1.9s-2.27,1.07-3.19,1.29c-.91.23-2.2.77-2.65,1.07-.46.3-.76.98-1.6.45-.83-.53.08.08-2.2-.6-2.28-.68-2.35-1.6-4.18-.38-1.83,1.21-.24,2.97-2.29,3.49Zm-5.54,6.07c-.61-.15-.98-.23-1.44-.15-.45.07-.99.22-.84.53.15.3-.07,1.22.31,1.74.38.53,1.14,1.06,2.27.45.48-.25.61,0,.53-.98-.08-.99-.23-1.45-.84-1.6Zm2.73,3.64c.31.31,1.29.23,1.29.23.23-.31-.08-1.14-.08-1.14,0,0-1.52.61-1.22.91Zm5.16.61c-.45.46-1.37,1.29-.61,1.6.76.31.98-.07.98-.07.53-.3.92-.53.76-1.06-.15-.53-.68-.91-1.14-.46Zm-2.58,4.93c-.38.53-.22.98.38.98s-.15.24,1.06-.45c.59-.34-.23-1.37-.23-1.37,0,0-.84.3-1.21.83Zm19.05-19.96c1.6.99,1.9,1.45,3.49,1.14,1.59-.3,2.66-.53,2.96-.91,1.56-1.95,1.67-3.26,1.67-3.26,0,0-2.28-3.79-4.55-3.5-2.28.31-4.48.99-4.63,2.66-.15,1.67-.53,2.88,1.06,3.87Zm9.76-6.08c.84,0,.99.15,1.22-.31.43-.85.76-2.05,0-2.2-.76-.16-1.75.08-1.9.99s-.16,1.52.68,1.52Zm5.23-2.66c.23,0,.8-.22,1.06-.45.57-.49.68-.91.08-1.06-.61-.16-.68,0-1.14.37-.45.38-.23,1.13,0,1.13Zm-123.53,111.48c-2.79,1.11-6.92,2.12-4.8,5.36,2.12,3.24,3.24,4.69,5.59,5.03,2.34.33,3.46.55,4.91-.34,2.81-1.73,4.36-2.8,2.9-5.48-1.45-2.68-5.81-5.69-8.6-4.57Zm4.24-13.74c-3.58,0-4.91,3.46-2.57,6.26,2.34,2.79,4.24,3.8,6.14,3.35,1.77-.42,4.91-2.46,3.58-6.48-1.34-4.02-3.58-3.12-7.15-3.12Zm-116.48,43.27c-2.06,1.43-3.09,1.48-4.06,2.17-.97.69-3.2,3.94-4.12,6.46-.92,2.52-1.66,3.94-2.11,4.97-.46,1.03-1.26,2.06-2.23,2.4-.97.35-3.03.52-3.14,1.78-.11,1.26.46,1.43-.51,3.2-.97,1.78-1.2,1.66-2.57,2.86-1.37,1.2-1.08.63-2.52,1.77-1.43,1.15-2.63,2.01-2.57,3.37.06,1.37.69,1.48,1.72,1.66,1.02.17,1.65-1.2,2.96-2.29,1.32-1.08,1.95-1.77,2.35-2.63.4-.86,1.08-1.89,2-2.8.91-.92,1.95-2.92,2.68-3.03.75-.12,3.03.57,4.91.28,1.89-.28,3.66-2.23,2.8-3.83-.85-1.6-2.34-.06-2.97-.23-.63-.17-.97-1.14-.57-1.37.4-.23,2.8-2.8,4.8-5.43,2-2.63,7.09-9.14,9.32-11.26,2.23-2.12,5.88-5.48,7.82-7.94,1.95-2.46,2.86-4.52,4.18-5.49,1.32-.97,4.23-4.97,4.86-5.55.63-.58,3.54-.74,3.94-.23.4.51.75.17.23,1.03-.52.86-2.97,5.43-4.35,6.11-1.37.69-1.82,1.43-3.37,2.92-1.54,1.49-4.12,3.49-4.98,4.29-.86.8-3.49,3.38-4.63,5.21-1.14,1.82-2.23,3.15-1.6,3.49.62.34,3.43-2.74,4.46-3.43,1.02-.69,4.68-3.72,5.09-4.46.4-.74,3.48-3.94,4.45-4.4s2.12-1.37,2.57-1.77,1.09-1.2,1.37-.8c.28.4.68,1.2.51,1.82-.17.63.58,2.06,2.29,2.92,1.72.86,2.91,1.25,6.51.23,3.61-1.03,3.61-2.4,4.06-3.09.45-.69.4-2.34.18-3.03-.24-.68-.18-.97.34-1.03.52-.06,1.37-.06,2.12-.35.74-.29,2.81-1.02,3.38-1.02s1.08-.29,2.63-.58c1.54-.28,2.23-.79,2.8-1.02.57-.23,2.34-.62,2.57-1.94.23-1.32.23-2.29,1.03-2.57.79-.29,3.2-2.86,3.78-2.86s1.48-1.26,1.88-1.43c.4-.17,2.52-.23,3.6-.52,1.09-.29,2.86-2.4,3.72-3.31.86-.92,1.72-.79,3.26-1.2,1.55-.4,4.52-2.17,4.75-.75.22,1.43-.97,2.98-.92,3.78.06.8.29,2.4-.11,2.98-.4.57.35,3.19.23,3.88-.11.69,1.14,2.98,2.57,3.78,1.43.8,2.81,1.03,5.09-.23,2.29-1.26,6.06-6.17,5.37-10.63-.68-4.46-2-3.6-2.85-4.35-.86-.75-1.83-2.12-3.03-2.17-1.2-.06-1.94.68-2.69.11-.74-.58-.91-.8-.4-1.94.51-1.14,1.49-1.77,2.06-2.12.57-.34,4-3.03,4.74-2.86.75.17,1.14.46,1.83-.17.69-.63.51-2,1.37-2.35.86-.34,3.71-2.29,5.15-2.51,1.43-.23,4.51-1.71,5.32-1.78.8-.06,2.06.35,3.31.51,1.26.17,4.06.8,5.26.34,1.2-.45,2.8-1.66,3.94-1.88,1.14-.23,2.75-1.38,3.32-1.32.57.06,2.52.68,3.71.97,1.2.28,3.95-.06,4.29-.8.34-.75.97-1.6.45-2-.51-.4-1.6-.74-1.43-1.37.17-.63.18-.46-.4-1.2-.58-.74-.8-.69-1.72-.92-.92-.23-1.89-.79-1.66-1.95.23-1.14,1.2-2.17,1.6-1.83s1.66,1.14,1.95.52c.28-.63.45-1.26,1.14-1.37s1.28.33,1.84.53c1.82.68,5.03.33,6.7-1.79,1.68-2.12,4.8-6.14,1.12-8.6-3.68-2.46-7.81-4.13-10.49-2.68-2.68,1.45-4.03.89-5.81,3.9-1.79,3.02-1.79,5.25-3.46,4.03-1.68-1.23-4.58-1.9-6.93-1.34-2.34.55-6.47,1.79-8.82,5.69-2.35,3.91-2.01,4.7-1.12,5.7.89,1-1.45,1-3.24,4.02-1.79,3.02-1.11,2.8-4.02,3.46-2.9.67-3.91.67-5.14,1.68-1.22,1-3.8,5.13-5.92,4.58-2.12-.56-4.36-1.45-6.7.34-2.35,1.78-2.68,5.36-4.24,6.47-1.56,1.11-2.01,0-4.24,1.68-2.24,1.67-1.68,3.57-3.12,4.91-1.45,1.34-.16,1.86-1.14,2.29-.98.43-.68.22-2.15.65-1.46.43-1.46,1.41-2.14,1.89-.68.47-1.28-.38-2.27.13-.98.51-1.58,0-2.27.51-.68.51-1.03,1.76-1.41,2.1s-.65.55-1.37.25c-.72-.3-2.1-.6-2.65-.25-.56.34-.38.51-1.94,1.15-1.54.64-2.01.94-3.09.9-1.08-.04-1.51.81-2.57.34s-.94-.3-1.93-.77c-.98-.47-1.46-.43-1.46-.43,0,0,.43-1.29,2.35-2.14,1.94-.86,2.53-1.16,3.26-2.15.73-.99,2.61-4.12,4.37-4.8,1.76-.69,3-.51,4.89-2.23,1.88-1.72,1.67-3.65,3.73-4.16,2.06-.51,2.11.6,3.9-.6,1.8-1.2,2.69-1.76,3.09-3,.38-1.24.21-2.05-.43-3.98-.65-1.93-.68-2.36-1.88-2.27-1.2.08-1.68-.09-1.25-.51.43-.43,2.45-2.79,4.64-3.98,2.19-1.21,2.57-1.51,3.6-2.58,1.03-1.07,2.61-2.1,3.38-2.44.77-.35,2.87-2.96,4.16-3.3,1.29-.34,4.46-1.58,6.69-3.3,2.23-1.72,2.87-3.09,4.03-3.47,1.16-.38,2.14-1.75,3.73-2.49,1.59-.73,2.87-1.33,4.5-2.53,1.63-1.2.65-.81,2.49-1.24,1.84-.43,3.09-1.25,3.6-1.8.52-.55,1.12-.38.94-.13-.17.26.22,1.07-.43,1.46-.65.38-.94,1.46-.77,2.4.17.94,1.2,3.22,3.82,1.89,2.61-1.33,2.23-3.09,1.72-3.85-.51-.78-1.84-1.21-2.53-1.37-.69-.18-1.63-.56-1.33-.98.29-.43-.13-.47.51-.86.64-.39.9-.51,1.54-.94.65-.43,1.8-1.54,3.52-2.27,1.71-.73,3.43-1.8,4.89-2.32,1.46-.51,3.3-1.03,5.92-2.61,2.61-1.58,4.97-2.23,6.95-3.38,1.97-1.16,4.24-2.92,6.73-3.86,2.49-.94,5.45-3.86,6.35-3.9.9-.05,3.47-.91,7.68-2.62,4.2-1.71,6.52-3.64,9.47-4.63,2.96-.98,6.3-2.01,7.16-2.23s2.14-.82,5.53-.34c3.39.47,7.93,1.88,10.93-3.65,3-5.53,1.63-9.13-1.59-10.5-3.21-1.37-5.4-1.76-9.56-1.03-4.16.73-5.92,2.36-6.3,4.58-.38,2.24-2.4,5.11-3.21,7.33-.81,2.24-1.07,2.14-2.57,2.49-1.5.35-5.32,1.76-6.64,2.53-1.33.77-1.89.51-3.64.86-1.76.34-4.55,2.44-6.3,3.25-1.76.81-5.27,2.06-6.86,2.53-1.59.48-2.79,1.42-4.93,2.7-2.15,1.29-3.6,1.89-4.93,1.84-1.32-.05-2.57-.05-3.04-.68-.47-.65-2.23-1.12-3.09-1.46-.86-.34-2.27-.73-3-1.03-.73-.3-.86-.3-1.8-.69-.94-.38-1.63-.6-1.84-.08-.22.52.13.9,1.5.94s3.6.65,4.12.81c.51.17,2.19.73,3,1.24s.9.31,1.07,1.2c.17.9-.38,1.11-.9,1.8-.51.68-1.76,1.55-2.36,1.46-.6-.08-1.5-.38-1.71.05-.22.42-.94.98-2.06,1.75-1.12.77-1.67.94-3.14,1.84-1.46.9-1.67.94-3.09,1.72-1.41.77-3.09,1.71-3.82,2.44-.73.73-1.07.81-1.29-.22-.21-1.03-.13-1.84-1.41-2.14-1.28-.3-1.71-.12-1.97-.86-.26-.73-1.03-1.03-.09-2.49.94-1.46.73-3.25,1.29-3.3.56-.04,1.63-.08,1.67-.47.05-.38-.22-1.08.08-1.72.3-.65.35-1.03.65-2.44.3-1.41,1.54-2.27.9-3.17-.64-.91.13-.6-1.75-1.46-1.89-.86-2.96-.29-4.5-1.41-1.54-1.12-2.65-1.24-3.86-1.08-1.2.17-1.58.6-2.87,1.8-1.29,1.2-3.38,2.83-3.6,3.98-.22,1.16-.18,1.63-.18,2.53s-.04,2.14-1.11,4.08c-1.07,1.92-1.45,2.1-1.41,3.43.05,1.32.48,1.58,1.72,2.27s5.83,1.16,6.43,1.16,2.49-.48,2.78.38c.3.86-.04,2.01.26,2.62.3.6.77.94.89,1.66.13.73,0,1.03-.68,1.29-.69.26-1.54.69-2.31,1.37-.77.68-.73,1.41-1.84,1.37-1.11-.05-1.41,1.41-2.1,1.54-.69.12-1.11.51-1.89.94-.77.43-1.84.81-3.09,1.67-1.24.86-3.12,2.62-4.03,3.09-.9.47-.82.3-2.74,1.07-1.94.77-2.83,1.59-3.22,2.23-.38.65-.82,1.63-2.14,2.15-1.33.51-2.24,2.01-2.58,2.57-.34.55-1.46.86-2.57,1.41-1.11.56-1.5,1.08-2.49,1.89-.99.82-2.27,2.32-3.9,3.35-1.63,1.03-.86.98-3.35,1.71-2.49.73-3.21,1.28-5.19,2.01-1.97.73-1.93.81-3.73.51-1.8-.29-1.46-.56-2.49-.94-1.03-.38-1.33-.13-2.44-.55-1.12-.43-2.06-1.07-2.66-1.41s-.91.86-1.8,1.2c-.9.34-2.21.7-3.53.18-1.32-.51-1.08-.68-1.54-1.14-.45-.46-1.03-.46-1.54-1.26-.51-.8-.97-.51-1.26-.92-.28-.4-.06-.97-1.03-1.14-.97-.17-1.09-.45-2.23.28-1.15.75-1.21,1.78-1.03,2.46s.86,1.37.51,1.99c-.34.63-.4,1.43-.97,1.09-.58-.34-2.01-1.65-3.15-2.11-1.14-.46-2.11-.28-3.37-.23-1.26.06-3.31.51-4.28,1.14-.98.63-2.07,2.17-2.86,3.54-.79,1.37-1.03,2.4-1.03,2.97s.17,1.83-.17,2.86c-.34,1.03.57,1.6,1.32,2.06.74.45,1.89.68,2.11,1.43.23.74,1.21.74,2.11,1.6.92.86,2.06.64,2.29,1.6.23.97,1.37,2.06,2.17,1.66.79-.4,2.68-.8,3.14-1.26.46-.46,1.09-1.15,1.83-1.15s1.72-.57,1.95.23c.22.8.45,1.95-.92,3.09-1.37,1.13-.97,1.77-2.97,2.06-2,.28-2.35,1.03-2.4,1.77-.06.74.4,1.37,1.37,1.83.97.45,2,.17,1.37,1.14-.63.97-2.23,2.81-3.2,4.01-.97,1.2-2.74,2.57-3.78,4.05-1.03,1.49-1.83,3.95-3.88,4.92-2.06.97-3.72,2.17-4.92,4.12-1.2,1.96-1.31,3.55-3.37,4.99Zm101.07-5.77c-1.18.55-1.29,2.22-.55,2.96.74.74,2.03.37,2.59.37.93,0,2.47-.93,1.73-1.79s-2.59-2.1-3.77-1.54Zm-5.5,3.96c-1.61-.43-1.92.74-3.03,1.42-1.11.68-2.54,2.03-1.98,3.21.56,1.18,3.77,4.45,7.35,2.17.81-.52,1.55-4.08.37-4.7-1.18-.62-1.11-1.67-2.72-2.1Zm-20.89,4.57c-2.09-1.3-1.85-1.3-4.94-1.67-3.1-.37-5.5,0-7.23,2.04-1.73,2.04-2.96,3.58-1.54,5.62s3.46,3.52,5.31,3.89c1.85.37,3.89.8,5.68.43,1.8-.37,3.03-.55,4.08-1.36,1.05-.8,3.4-2.48,2.66-5.01-.74-2.53-1.92-2.65-4.02-3.95Zm-9.14,10.5c-1.36,0-2.17-.25-2.84.61-.68.86.31,2.59.98,2.84.68.25,1.73.25,2.23,0,1.51-.75,2.47-.62,1.98-1.61-.49-.98-.99-1.85-2.35-1.85Zm-1.86,4.7c-.43.06-1.05.98-.31,1.05.55.04.74-1.12.31-1.05Zm-4.7,2.28c-.8-.31-1.73-.55-2.09-.06-.37.49.13,1.79.93,1.61.87-.2,1.97-1.23,1.17-1.55Zm-4.07-.74c-.24,0-.99.99-.19.99.85,0,.43-.99.19-.99Zm-10.38.68c-.5.25-1.98,1.11-.93,2.04,1.05.93,1.05.75,1.73.8.81.07,1.3-.37,1.3-1.23s-1.61-1.85-2.1-1.61Zm-9.89-5.07c-2.29.25-5.13,1.3-7.6,3.15-2.47,1.86-3.71,4.14-5.19,5.69-1.48,1.54-2.23,1.66-5.18,1.3-2.97-.37-5.69.31-7.23,4.08-1.54,3.77-1.91,5.38-3.52,5.19s-1.66-.37-3.58-.18c-1.92.18-3.4,1.42-2.54,2.41.87.98,1.98.3,2.91.68.93.37,4.07.8,2.96,3.34-1.11,2.53.25,2.35-1.97,3.03-2.23.68-2.17,1.18-2.97,1.6-.8.43-.37-.06-1.36-.31-.99-.25-2.34-.19-3.02.86-.68,1.05-2.22,1.98-.99,2.84,1.23.86,4.51,1.05,5.31.18.8-.86.74-.62,1.23-1.61.5-.99,2.04-1.67,2.91-1.67s3.46.06,4.88-.68c1.42-.74,3.89-.12,6.68-.86,2.78-.75,7.1-4.02,8.9-7.23,1.79-3.21,2.59-3.83,4.07-3.83s3.65,0,4.52-.25c.86-.24,1.98-.43,2.96-1.42,1.26-1.26,3.4-5.44,3.58-7.79.19-2.35.87-2.35-.8-4.76-1.67-2.41-2.66-4.02-4.95-3.78Zm-39.89,43.48c-1.12-.51-4.29.77-6.77,1.46-2.49.68-3.95.51-5.32,3.26-1.37,2.75-2.14,5.83-.6,6.86,1.54,1.03,1.89,3.43,3.6,3.09,1.72-.34,3.77-2.14,4.12-3.09.35-.94.61-2.14,1.03-2.31,2.43-.97,4.46-3.94,4.8-5.32.34-1.37.26-3.43-.86-3.94Zm-9.43,16.98c-.08,1.12-.17,1.46-.77,2.23-.6.77-1.03,1.03-2.23,1.97-1.2.94-1.11,3.34-2.06,4.72-.95,1.37-1.37,2.06-1.37,3.09s-.34,2.06.77,1.29,2.49-2.14,2.83-3.34.94-1.97,1.11-2.49c.18-.51.78-1.54,1.03-1.8,1.28-1.28,1.72-3.52,2.23-4.12.51-.6.25-1.37,0-1.72-.26-.34-1.46-.94-1.55.17Zm-11.06,18.95c-.69.6-1.21,1.29-.78,1.89.43.6,1.47.43,1.72-.17.24-.57,1.63-1.03,1.63-1.8s-.6-1.54-.6-1.54c0,0-1.28,1.03-1.97,1.63Zm-14.49,15.69c-.94.69-.51,1.37-1.46,2.06-.94.68-1.03,2.14-.35,2.14s1.63-1.03,1.89-1.2c1.44-.95,1.63-1.46,1.8-2.15.17-.68-.94-1.54-1.89-.86Zm54.62-56.85c.68.77,1.11.9,1.5.81.73-.16.86-.94.86-.94,0,0-.26-.3-1.2-.48-.94-.17-1.85-.17-1.16.6Zm-4.89,8.53c-.3.22-.94.48-.98.9-.04.43-.47,1.03-.04,1.2.43.17.73,0,.98-.26.22-.22.22-.56.3-.9.09-.34.05-1.16-.26-.95Zm-5.66,12.48c-.43.43-.34,1.37.05,1.41.38.05,1.29.17,1.41-.22.23-.67.22-1.54.22-1.54,0,0-1.24-.08-1.67.35Zm-3.99-64.26c.94-.04,2.06-.09,2.57-.81.51-.73.47-.77,1.11-1.2,1.68-1.12,2.66-1.76,3.13-2.96.48-1.2,1.34-1.63.77-2.06-.55-.43-2.15-.3-3.55.68-1.41.99-1.89,1.67-2.62,2.57-.72.9-1.71.26-1.84,1.72-.13,1.46-.51,2.11.43,2.06Zm-6.78,14.62c-.39-.86-.85-.48-1.63-.86-.77-.38-1.37-.64-2.87.05-1.5.69-2.35,2.74-1.54,3.34.81.6,2.61,1.33,4.12.52,1.32-.72,2.32-2.19,1.93-3.04Zm-9.26,9.73c1.37-.49,2.23-.69,2.32-1.84.08-1.16.22-1.63-1.12-1.72-1.33-.08-1.58-.08-2.78.26s-2.06.9-1.84,2.23c.21,1.33,1.89,1.63,3.43,1.08Zm-12.18,4.8c1.01-.72,2.66-.99,2.83-1.76.18-.77.08-2.45-1.29-2.57-1.37-.12-2.87-.77-3.3.77-.43,1.54-.13,1.93-1.12,2.14-.98.22-.77,1.16-.22,1.41.56.26,1.93.81,3.09,0Zm3.01.77c-1.29.91-1.59,1.76-1.85,1.54-.25-.22-.77.09-1.15-.17-.39-.26-.55-.69-1.46-.51-.91.17-2.15-.17-2.57,1.16-.43,1.33-.09,3.3-.38,3.73-.3.43.17.43-1.2.43s-2.7.73-3.17,1.5c-.47.77-.42,1.76-1.07,2.83-.65,1.07-.98,1.33-.98,1.89s.64,1.84.51,2.66c-.13.81-.94,1.2-.26,1.76.68.56,2.06,1.24,2.49.6.43-.65.68-1.63,1.2-1.76.52-.13,3.47-.94,3.73-1.84.25-.9-.81-2.1-.05-3.35.77-1.24.85-1.2,1.33-1.63.47-.43,1.11-1.37,1.15-1.63.05-.26.69-1.54.69-1.54,1.67-1.72,4.33-4.67,4.2-5.19s.13-1.37-1.15-.47Zm-13.94,9.69c0-.99-.38-1.54-.99-1.93-.6-.38-2.4-.55-3.34.26-.94.82-1.46,1.03-1.24,2.31.22,1.29.98,1.84,1.54,1.84s2.1-.43,2.44-.56c.88-.33,1.58-.94,1.58-1.92Zm-13.59,26.71c-1.46.47-1.58.64-1.72-.17-.12-.81-1.5-.51-2.44-.05-.94.47-1.54,1.03-1.93,1.76s-.94.13-1.25,1.24c-.29,1.12,1.46,1.2,2.53,1.41,1.08.22,1.51.17,2.1-.26,1.08-.77,3.22-1.2,3.86-2.53.65-1.33,1.17-2.66.74-2.87-.43-.21-.43.99-1.89,1.46Zm-5.06-21.78c.17-.65.43-.94-.56-1.76-.98-.81-.38-1.63-1.45-1.33s-1.46,1.46-2.19,2.15c-.72.68-.56.17-1.02.98-.48.81.12,1.41,1.28,1.67,1.16.26,1.97-.13,1.97-.13,1.46-.47,1.8-.94,1.97-1.58Zm3.17-7.63c.43-.02.51-.17.99-.26.47-.08,1.16-.38,1.2-.77.05-.38.22-1.11-1.07-.98-1.29.13-1.67.04-2.1.26-.43.22-.69.34-.38.77.3.43.73,1.03,1.37.98Zm29.71,4.76c1.63,0,3.08.22,3.9.3,1.37.15,3.04,0,4.16-.3,1.11-.3,2.06.38,2.4.68.34.3,2.44,1.63,2.83,1.33.39-.3,1.33.6,1.46.17.12-.43.34-.73-.05-1.24-.38-.51-.94-.48-.81-1.03.13-.56,1.2-.77,1.08-1.58-.13-.81-.48-1.63-1.46-1.72-.98-.09-.94-.73-2.15-.43-1.2.3-1.58,1.03-2.23.69-.65-.34-.43-.6-.98-.65-.56-.04-1.33.56-1.84.65-.52.08-.99.3-1.24-.09-.26-.38-.61.3-1.89-.17-1.29-.48-1.76-.52-2.79-.13-1.03.39-2.32.77-1.97,1.63.34.86-.04,1.89,1.59,1.89Zm12.6-6.81c-.22.55-.47,1.07.05,1.24s1.16.26,1.5.13c.65-.24,1.07-.43,1.16-.69.08-.26-.38-1.11-.9-1.33-.52-.21-1.58.09-1.8.65Zm-26.15-6.43c-.04.51,1.11.94,1.41.86.46-.13.65-.22.81-.69.17-.48-.3-.65-.86-.81-.56-.17-1.33.13-1.37.64Zm-20.79,3.3c1.88.43,3.08,1.29,5.18.56,2.1-.72,1.76-.38,3.52-1.24,1.76-.86,2.49-1.24,2.87-1.03.38.21.6.81.9.86.31.04,1.46.13,1.46.13.98-.05,1.67-.05,2.27-.43.6-.39-.04-1.11-.04-1.11,0,0-2.7-1.33-3.39-1.37s-1.37.47-1.71.56c-.35.09-.99-1.12-1.51-1.46-.51-.34-2.32-1.37-3.6-1.63-1.29-.26-2.79-.65-5.36.17-2.57.81-3.81,2.49-3.29,3.73.51,1.23.81,1.83,2.7,2.26Zm24.99-13.03c0-.56-.9-1.67-1.54-2.18-.64-.51-2.7-1.07-3.43-.56-.73.52-.94,1.5-1.59,2.36-.65.86-1.07,1.72-.65,2.06.43.35,2.1,1.72,3.95,1.16,1.37-.42,3.26-2.27,3.26-2.83Zm-26.71-11.01c.51,1.03,2.06,2.57,4.63,2.57s6.52-1.37,7.03-1.88c.94-.95,3.09-3.77,3.6-6.17.51-2.4,2.58-4.63.17-4.63s-3.26,1.2-4.29-.17c-1.02-1.37-4.63-2.23-4.63-2.23,0,0-2.23-.86-4.45,2.57-2.24,3.43-2.58,8.92-2.06,9.95Zm44.07-54.08c-1.03,1.03-4.57,4.57-5.26,5.49-.69.91-1.49,1.37-1.94,1.03-.46-.34-1.26-.11-2.06.11-.8.22-1.49.35-2.06-.11-.57-.46-1.95-.34-2.4-.57-.46-.23-1.94-.8-2.75-.8s-1.83-.23-1.83-.23c0,0-.18.11.12.33.3.22,1.2.3,1.8.43.6.13,1.84.55,2.14.77.31.22.82.38,1.33.34.51-.05,1.67.38,1.67.38,0,0,1.07.09,1.37.18.3.09.81-.04,1.33.17.52.22,1.21.13.98.51-.22.38-.9.86-.77,1.33.12.47.12,1.11.12,1.11,0,0-.38,1.11-.05,1.41.35.3.73.08.65.77-.09.68.17,1.2.12,1.5-.05.3-.12.81-.51.81s-1.12-.13-1.93-.29-2.14.39-2.14.73-.47.43-.47.43c0,0-1.54.56-1.75,1.03-.22.47-.69.94-.26,1.15.43.22.94.39,1.63.09.69-.3,1.63-.13,1.63-.13,0,0,.26,1.08.05,1.25-.22.17-.43.68-1.2.64-.77-.05-1.63-.13-1.98-.05-.34.09-.72.39-.94.65-.22.26-.56-.04-.69-.21-.13-.17.34-.56.43-.9s-.38-.98-.38-1.2.34-1.2-.26-1.29c-.6-.09-.81-.17-1.29-.6-.47-.43-1.88-.34-2.92,0-1.03.34-2.49.68-2.36,1.84.13,1.15.35,1.93.17,2.18s-.38.64-.38.64c0,0-.13,1.33.43,1.5.56.17,1.07.17,1.84-.08.78-.26,1.34-.99,2.02-.82.69.17,1.29.38,1.8.22.52-.17.81-.6,1.24-.22s.21.99-.22,1.25c-.43.26-1.45.86-1.45.86,0,0-.73.56-1.89.34-1.15-.21-1.66-.09-1.8.22-.13.3-.05.98-.51,1.54-.47.55-.9,1.41-1.89,1.59s-1.42.65-1.8.3c-.38-.35-1.12-.3-1.41-.13-.3.17.26,1.93.26,2.44s.13.98-.56,1.5c-.68.52-.9-.3-1.46.81-.55,1.12-.98,1.46-1.24,1.25-.26-.22-.82.6-1.37.6s-.94.65-1.16,1.2c-.22.56-.55.81,0,1.29s2.31,1.2,2.62,1.93c.3.73.42.47.56,1.32.12.86.6,2.19.94,2.49.35.29,1.17,1.54,1.25,2.01.08.48.47.77.73.98.26.22,1.03.38.86,1.03-.17.65-1.37,1.37-1.12,2.1.26.73,2.06,1.5,2.32,1.5s1.89.39,2.27.69c.38.3,1.54.9,2.82.94,1.29.04,2.15.56,2.92.69.77.13,1.28.86,1.07,1.33-.22.47-.04,1.03-.86,1.07-.81.05-.73-.38-1.5-.09-.77.3-1.41.77-1.15,1.2.25.43,2.95.43,2.99.3.05-.13.35-.51.91-.6.55-.09,1.37.08,2.01-.13.64-.22.85-.43,1.5-.98.65-.56,1.54-1.2,2.57-1.76s2.32-1.54,2.83-2.31c.52-.77.74-1.71.74-1.71,1.83-4.12-.34-2.75,2.29-9.61,2.63-6.86,2.97-9.49,2.97-9.49,0,0,.35-3.31,1.03-3.88.68-.57,1.37-.11,3.08-1.37,1.72-1.26,2.52-.69,3.78-2.63,1.25-1.94-1.14-3.32-.69-4.8.46-1.49,2.86-1.72,3.32-2.85.46-1.14,1.72-1.83,2.86-3.32,1.14-1.49.92-1.37,1.49-2.86.57-1.48,1.71-1.82,2.17-2.75.46-.92.92-3.2.92-4s.57-2.28-.23-2.51c-.8-.23-2.29-.8-3.32.57-1.03,1.37-4,.23-4.69,0-.68-.23-1.82-.46-2.86.57-1.03,1.03-1.94,1.14-1.94,1.14,0,0-2.06,2.4-2.17,1.6-.11-.79-.23-2.17.12-2.51.34-.34,1.14-1.14,1.71-1.82.57-.69,1.61-2.06.57-1.95-1.03.11-2.75,2.17-3.2,2.51-.46.33-1.26.33-2.29,1.37Zm-21.18,5.59c.38,0,.72-.6,1.11-.6.25,0,.13-.51-.34-.98-.48-.47-1.24-1.08-1.54-.85-.3.22-.73.43-.22,1.37.51.95.6,1.07.99,1.07Zm-13.51,4.5c1.12.38,2.4.26,2.96.17,1.2-.18,2.14-2.36,2.14-2.36,0,0,.21-2.66-1.03-2.7-1.24-.04-3,.94-4.2,1.93-1.19.99-.98,2.58.13,2.96Zm-2.05-10.72c.43-.08.55-.38.55-.38.3-.38,1.71-.77,1.29-1.29-.43-.51-1.08-.81-2.32-.81s-2.31.65-1.63,1.29c.69.64,1.67,1.28,2.1,1.2Zm-8.92,12.69c.35.04.43-.43.26-.56-.68-.51-1.12-.86-1.59-.86s-.65.56-.43.73c.22.18,1.41.65,1.75.69Zm19.51,10.59c.09-.39,0-.69-.68-.56-.69.13-1.59-.13-1.54.38.05.51.6.65.94.6.65-.08,1.21-.04,1.29-.43Zm-4.2,1.2c.25-.03,1.11-.25.85-.64-.25-.39-.29-.3-.94-.22-.65.09-.86.86-.52.91.34.04.31,0,.6-.05Zm-3.47.9c.34-.22.56-.43.31-.51-.26-.08-.61.04-.65.26-.04.21.34.26.34.26Zm-5.57.99c.41-.07.94-.38.43-.47-.51-.08-1.07-.17-1.03.17.04.34.34.34.6.3Zm-2.87.77c.35.07.81-.25.77-.56-.05-.3-.68-.3-1.03-.13-.34.17.04.65.26.69Zm-1.98-.26c-.38-.05-.43.46-.3.51.4.14.69-.47.3-.51Zm-1.41.81c.26-.12.13-.43.13-.43,0,0-.56.43-.34.43h.21Zm-2.66.69c.22-.04.35-.17.35-.17.38-.25.13-.47-.13-.38-.26.08-1.08.22-.91.43.17.21.48.17.69.12Zm140.24-72.8c1.04-1.05,1.88-2.4,1.54-2.91-.35-.51-3.95-.17-4.46.34-.51.52-1.37,2.4-.51,3.09.85.69,2.91,0,3.43-.52Zm-15.08,30.02c2.75-.52,4.98-3.6,5.66-5.83.86-2.81-.17-7.04-.17-7.04,0,0-6-4.62-7.89-4.11-1.88.51-3.43,3.26-4.97,6.17-1.54,2.92-1.2,5.14.68,7.37,1.89,2.23,3.95,3.95,6.69,3.44Zm-11.33-12.86c.83-.76,1.63-1.03.77-1.8-.86-.77-1.37-1.41-2.23-.86-.86.55-1.8.9-1.15,1.8.64.9,1.71,1.67,2.61.86Zm-11.52,12.48c1.24.65,3,1.5,3.81,1.24.81-.25,1.59-.55,1.89-1.41.35-1.01-.17-3.25-.17-3.25,0,0-1.46-5.36-4.46-4.21-3,1.16-3.81,3.17-3.21,4.59.6,1.42.9,2.41,2.14,3.05Zm-4.51-17.55c-.08,1.46.9,1.84,1.58,1.46.79-.44,1.37-.38,1.33-.94-.04-.55-.65-.94-1.41-1.28-.77-.35-1.41-.69-1.5.76Zm-2.23-7.2c1.11.39,1.63.81,3.13-.05,1.32-.76,1.84-4.29,1.29-4.75-.56-.48-3.3-2.49-4.68-1.68-1.37.81-1.66,2.57-1.75,3.95-.08,1.37.91,2.14,2.02,2.53Zm-6.17,1.75c.5-.16,1.33-1.11,1.07-1.63-.26-.51-.56-1.02-1.46-.77-.91.25-1.37.65-1.08,1.37.3.74.9,1.2,1.46,1.03Zm-5.66,7.29c.81,0,.68-.22.6-.6-.1-.49,1.16-1.5.26-1.67-.91-.18-2.23.08-1.97,1.07.26.98.3,1.2,1.11,1.2Zm96.73-39.77c-.73-.08-2.04-.32-3.42-.41-1.39-.08-1.8.49-2.53,1.14-.73.65.33,2.04.33,3.26s1.71,1.63,2.93,2.12c1.22.49,2.61,1.22,3.43,1.06s2.85-1.87,2.94-3.18c.07-1.3-1.43-3.75-3.68-4Zm-3.42-8.72c-1.96-.08-1.8,1.47-1.8,2.93s-.16,1.63,1.55,2.44c1.71.82,2.69.82,4.24.57,1.45-.23,2.37-.9,1.71-2.11-.65-1.23-.08-1.39-2.61-2.45-2.52-1.06-1.14-1.31-3.09-1.39Zm3.67-10.11c-.41-.65-1.14-1.31-1.55-.81-.41.49-.41,1.54.49,1.71.57.1,1.47-.24,1.06-.89Z"/></svg>