<?xml version="1.0" encoding="UTF-8"?><svg id="assets-to-send" xmlns="http://www.w3.org/2000/svg" viewBox="0 0 280.23 145.09"><defs><style>.cls-1{fill:#ec8c4e;}.cls-2{fill:#ec5538;}</style></defs><path class="cls-1" d="m213.71,128.95c.45.07,7.74.82,8.2.91.17-.11-1.01,11.71-17.21,7.35-2.84-.76-5.29-2.6-6.76-5.14,0-.01-.02-.03-.02-.04-3.96-6.84-7.92-13.68-11.85-20.54-.6-1.05-1.07-2.16-1.6-3.24-.29-.6-.69-.78-1.34-.76-1.84.04-3.68.04-5.52.03-1.03,0-3.02-.13-3.97-.54.09.08,0,0,0,.93.02,2.63,0,5.25-.13,7.87-.29,5.79.16,11.59-.12,17.38-.05.95.41,5.56-.7,5.51-3.02-.14-6.01-.75-9.01-.41-2.56.29-5.12.56-7.69.81-.37.04-.83.17-1.08-.2-.27-.41.04-.77.24-1.14.64-1.18,1.86-1.61,2.97-2.03,1.53-.59,2.05-1.68,2.15-3.11.15-2.08.26-4.17.32-6.26.11-3.58.34-7.17.82-10.72.84-6.18.88-12.4.92-18.61.01-1.46-.83-15.07-1.12-20.36-.06-1.04-.44-6.17-1.3-7.51-.42-.66-.72-1.35-.87-2.11-.18-.89.29-1.43,1.21-1.33.48.05.97.2,1.43.36,2.59.93,3.59,1.27,6.17,2.23,1.98.74,3.97.72,6.04.43,6.32-.88,12.66-1.09,18.99.1,1.18.22,2.36.47,3.52.79.64.18,4.02,1.32,4.38,1.5,2.87,1.49,5.56,3.21,7.44,5.92,1.34,1.94,2.43,4,3.22,6.21,1.54,4.31.74,9.05-2.15,12.6-3.81,4.67-8.34,8.26-14.17,10.08-.8.25-.62.66-.36,1.18,1.42,2.93,3.33,5.58,5.04,8.34,2.3,3.73,5.13,7.09,7.81,10.55,1.54,2,3.75,2.62,6.11,2.95Zm-11.7-38.82c.37-2.62-.27-4.42-1.47-6.06-2.22-4.08-11.58-5.36-12.3-5.35-3.89.05-7.77.32-11.66.5-.72.03-3.73-.21-3.7,1.66-.04,1.42,0,16.96.75,16.96,3.89,0,25.89.76,28.38-7.71Z"/><path class="cls-1" d="m146.03,102.98c.2,7.43-.67,14.7-3.27,21.71-2.8,7.56-5.32,10.78-12.12,14.91-4.33,2.63-8.98,2.88-13.72,1.12-1.59-.59-3.19-1.16-4.82-1.66-3.09-.94-5.45-3.01-7.58-5.34-2.54-2.78-8.72-16.2-8.2-34.43,0-1.75-.27-33.87,25.73-34.04,16.32.88,18.8,12.31,20.75,16.76,2.52,5.74,3.12,11.83,3.23,18,.02.99,0,1.98,0,2.97Zm-11.39-1.53c.02-4.2-.64-8.69-1.96-13.07-1.11-3.65-2.5-7.18-4.75-10.3-.4-.55-.79-1.11-1.5-1.29-2.52-.65-9.24-1.14-11.75,2.18-1.53,2.01-3.03,4.64-3.89,6.99-2.99,8.16-3.06,16.5-1.54,24.94.8,4.45,1.71,8.88,3.94,12.88,2.17,3.9,9.49,7,13.06,4.32,1.4-1.05,2.6-2.31,3.62-3.74,4.41-6.13,4.93-14.99,4.78-22.91Z"/><path class="cls-2" d="m233.77,54.35c.07.12.11.25.16.37,0-.17-.05-.29-.16-.37Z"/><path class="cls-2" d="m233.43,54.04c-.07.05-.12.1-.16.16.22.02.39.07.5.15-.07-.12-.17-.24-.34-.31Z"/><path class="cls-1" d="m66.61,81.28c-.67,1.24-1.22,2.23-1.75,3.22-3.52,6.56-7.42,12.95-10.55,19.68-1.56,3.36-5.42,3.96-8.63,1.52-1.12-.85-2.02-1.84-2.73-2.99-4.43-7.12-8.51-14.37-11.86-21.91-.11-.25-.16-.55-.52-.71-.35.22-.23.56-.21.85.4,10.95-.18,21.86-.8,32.76-.32,5.62.17,11.25.16,16.87,0,2.1-.48,4.1-.84,6.13-.09.54-.58.6-1.02.73-2.02.57-4.04.87-6.23.57-2.61-.37-5.26-.26-7.89-.29-1.37-.02-1.44-.18-.77-1.19,1.14-1.71,3.7-2.41,3.75-4.48.12-5.41,1.32-32.85,1.42-40.73,0-28.23-6.83-25.46-6.6-27.84.05-.55,21.86.51,24.62,1.21,2.6.67,4.18,2.11,4.74,4.41.23.97,6.84,14.69,7.98,16.26.4.55.66.69.99-.01,2.22-4.79,10.94-19.05,11.03-19.35,1.01-3.46,15.36-2.34,17.06-2.4.6-.02,6.58.26,5.72,1.12-.79.79-6.99,6.88-5.95,30.28-.39,8.63.42,17.3,0,25.94-.09,1.79-.19,3.57,0,5.37.32,3.17.82,6.3,2.84,9.12.28.39.45.84.61,1.28.2.55.1.77-.69.61-2.24-.46-16.18,1.73-16.05-2.51.14-4.18.22-12.05.37-16.23.26-6.77.32-13.56.64-20.32.25-5.19,1.1-10.33,1.34-15.52.02-.38.11-.76-.19-1.42Z"/><path class="cls-1" d="m270.82,78.28c-8.73,18.07-33.3,7.38-33.49,8.82-.81,6.22-4.2,20.91-5.31,27.08-.35,1.95-15.96-.34-15.93-2.33,0-.11,5.76-1.52,7.22-9.71.91-6.17,1.53-12.37,2.61-18.51,1.3-7.36,4-23.71,3.87-24.55,2.21-14.93.57-14.22-1.45-15.74-.57-.43-.98-.84-.74-1.57.26-.78.95-.96,1.65-.88,3.42.39,11.37.99,13.91,1.11,4.97.23,9.84.9,14.63,2.45,2.94.95,5.87,1.85,8.56,3.33,5.66,3.11,6.85,5.93,7.55,12.65.2,1.87.02,11.37-3.1,17.83Zm-31.7-2.18c-.07.89,15.37,1.12,15.39,1.11,3.05-.45,6.27-3.01,7.34-5.91.48-1.28,1.18-5.47,1.26-6.9.26-4.53-2.07-7.17-6.34-8.65-4.18-1.44-10.03-2.02-14.36-2.72-.87-.14-3.03,19.81-3.29,23.06Z"/><path d="m80.45,56.86c-2.21-.18-4.54-.15-6.86.27-.54.1-.53-.21-.42-.56.17-.52.63-.72,1.1-.9,1.44-.53,1.7-.97,1.48-2.49-.32-2.26-.77-4.5-1.28-6.73-.51-2.25-.75-4.56-1-6.86-.07-.68-.29-1.34-.43-2.02-.15-.7-.6-.95-1.29-.94-3.06.08-6.11.16-9.15.51-.34.04-.69.06-1.03.09-1.16.1-1.37.31-1.68,1.43-1.16,4.3-1.78,8.72-2.62,13.09-.16.81-.13,1.67-.12,2.5,0,.96.71,1.6,1.19,2.33.34.53.25.88-.38,1.01-.24.05-.5.05-.73,0-1.92-.43-3.88-.24-5.82-.36-1.23-.08-2.42.41-3.64.56-.25.03-.49.08-.73,0-.54-.18-.59-.47-.19-.87,1.63-1.62,2.72-3.47,3.04-5.83.4-2.95,1.11-5.84,1.78-8.75.79-3.38,1.29-6.81,2.22-10.16.85-3.05,1.63-6.13,2.48-9.18,1-3.58,1.69-7.23,2.49-10.86.37-1.69-.28-2.69-2-3.1-.24-.06-.49-.1-.7-.2-.18-.09-.5-.12-.48-.38.02-.24.29-.29.51-.32,1.26-.19,2.51-.45,3.77-.55,3.19-.25,6.37-.67,9.58-.59,2.74.07,3.72.75,4.38,3.44.86,3.49,1.54,7.03,2.39,10.52,1.12,4.62,2.44,9.19,3.44,13.84.89,4.11,1.45,8.3,2.16,12.45.29,1.67.76,3.31,1.12,4.97.2.91.81,1.74,1.71,2.23.26.14.52.28.79.39.54.24.96.56.82,1.22-.13.65-.66.68-1.2.74-1.53.15-3.05.02-4.71.04Zm-13.94-43.42c-1.52-.09-1.3-.35-1.7,1.21-1.3,5.13-1.96,10.39-3.05,15.56-.08.39,0,.48.4.37,2.69-.75,5.45-1.09,8.22-1.34.44-.04.53-.18.46-.6-.2-1.29-.38-2.58-.55-3.87-.39-3.05-.51-6.13-1.26-9.13-.55-2.21.03-1.91-2.53-2.21Z"/><path d="m46.72,10.76c-.36.61-.83.91-1.24,1.23-1.54,1.23-3.12,2.41-4.66,3.64-.5.4-.82.35-1.32-.05-3.38-2.68-7.18-4.36-11.56-4.44-2.07-.04-4.07.49-5.88,1.48-2.43,1.33-2.85,4.5-.96,6.51.95,1,2.08,1.74,3.31,2.32,3.4,1.63,6.73,3.39,10.33,4.58,3.36,1.11,6.26,2.91,8.28,5.89,1.83,2.69,2.66,5.7,2.27,8.93-.47,3.87-2.19,7.16-4.89,9.99-2.09,2.2-4.57,3.82-7.41,4.69-2.7.84-5.51.89-8.28-.06-2.97-1.02-5.82-2.23-8.43-4.02-1.31-.9-2.69-1.72-4.18-2.33-1.87-.77-3.59-.64-5.2.61-.18.14-.34.22-.52.07-.15-.12-.15-.29-.07-.47.12-.27.19-.56.33-.82,1.18-2.24,2.35-4.48,3.56-6.71.48-.89.51-.87,1.42-.38,2.26,1.21,4.5,2.45,6.71,3.74,2.5,1.45,5.2,2.29,8.09,2.65,1.91.24,3.8.35,5.63-.23,4.69-1.49,7.31-5.97,5.49-10.83-.87-2.33-2.42-3.87-4.61-4.91-2.75-1.31-5.66-2.15-8.55-3.06-2.17-.68-4.28-1.51-6.26-2.61-2.36-1.31-4.2-3.13-5.49-5.53-2.36-4.41-.23-9.79,2.93-12.22,3.21-2.46,6.87-3.67,10.89-4.01,2.37-.2,4.66-.03,6.94.56,1.58.41,3.09,1.01,4.49,1.84,1.86,1.1,3.75,2.17,5.4,3.6.76.66,1.71.5,2.61.41.25-.02.48,0,.83-.04Z"/><path d="m164.55,7.94c-.22.71-.65,1.07-1,1.46-1.31,1.47-2.68,2.89-4,4.35-.4.44-.71.5-1.25.17-2.45-1.53-4.97-2.9-7.8-3.62-2.9-.74-6.05.52-7.64,3.09-1.12,1.82-.88,3.73-.7,5.69.18,2.06,1.75,2.79,3.2,3.6,1.98,1.1,4.07,1.99,6.2,2.76,3.23,1.16,5.97,3.03,8,5.73,1.83,2.45,3.63,5.05,3.71,8.3.09,3.66-.63,7.16-3.14,9.98-2.87,3.23-6.31,5.5-10.88,5.31-3.69-.15-7.1-1.2-10.15-3.33-.85-.59-1.71-1.16-2.61-1.68-1.37-.79-2.81-.43-4.24-.19-.3.05-.74.31-.9.04-.19-.32.23-.6.45-.85,1.98-2.23,3.91-4.49,5.75-6.84.13-.17.31-.32.5-.44.7-.44.98-.32,1.14.47.55,2.86,2.43,4.61,4.96,5.72,1.68.74,3.49,1.06,5.32,1.15,4.53.22,7.78-2.26,8.41-7.25.22-1.77-.33-3.29-1.25-4.74-2.31-3.66-5.51-6.11-9.7-7.27-1.3-.36-2.59-.78-3.87-1.23-3.74-1.31-6.35-3.69-7.26-7.68-.38-1.66-.21-3.31.24-4.9.94-3.33,2.36-6.41,5.21-8.56,3.27-2.46,6.9-3.37,10.94-2.12,2.24.7,4.44,1.45,6.45,2.7,1.32.82,2.76,1.16,4.3.57.47-.18.98-.27,1.61-.43Z"/><path d="m98.28,55.47c-.04-.35.19-.53.37-.72.85-.89,1.28-1.96,1.51-3.14.39-1.93.34-3.87.32-5.82-.04-3.57-.12-7.14-.51-10.7-.21-1.89-1.01-3.55-2.46-4.73-2.69-2.17-4.89-4.77-7.04-7.45-2.5-3.13-4.68-6.47-6.51-10.02-1.18-2.28-2.78-3.96-5.16-4.9-.26-.1-.49-.28-.47-.59.03-.39.37-.32.62-.38,2.11-.5,4.28-.64,6.43-.92.55-.07.93.14,1.29.54,1.34,1.53,2.27,3.34,3.33,5.05,2.76,4.45,5.93,8.54,10.08,11.78,1.85,1.45,1.64,1.63,2.45-.74.73-2.17,1.71-4.25,2.14-6.52.45-2.39.94-4.78,1.41-7.18.11-.53.28-1.05.35-1.58.23-1.59,1.2-2.45,2.69-2.85,2.31-.63,4.64-1.12,7.02-1.35.16-.02.36-.12.47.08.1.19.02.39-.12.55-.08.09-.16.2-.26.26-1.25.71-1.87,1.88-2.2,3.2-.54,2.13-1.47,4.12-2.08,6.22-1.17,4.01-2.44,7.98-3.64,11.98-.58,1.93-1.21,3.84-2.12,5.64-.6,1.17-.67,2.42-.55,3.67.16,1.62.17,3.25.21,4.87.08,3.05.42,6.04,1.06,9.03.43,2.01,1.33,3.72,2.56,5.31.09.12.19.22.28.35.14.21.26.43.11.68-.14.24-.38.19-.6.17-2.31-.19-4.62-.16-6.94-.08-1.35.05-2.69.17-4.04.26Z"/><path d="m175.75,54.7c-2.18-.19-5.01.01-7.84-.12-.2,0-.39-.02-.59-.02-.3,0-.55-.12-.6-.44-.05-.31.14-.49.42-.61.97-.42,1.93-.86,2.9-1.28.66-.29,1-.72,1.09-1.49.43-3.69.84-7.39,1.07-11.1.15-2.51.33-5.01.29-7.53-.01-.66-.26-1.19-.55-1.73-.61-1.13-1.21-2.25-1.82-3.38-.11-.2-.21-.39-.2-.62.01-.28-.14-.62.21-.79.3-.15.5.08.73.23,1.68,1.1,3.55,1.35,5.51,1.18,1.15-.1,2.31-.24,3.46-.13.65.06.86.49.41.94-1.44,1.43-1.62,3.29-1.71,5.12-.2,4.03-.26,8.08-.4,12.11-.07,2.14-.17,4.28-.3,6.42-.04.7.2,1.12.86,1.35.76.27,1.51.58,2.27.87.35.13.76.25.65.74-.11.47-.54.46-.9.45-1.43-.03-2.86-.09-4.94-.17Z"/><path d="m184.38,12.13c-.03.26-.19.42-.36.56-3.17,2.63-5.54,5.97-8.14,9.11-.37.45-.75.55-1.19.18-.77-.64-1.59-1.13-2.59-1.32-.59-.11-.68-.54-.31-1.24.55-1.05,1.25-2,1.96-2.94,1.22-1.6,2.49-3.17,3.73-4.76.3-.38.72-.4,1.13-.4,1.72,0,3.44.16,5.15.32.33.03.56.16.62.48Z"/></svg>